<mxfile host="app.diagrams.net" agent="Mozilla/5.0 (Macintosh; Intel Mac OS X 10_15_7) AppleWebKit/537.36 (KHTML, like Gecko) Chrome/134.0.0.0 Safari/537.36" version="26.1.1">
  <diagram name="Page-1" id="mLrIJ_yTPmgtDd6CxRPv">
    <mxGraphModel dx="1241" dy="792" grid="1" gridSize="10" guides="1" tooltips="1" connect="1" arrows="1" fold="1" page="1" pageScale="1" pageWidth="850" pageHeight="1100" math="0" shadow="0">
      <root>
        <mxCell id="0" />
        <mxCell id="1" parent="0" />
        <mxCell id="Wn_DIbC_k09VwicD28QW-40" value="" style="rounded=0;whiteSpace=wrap;html=1;" vertex="1" parent="1">
          <mxGeometry x="50" y="10" width="750" height="670" as="geometry" />
        </mxCell>
        <mxCell id="Wn_DIbC_k09VwicD28QW-1" value="" style="ellipse;whiteSpace=wrap;html=1;aspect=fixed;fillColor=#000000;strokeColor=#23445d;" vertex="1" parent="1">
          <mxGeometry x="345" y="280" width="160" height="160" as="geometry" />
        </mxCell>
        <mxCell id="Wn_DIbC_k09VwicD28QW-48" value="" style="ellipse;whiteSpace=wrap;html=1;aspect=fixed;" vertex="1" parent="1">
          <mxGeometry x="363" y="297.5" width="125" height="125" as="geometry" />
        </mxCell>
        <mxCell id="Wn_DIbC_k09VwicD28QW-7" style="edgeStyle=orthogonalEdgeStyle;rounded=0;orthogonalLoop=1;jettySize=auto;html=1;" edge="1" parent="1" source="Wn_DIbC_k09VwicD28QW-4" target="Wn_DIbC_k09VwicD28QW-1">
          <mxGeometry relative="1" as="geometry" />
        </mxCell>
        <mxCell id="Wn_DIbC_k09VwicD28QW-25" style="rounded=0;orthogonalLoop=1;jettySize=auto;html=1;startArrow=classic;startFill=1;exitX=1;exitY=0.5;exitDx=0;exitDy=0;" edge="1" parent="1" source="Wn_DIbC_k09VwicD28QW-4" target="Wn_DIbC_k09VwicD28QW-9">
          <mxGeometry relative="1" as="geometry" />
        </mxCell>
        <mxCell id="Wn_DIbC_k09VwicD28QW-4" value="" style="ellipse;whiteSpace=wrap;html=1;aspect=fixed;fillColor=#1ba1e2;strokeColor=#006EAF;fontColor=#ffffff;" vertex="1" parent="1">
          <mxGeometry x="390" y="90" width="70" height="70" as="geometry" />
        </mxCell>
        <mxCell id="Wn_DIbC_k09VwicD28QW-8" value="SCA&lt;br&gt;Account Abstraction" style="text;html=1;align=center;verticalAlign=middle;whiteSpace=wrap;rounded=0;" vertex="1" parent="1">
          <mxGeometry x="348" y="50" width="155" height="30" as="geometry" />
        </mxCell>
        <mxCell id="Wn_DIbC_k09VwicD28QW-10" style="rounded=0;orthogonalLoop=1;jettySize=auto;html=1;entryX=0.926;entryY=0.213;entryDx=0;entryDy=0;entryPerimeter=0;" edge="1" parent="1" source="Wn_DIbC_k09VwicD28QW-9" target="Wn_DIbC_k09VwicD28QW-1">
          <mxGeometry relative="1" as="geometry">
            <mxPoint x="490" y="300" as="targetPoint" />
          </mxGeometry>
        </mxCell>
        <mxCell id="Wn_DIbC_k09VwicD28QW-26" style="edgeStyle=orthogonalEdgeStyle;rounded=0;orthogonalLoop=1;jettySize=auto;html=1;startArrow=classic;startFill=1;" edge="1" parent="1" source="Wn_DIbC_k09VwicD28QW-9" target="Wn_DIbC_k09VwicD28QW-12">
          <mxGeometry relative="1" as="geometry" />
        </mxCell>
        <mxCell id="Wn_DIbC_k09VwicD28QW-9" value="" style="ellipse;whiteSpace=wrap;html=1;aspect=fixed;fillColor=#1ba1e2;fontColor=#ffffff;strokeColor=#006EAF;" vertex="1" parent="1">
          <mxGeometry x="600" y="210" width="70" height="70" as="geometry" />
        </mxCell>
        <mxCell id="Wn_DIbC_k09VwicD28QW-11" value="Paymaster" style="text;html=1;align=center;verticalAlign=middle;whiteSpace=wrap;rounded=0;" vertex="1" parent="1">
          <mxGeometry x="680" y="230" width="82.5" height="30" as="geometry" />
        </mxCell>
        <mxCell id="Wn_DIbC_k09VwicD28QW-27" style="rounded=0;orthogonalLoop=1;jettySize=auto;html=1;entryX=1;entryY=0.5;entryDx=0;entryDy=0;startArrow=classic;startFill=1;" edge="1" parent="1" source="Wn_DIbC_k09VwicD28QW-12" target="Wn_DIbC_k09VwicD28QW-15">
          <mxGeometry relative="1" as="geometry" />
        </mxCell>
        <mxCell id="Wn_DIbC_k09VwicD28QW-12" value="" style="ellipse;whiteSpace=wrap;html=1;aspect=fixed;fillColor=#1ba1e2;fontColor=#ffffff;strokeColor=#006EAF;" vertex="1" parent="1">
          <mxGeometry x="600" y="440" width="70" height="70" as="geometry" />
        </mxCell>
        <mxCell id="Wn_DIbC_k09VwicD28QW-13" style="rounded=0;orthogonalLoop=1;jettySize=auto;html=1;entryX=0.906;entryY=0.805;entryDx=0;entryDy=0;entryPerimeter=0;" edge="1" parent="1" source="Wn_DIbC_k09VwicD28QW-12" target="Wn_DIbC_k09VwicD28QW-1">
          <mxGeometry relative="1" as="geometry" />
        </mxCell>
        <mxCell id="Wn_DIbC_k09VwicD28QW-14" value="4337 Operations" style="text;html=1;align=center;verticalAlign=middle;whiteSpace=wrap;rounded=0;" vertex="1" parent="1">
          <mxGeometry x="685" y="460" width="72.5" height="30" as="geometry" />
        </mxCell>
        <mxCell id="Wn_DIbC_k09VwicD28QW-16" style="edgeStyle=orthogonalEdgeStyle;rounded=0;orthogonalLoop=1;jettySize=auto;html=1;" edge="1" parent="1" source="Wn_DIbC_k09VwicD28QW-15" target="Wn_DIbC_k09VwicD28QW-1">
          <mxGeometry relative="1" as="geometry" />
        </mxCell>
        <mxCell id="Wn_DIbC_k09VwicD28QW-28" style="rounded=0;orthogonalLoop=1;jettySize=auto;html=1;entryX=1;entryY=1;entryDx=0;entryDy=0;startArrow=classic;startFill=1;" edge="1" parent="1" source="Wn_DIbC_k09VwicD28QW-15" target="Wn_DIbC_k09VwicD28QW-18">
          <mxGeometry relative="1" as="geometry" />
        </mxCell>
        <mxCell id="Wn_DIbC_k09VwicD28QW-15" value="" style="ellipse;whiteSpace=wrap;html=1;aspect=fixed;fillColor=#76608a;fontColor=#ffffff;strokeColor=#432D57;" vertex="1" parent="1">
          <mxGeometry x="390" y="560" width="70" height="70" as="geometry" />
        </mxCell>
        <mxCell id="Wn_DIbC_k09VwicD28QW-17" value="Inheritence" style="text;html=1;align=center;verticalAlign=middle;whiteSpace=wrap;rounded=0;" vertex="1" parent="1">
          <mxGeometry x="389" y="640" width="72.5" height="30" as="geometry" />
        </mxCell>
        <mxCell id="Wn_DIbC_k09VwicD28QW-29" style="edgeStyle=orthogonalEdgeStyle;rounded=0;orthogonalLoop=1;jettySize=auto;html=1;" edge="1" parent="1" source="Wn_DIbC_k09VwicD28QW-18" target="Wn_DIbC_k09VwicD28QW-21">
          <mxGeometry relative="1" as="geometry" />
        </mxCell>
        <mxCell id="Wn_DIbC_k09VwicD28QW-18" value="" style="ellipse;whiteSpace=wrap;html=1;aspect=fixed;fillColor=#76608a;fontColor=#ffffff;strokeColor=#432D57;" vertex="1" parent="1">
          <mxGeometry x="170" y="440" width="70" height="70" as="geometry" />
        </mxCell>
        <mxCell id="Wn_DIbC_k09VwicD28QW-19" style="rounded=0;orthogonalLoop=1;jettySize=auto;html=1;entryX=0.097;entryY=0.779;entryDx=0;entryDy=0;entryPerimeter=0;" edge="1" parent="1" source="Wn_DIbC_k09VwicD28QW-18" target="Wn_DIbC_k09VwicD28QW-1">
          <mxGeometry relative="1" as="geometry" />
        </mxCell>
        <mxCell id="Wn_DIbC_k09VwicD28QW-20" value="Account Recovery" style="text;html=1;align=center;verticalAlign=middle;whiteSpace=wrap;rounded=0;" vertex="1" parent="1">
          <mxGeometry x="80" y="460" width="72.5" height="30" as="geometry" />
        </mxCell>
        <mxCell id="Wn_DIbC_k09VwicD28QW-30" style="rounded=0;orthogonalLoop=1;jettySize=auto;html=1;entryX=0;entryY=0.5;entryDx=0;entryDy=0;startArrow=classic;startFill=1;" edge="1" parent="1" source="Wn_DIbC_k09VwicD28QW-21" target="Wn_DIbC_k09VwicD28QW-4">
          <mxGeometry relative="1" as="geometry" />
        </mxCell>
        <mxCell id="Wn_DIbC_k09VwicD28QW-21" value="" style="ellipse;whiteSpace=wrap;html=1;aspect=fixed;fillColor=#76608a;fontColor=#ffffff;strokeColor=#432D57;" vertex="1" parent="1">
          <mxGeometry x="170" y="210" width="70" height="70" as="geometry" />
        </mxCell>
        <mxCell id="Wn_DIbC_k09VwicD28QW-22" style="rounded=0;orthogonalLoop=1;jettySize=auto;html=1;entryX=0.103;entryY=0.213;entryDx=0;entryDy=0;entryPerimeter=0;" edge="1" parent="1" source="Wn_DIbC_k09VwicD28QW-21" target="Wn_DIbC_k09VwicD28QW-1">
          <mxGeometry relative="1" as="geometry" />
        </mxCell>
        <mxCell id="Wn_DIbC_k09VwicD28QW-23" value="HSM Key Management" style="text;html=1;align=center;verticalAlign=middle;whiteSpace=wrap;rounded=0;" vertex="1" parent="1">
          <mxGeometry x="80" y="230" width="72.5" height="30" as="geometry" />
        </mxCell>
        <mxCell id="Wn_DIbC_k09VwicD28QW-31" value="" style="image;aspect=fixed;perimeter=ellipsePerimeter;html=1;align=center;shadow=0;dashed=0;spacingTop=3;image=img/lib/active_directory/database_cube.svg;" vertex="1" parent="1">
          <mxGeometry x="191.5" y="230" width="27" height="30" as="geometry" />
        </mxCell>
        <mxCell id="Wn_DIbC_k09VwicD28QW-35" value="" style="shape=image;verticalLabelPosition=bottom;labelBackgroundColor=default;verticalAlign=top;aspect=fixed;imageAspect=0;image=data:image/png,iVBORw0KGgoAAAANSUhEUgAAAgAAAAIACAYAAAD0eNT6AAAAAXNSR0IArs4c6QAAAERlWElmTU0AKgAAAAgAAYdpAAQAAAABAAAAGgAAAAAAA6ABAAMAAAABAAEAAKACAAQAAAABAAACAKADAAQAAAABAAACAAAAAAAL+LWFAABAAElEQVR4Ae29CZReV3Wgu2ue51nzPMu2jG0gEIcYcNOELAdId2IIkzvNywuBLDohJO8l3emOO6t5JCR5QELArAYSkg4vOIEGzGhih0AMtjxosmapVJKqpFLN86S3949LllTTudP/3/vf72idVVX33+ecfb5dqrPvGfYRIUEAAhCAAAQgAAEIQAACEIAABCAAAQhAAAIQgAAEIAABCEAAAhCAAAQgAAEIQAACEIAABCAAAQhAAAIQgAAEIAABCEAAAhCAAAQgAAEIQAACEIAABCAAAQhAAAIQgAAEIAABCEAAAhCAAAQgAAEIQAACEIAABCAAAQhAAAIQgAAEIAABCEAAAhCAAAQgAAEIQAACEIAABCAAAQhAAAIQgAAEIAABCEAAAhCAAAQgcDOBgpsf8DMEIBA5gQZtYYfm7Zq3at6meZ3mGs2Vmms1V2su0UyCQJQEprTyEc0Dmoc1j2o+p/mo5udf+HpMv5oMKc8I4ADkmUHpTiwJ2MD+Us2veSHv06+FmkkQSAKBOVXSnIHvaf625m9qHtRMSjgBHICEGxD1Y0ugUTX795rfqvkVmvm/phBIeUFgWnvxuOa/1vxFzTZzQEogAf4oJdBoqBxbAvZW/wbND2j+t5pLNZMgkM8ExrRz/6D5s5ptduCqZhIEIACB1BCwtfq3az6k2f4AkmGQxt+B5174f1CkX0kQgAAE8ppAsfbuPZrPak7jH3z6jN0X+x04ov8fzCFmn4tCIEEAAvlH4G7tkr3xLPYHkGdw4XdAZL/+/3hZ/v3Xp0cQgEBaCbRrxz+n2XZG80ceBvwOLP87YP9P7P9Ls2ZSzAiwCTBmBkGdWBN4k2r3ac31sdYS5SAQPwKXVKV3aP56/FRLr0as0aTX9vTcnUCZiv6Z5r/XzODvzg1JCMwTaNVvvqbZ/h8R4GqeSo6/MgOQYwPQfOwJbFEN/07z7VFqWlBQIGWlpVJSUizFxUVSVFQk9owEgSgJXL16VWZnZ2VmZjbzdXJySmbnbNY+0mQBhe7X3BVpK1S+IgH+wqyICIEUE7hL+/5VzaGuXxYWFkpNTZXU1dRIbW21VFZWSHl5mRQy4Kf4Vy0+XZ+YnJTxsQkZHRuXgcEhzcPqIMyEreBFrdBiZTwbdsXU504AB8CdFZLpInCvdteinFlM/sDJ3uibmxqkpblRGhrqpEidABIEkkDAdjmOjIzKlSv90nOpV8YnJsNS28IJ36f5sbAqpB5vBHAAvPFCOh0EflG7+VnNoUXys4F/906794cEgWQTGBwalu7uy9Jz+YrMBV8umFAaFi774WRTSab2RGxKpt3QOjoCD2jVn9FsQX5CS1U6zd/a0hRafVQEgVwRKC8ry8xmtbe1ZFQYHR0T20vgM9n/s5/XfEDz8z7roJhPAjgAPsFRLC8J2OD/Kc2hz8/jAOTl70uqO2WbVRsb6qWjo1Wmp2dkRB0Bn8n+v9lSgG0OPOuzDor5IBD6HzofOlAEAnEg8C5VIpLBPw6dQwcIREWgtKREdmzbJC/Zt0dqqqv8NlOuBb+seZ/fCijnnQAOgHdmlMg/Ag9olx7SzP+H/LMtPcoSARv8b79tt6xbs8pvi7Va0E7drPFbAeW8EeAPnjdeSOcfARv8fb35c2wv/34Z6FEwAha7YtPGtXLLnu2ZmBY+auvQMn+rOdQ9OD70SEURHIBUmJlOLkHA9+Bv054vu/2WJarlMQTSTcD2Btyxb6/Y3hcf6ZVa5g98lKOIRwI4AB6BIZ43BHyv+dfqVOdP3rVPmvQ8PwkCEFicQFlZqey7dZfU1dYsLrD80w/qxz+7vAifBiWAAxCUIOWTSMDe/H2t+bfpef5X3HmbVFbYniUSBCCwHIHi4mK5Ze+OzGmB5eQW+axAn9nSXMMin/EoJAI4ACGBpJrEEPD95t+qg/8dt+ySYo3qR4IABNwIWNTLPbu2+pkJaNMWHnRrBSk/BHAA/FCjTFIJ2ODv683fBv87dfC3OP4kCEDAGwH7f7N393aprqr0VlDkV7TAS70WQt6NAH/N3DghlXwCD2gXfA3+7RrB785bdjP4J/93gB7kkIAFDtqjToDdeOkh2Rj1Uc2MVR6guYoC1ZUUckkmYIO/r6N+Nvi/ZK+9+duSJAkCEAhCoFw3Bu7YttlrFXdqgbd4LYT8ygRwAFZmhESyCQRa83/J3p0M/sm2P9rHjEBTY70GC7Lj/p7S/6XSjFeekK0sDNCVGSGRXAL25s+0f3Lth+Z5SmDjhrVS5W0/wE5F8aY8xZGzbuEA5Aw9DUdMgDf/iAFTPQT8ErCIgdu2bPBa/P/WAqzFeaW2jDwOwDJw+CixBHjzT6zpUDwtBCxA0PyVwo59vk3lXu0oi5gDARwAB0iIJIqADf5s+EuUyVA2rQQ26VKAxQnwkN7hQRbRFQh4Ir9CXXwMgVwTYNo/1xagfQh4IFBaWiId7a0eSsgbVdhXbGEvjaRFFgcgLZbO/37a4O9rwx9BfvL/l4MexpfAWj0R4OFmzSrtiTkBpBAI4ACEAJEqck7gAdXA1+BPkJ+c2w4FUk7ALg1qbW32QuFtXoSRXZoADsDSbPgkGQSY9k+GndASAksS8LgZ8G6tyGYCSAEJ4AAEBEjxnBJg2j+n+GkcAuEQqK+rkYryMtfKSlXwla7CyC1NAAdgaTZ8Em8CTPvH2z5oBwFPBDwuA9zjqXKEFyWAA7AoFh7GnADT/jE3EOpBwCsBCxHsIeEAeIC1lCgOwFJkeB5XAg+oYmz4i6t10AsCPgnUVFeJ3RjomPapHPsAHGEtJYYDsBQZnseRAG/+cbQKOkEgBAIWHri+rta1JvMUtroKI7c4ARyAxbnwNH4EePOPn03QCAKhEqjTzYAe0g4PsoguQgAHYBEoPIodAd78Y2cSFIJA+ASqKiu8VLrdizCyCwkUL3zEEwjEioC9+Sc+tv/k5JRc7u2LFdikKVOoMeOLigqlpLhEKirKxH4m5ReBygocgGxaFAcgm7RpyyuBvBj8rdNDwyNy6Mhxr/1HfhkC5Xpu3DaO2bpxQ0OdVFaULyPNR0kgUKY2Ncdubm7ORd21LkLILE0AB2BpNnySWwJ5M/jnFmP+tj4xMSmW52dWqtUZaNeQsm1tzTpLwJ+2JFq+QJUu19DAY+MTLup72jDgUmHaZPhfkjaLJ6O/DP7JsFOstBwZGZUTmk+f7ZJVHa2ydnWH2G1zpGQRKCpyPgrofGQgWQSypy2LaNljTUtuBNjw58YJqSUIzM7Oyrmui/LEk89IZ9cFuXr16hKSPI4jAQ8OADMAAQ2IAxAQIMVDJWBv/gT5CRVpeiubnZ2TU6fPyf5nDsm425RyemHFqOceggHhAAS0Gw5AQIAUD42ADf6J3+0fGg0qCo3AsC4LPPX0wWt7BUKrmIoiIWABgRyT8+1BjvWlTgwHIHUmj2WHmfaPpVnyR6kZXRawUxidujRAggAEfkwAB4DfhFwTsDd/pv1zbYWUtH/qdKecPtOVkt7STQgsTwAHYHk+fBotAd78o+VL7YsQOHvufGaT4CIf8QgCqSKAA5Aqc8eqs7z5x8oc6VLmpM4EzMcPSFfP6S0EXiRAHIAXWfBd9gjY4J+qDX93bm6XX7vXbjAl+SUwPjUt/aOTcry7X5481SMHz/XKXIAjfkePnZLqqkoNK0wEQb82oVyyCeAAJNt+SdQ+dYO/GWlNY7W88c4tSbRXbHXuGRyTv3/imHzy0efk9KVBz3raxsDDz5+Q22/bLR52nntuhwIQiCsBlgDiapn81CuVg39+mjL3vWqrq5T33Hub7P/Dt8nH3vVqaar2dJFMpgN2RPD8xZ7cdwYNIJADAjgAOYCe0iYZ/FNq+Ki7XVRYIG//yV3yxINvkZdt7fDc3Bk9FTA1Pe25HAUgkHQCOABJt2Ay9Ge3fzLslGgtW2sr5SsfeKO8TZ0BL8mWArq6ur0UQRYCeUEAByAvzBjrTtibP+f8Y22i/FGutLhIPq7LAb/0yp2eOmXLANMzM57KIAyBpBPAAUi6BeOtP2/+8bZP3mr3Z++4R165fbVz/+wCoZ6eXmd5BCGQDwRwAPLBivHsA2/+8bRLKrQqKSqUz/yfr5O6Svdw8T2XcABS8ctBJ68RwAG4hoJvQiRgg3+qzvmHyI6qQiJgewJ+42fucK7NTgSMcWugMy8Ek08AByD5NoxbD5j2j5tFUqzPr7zmVlnT5H5r7MCA93gCKcZL1xNOAAcg4QaMmfr25s+Gv5gZJc3qlJcUya+qE+Ca+geGXEWRg0DiCeAAJN6EsemADf5M+8fGHCgyT+DnX7ZNI/3N/7T8V1sGIEEgLQRwANJi6Wj7ybR/tHypPQCB9roq2b262amGiYlJmZubc5JFCAJJJ4ADkHQL5l5/e/Nn2j/3dkCDZQjYZUyuaVydABIE0kAAByANVo6ujzb4M+0fHV9qDonAlvZ655pmpgkI5AwLwUQTwAFItPlyqjzT/jnFT+NeCDRWu1/5Ozs366VqZCGQWAJcB5xY0+VUcd78c4qfxr0SKNMQwa5pbu6qqyhyEEg0AWYAEm2+nCjP4J8T7DQahMDo5LRz8aJC/iw6w0Iw0QT4TU+0+bKuPNP+WUdOg2EQuNA/4lxNkYfZAudKEYRADAmwBBBDo8RUJd78Y2oY1FqZwNEL/SsLvSBRWlriLIsgBJJMgBmAJFsve7rz5p891rQUMoGruqT//WMXnGot1On/sjL3C4ScKkUIAjElwAxATA0TI7V484+RMVDFO4H9Z3qke9Atwl9lRbkUeG+CEhBIJAFmABJptqwpzeCfNdQ0FBWBv/mXI85V19W6XxzkXCmCEIgpARyAmBomBmox+MfACKgQjMCloTH56++5OwD19bXBGqQ0BBJEAAcgQcbKoqoM/lmETVPREXjwH/5VxqfcIvvZ+n9DfV10ylAzBGJGAAcgZgaJgToM/jEwAioEJ/DooU753OOHnStqaqyXYo4AOvNCMPkEcACSb8Mwe8DgHyZN6soZgZM9A/LOT3xd5uwIgGNqa3W7MdCxOsQgEHsCOACxN1HWFGTwzxpqGoqSQO/wuPzC//sVGRh1v9WvsrJCmpoaolSLuiEQOwIcA4ydSXKiEOf8c4KdRsMmcPBcr9z/0a/K2d4hT1WvW7uK43+eiCGcDwRwAPLBisH6wJt/MH6UjgmBL/zrUfn1z35XvMT9N9WrqyqlraUpJr1ADQhkjwAOQPZYx7ElBv84WgWdPBH44clu+YOHfyCPHenyVG5eeNuWjVJQQPifeR58TQ8BHID02PrmnjL430yEnxND4NjFfvnOwU6xt/6nTvf41nv1qnapra32XZ6CEEgyARyAJFvPv+4M/v7Z+Sr5wxPd8o6/eMRXWQr9mMDIxLT0jUzICd3hPzjmvsFvKX411VWyeePapT7mOQTyngAOQN6beEEHGfwXIIn+wXm9jvYffnQi+oZowYlAaUmJ7N65VSz4DwkCaSXAb3+6LM9u/3TZm94uQqCoqEj27tku5eXc+rcIHh6liAAzAOkxNm/+6bE1PV2CgEX627t7u9j0PwkCaSeAA5CO3wAG/3TYmV4uQ6CstFRu0Tf/Kj32R4IABERwAPL/t4DBP/9tTA9XINCgt/zt3L5FSktLVpDkYwikhwAOQH7bmsE/QvvOzs5GWDtVh0HANvltWLda1hLpLwyc1JFnBHAA8syg13WHwf86GFF8Oz2DAxAF17DqbNbY/ls2rWezX1hAqSfvCOAA5J1JMx1i8M+CXZkByAJkH03YwL9e3/rZ6OcDHkVSRQAHIP/MzeCfJZtOTU9nqSWaWYmAxfNvbW3SmP7NUlZWupI4n0MAAkoAByC/fg0Y/LNoz9GxiSy2RlN2fr+oqFCKi4ulsqI8k6v1OJ9t8CvRwD4kCEDAGwEcAG+84ixNkJ8sW2dkbMy5xZ/8iTt08CpylkcQAhCAQNQECqNugPqzQsAG/4c0e7Zna3Oj3HnLLkKi+jDTyKibA2BT0gz+PgBTBAIQiJQAMwCR4s1K5Uz7ZwXzwkaGRkYXPlzkSVVlxSJPeQQBCEAgtwQ8vzHmVl1av4kA0/43AcnWj+MTkzI6Nu7UXCUOgBMnhCAAgewSYAYgu7zDbI03/zBpeqyrt3/AuQQzAM6oEIQABLJIgBmALMIOsSkG/xBh+qmqt8/dAairq/XTBGUgAAEIREoAByBSvJFUzrR/JFjdK52bm5Oey1ecCtgFNHZkjQQBCEAgbgRwAOJmkeX1Ybf/8nyy8mm3Dv7TMzNObdXrGXUSBCAAgTgSYA9AHK2yuE5M+y/OJetPuy72OLdpQWpIEIAABOJIgBmAOFploU4M/guZ5OTJ2PiEXLrS79R2QUGBNDU2OMkiBAEIQCDbBHAAsk3ce3us+XtnFlmJk2e75OrVq071NzbUa4haJtmcYCEEAQhknQAOQNaRe2qQNX9PuKIVnpyaknMXup0badPLaUgQgAAE4kqA15O4WkaEaf+Y2eb46U6Z1RMALslC/zbptbQkCEAAAnElwAxAPC3DtH/M7GJhf892XXTWqqO9RYoK+e/lDAxBCEAg6wT4C5V15Cs2yLT/ioiyL3DgyHGZc1z7t81/a1a3Z19JWoQABCDggQBLAB5gZUGUaf8sQPbaxNnzF6VvcMi5WGtLk5SXlTnLIwgBCEAgFwSYAcgF9cXbZPBfnEtOnw7r1P+hYyc96bB2TYcneYQhAAEI5IIADkAuqC9skzX/hUxy/mR2dlaeOnBEZmfdNv6Zwm2tzVJdVZlz3VEAAhCAwEoEWAJYiVD0n/PmHz1jXy08e/iYDI+OOZe1nf+bNq51lkcQAhCAQC4JMAOQS/oivPnnlv+SrR86dkrO91xe8vPFPli/dpXY5T8kCEAAAkkgwAxA7qzEm3/u2C/bskX7O9XZtazMzR9W6I1/7Py/mQo/QwACcSbADEBurPOL2uynNHvm3647zF+yd5cUFhbkRvM8b9UG/8PHT3nqpR3727l9s9rEszk9tYMwBCAAgTAJMAMQJk23uu5Rsc9o9jxatDY36uC/k8HfjbNnqSPHT8uJs+c8l1u/brXU1lR7LkcBCEAAArkkgAOQXfp3aXNf0uz5kDhv/tEZynb724Y/r2v+ppEN/Lb2T4IABCCQNAI4ANmz2BZt6quaPb8qMvhHZyQ75/+kHvUb8bDbf16b0pIS2bVzi9gSAAkCEIBA0gjgAGTHYvbG/wXNzV6bY/D3Ssxd3iL8WZAfL+f852u39f49u7cR8W8eCF8hAIHEEcAByI7J/kib2ee1Kdb8vRJzk7eLfQ48f1z6BtzD+95c8/atm1j3vxkKP0MAAokigAMQvbnepE38mtdmePP3Smxl+YnJKTlxplPO6K1+Vx0v9lms1s2b1mnEv6bFPuIZBCAAgcQQwAGI1lQWFP7TXptoy+z256ifV25LyY+NT4gd7+u80C1zc+5hfRerzwb/tauJ9b8YG55BAALJIoADEK29PqzV13tpora6Sm7nqJ8XZIvK2kDfffmKdF3skUtX+gO98c83sGXTeoL9zMPgKwQgkHgCOADRmfBurfotXqq3XeV33rpbijWmPMk7gfGJSentH5Devn7pudwn0zMz3itZpITt8t+6ZYOsam9d5FMeQQACEEgmARyAaOxmXD+u2fl8WKEOMnfcsksqNaQsaXECM3pef2ZmVnftz8rU9LSMjk3IyNiYfh2XweGRzNfFS/p/WlJSLLt3bpX6ulr/lVASAhCAQAwJ4ABEY5T/Q6vd46XqOd2U9v2nnvVSJLay5syUl5eJnWLYumGt76Ny9kZ/4sw5ncLvkwn93hhlM1Xptb57d+lRP+0LCQIQgEC+EXB+Q823jkfYnxKt+4TmdRG2kZiq7Q365ftukbpab/GPBoaG5V+fPiDT0+FM43sFtqqjVTZvXC9FRZ4jNnttCnkIQOA6AoeOHJfLvX3XPVn2W8awZfEs/yF/3Zbn4+dTW/dn8H+BnA3gTx447Gn3vW3ge/K5IzkZ/MvKSuWWPTtk25aNDP5+fvspAwEIJIYASwDhmsocqg+GW2Xya7NjeBd1R/7qthanzlzo6ZXxiQkn2TCFOnST3+aN66S4mE2YYXKlLghAIJ4EcADCtcvPanU7w60yP2rrGxh0dgD6Bgez2umGhrrMwF+ta/4kCEAAAmkhgAMQrqXfFW51+VPb5NS0TDgey5vK0rp/jcZc2LhhjTQ2eArVkD9GoScQgECqCeAAhGf+Rq3q34ZXXX7VVFpaItN6fM8llWg8hChTc1NDJqAPR/uipEzdEIBA3AngAIRnoX+vVZWGV11+1dSkg65ramqql86uC67iTnLzxxLbdZ2fWAtOyBCCAATynAAOQHgGfmt4VeVXTS0aD6C2xv0YYF1tjdhbeq+G8A2SKjSoUlNjvbS2NHlqP0iblIUABCCQFAI4AOFYqlmreUU4VeVXLTaQ79i2yXOndm7fLIefPyFX+gacytp5/YqKiky8AXMg6upqpKyUCRkneAhBAAKpJIADEI7ZLe6/U0CKwsJCqSyvCKfVkGopKi4UW6MPK1kfbfC1t28biP2kIr0PYe/u7TIwOCR9fYMyOTUpBQWFmbP59pkd1SspLtZBvzyTGez9UKYMBCCQZgI4AOFY/1Wu1VRVVGqIXJswiE9qaKyV6up4OSXzdGyjHpv15mnwFQIQgEB4BIgEGA7LV7lWU1UZv7PmZeVMlbvaDzkIQAAC+UIAByC4JW17+26Xauxa2Updp45TKtLp+hIi38XJJOgCAQhAICsEcACCY96lVThxLC8r03Vsp60CwbVyrKFYL+shQQACEIBA+gg4DVzpw+Kpx1tdpcvUAYhbKi4h7n3cbII+EIAABLJBAAcgOGVnB6C8NH4OgO2kJ0EAAhCAQPoI4AAEt/k21ypKIw5x66rH9XLMAFxPg+8hAAEIpIcADkBwW69zraI4hm/bFkCHBAEIQAAC6SPAX//gNneKdGODf9w2AFrXCzW4DgkCEIAABNJHgL/+wW3uFOS+qDCem+0Y/4P/AlADBCAAgSQSYAdYcKtVuVRRWBiv43/zOlt4XRIEIOCdwFUtMjY2LqOjYzI+MSlTU1MyOzuneVZDVRdnwlZbiG2L/VFZqVnDVpMgECcCOADBreE0AxDXqfa4OibBzUINEAifwPTMjFzRWyov9/bL4NCQzMzMOjdSopuA6/VuDLsjo1lvyCzWOy1IEMglARyA4PSd4ujGcf0/eNepAQLpIDA0PCLnL/TowN8nc3Nzvjo9PT2dKW91FJ44Iy3NDbJmdYfUVDtNIvpqk0IQWI4ADsBydPgMAhBINYERnd4/dfqc9PW7XUvtCsuciJ5LVzK5saFeNm1cK9VV8bsnxLU/yCWTAA5AMu2G1hCAQIQEbB3/9NmuzFv/1au22h9dMueif2BQVne0yYYNa1gaiA41Nd9EAAfgJiD8CAEIpJvAyMioHDpyQjf2TWQNhDkZXRe65UrfgOzauYVlgayRT3dDbAFPt/3pPQQgcB2Bnku9sv/Zw1kd/K9rPtPu09r+xe7L1z/mewhEQoAZgEiwUikEIJA0Aue6LsrJ0505V9v2Bxw9fipzrHD9utU51wcF8pcAMwD5a1t6BgEIOBKIy+B/vbq2B8EyCQJREcABiIos9UIAAokg0N1zORZv/ovBOtt5PrMRcbHPeAaBoARwAIISpDwEIJBYArbh75ieyY9zOn7yjPT3D8ZZRXRLKAH2ACTUcKgNAQgEIzCjR/0OHj7uO7BPYWGhvPwVd8s999wrL7njpbJ5yzapb2iQ0tIyGejvk76+K/Lss/vlRz/8gXzr61+Vzs4zvhU+cvSk3HH7Xq27xHcdFITAzQTiGaD+Zi3j/bPTIeHqyippa2mJXU/WrmuLnU4oBIFsELA3/wsXezw3VaH/l+/7hXfIb/3Gb8n6deudytvGvscf+478xcf+RL79rUecytws1NzUIHt2bbv5cd79fOjI8UzERMeOMYY5glpMjCWAxajwDAIQyGsCw8Ojvgb/u1/zBvnc//4XefC//5Hz4G8gbbbgVT/9Wvm7L35NvvDwI7Jx0xbPfHv1DoIrff2ey1EAAksRwAFYigzPIQCBvCXg9bhfgQ7g737/78nvf+Qhjd+/VuqrK3yzefVrXiePPv6kvP4NP+e5jhMnOyXqyISelaJAYgngACTWdCgOAQj4ITAwOCSWXVNZeYU8+GefkV9813syRdobqiTovHNtbZ187vMPy39494/rdNXFohNeunzFVRw5CCxLAAdgWTx8CAEI5BuBrvPdzl0qKiqW//zhT8rLf+reTJmykiKpqShzLr+coN0Q+qEPf1Tuf+s7lxNb8FnnuQsLnvEAAn4I4AD4oUYZCEAgkQSmpqYz8fZdlX/nez6gg/9rr4k311YGfvu/Vpl+Y07AH//pJ2TP3luvf7zs96Nj4zI0NLKsDB9CwIUADoALJWQgAIG8IHC5t895DX3z9t3ylgfee63fNu1fX1l+7eewvikrK5O/fOjzYl9dU/cl7gpwZYXc0gRwAJZmwycQgECeEbCd9K7p3e//XbHNf/OpsqxEr+p98ef552F83bFzt/zSO37ZuSov/XCuFMHUEYjmtzl1GOkwBCAQdwK2e35oeNhJzX13vVLu/ImfvkE2rLX/Gyq97of3/6ffkbJytxkGW8qwpQASBIIQIBJgEHoeys7MzsjI2KiHEtkRtSlREgTSQGBiYlJmZ+ecuvrG+x9YIFelMwBRpo5Vq+W1975evvLlh52aGRgYkqpK/8cRnRpBKK8J4ABkybwTk5MycTl+63Y9MdQpSyahGQgsSqC8olJedveLG//mhcpLo/9z+bP3vdnZARgdG5tXja8Q8EWAJQBf2CgEAQjkK4E9++6S4pIb3/Zt7T+q9f/rOVq0QNc0Pj7hKoocBBYlgAOwKBYeQgACaSWweduuBV0viWjz380NNTe3SEur2/0ctqRBgkAQAjgAQehRFgIQyDsCHWvWLehT0XWnARZ8GPKDLXqroEuy2wxJEAhCAAcgCD3KQgACeUegsqpmQZ8KC4MG/11Q5ZIPyjX0sEty3dDoUhcy6SSAA5BOu9NrCEBgCQJzc7l9sy65af/BEmrm7eOioiLXvrmd6XStLYVyOAApNDpdhgAEliYwNLAwWNDc3NWlC4T8SV+f22U/RVnalxBy91asrtL9aOORFStDYFkCOADL4uFDCEAgbQR6L/cs6PLsnFv8gAUFfTw4d+6sU6li9zdlp/riItTa3CiFekeCQ/orBxlEliGAA7AMHD6CAATSR+DIc08t6PS0YwChBQU9Pui9fEku9bjdVlhe7n53gEc1cipu/dq4ce1KOvyTCvzlSkJ8vjwBHIDl+fApBCCQMgLHDj0rUxq46/o0ow6A5ajTo49+0/myoooKt82CUescRf1rV3fIzu1bpLys9ObqLf7xRzS/XvP0zR/yszcC0Ye28qZP3kqX601fdbW1setfc3N97HRCIQhEQcDOzZ883bli1ZOTE/K97z4i97zu526QHZ+ekZqiBQPSDTJBf3jkq19yrqKqKn8dAIPQ1tokrS2NMjo6JsPDI98/euLM7+jj/Zq5C9kAhZBwAEKA6FJFcVGxVFdWuYhmVaZF19tIEEgDAbsM6Exnl9N9AI88/DcLHICxiWmpKY/OAejq6pSvfeUfnU1RXxe/Fwpn5R0FC3QvQHV1ldTUVJ9XB+Bxx2KIORJgCcARFGIQgECyCdhgUluz8Iz/Yr3a/8Q/y4Gnn7jho6HxG5cFbvgwhB/+/KMfkZmZGaeaSktLuAjIiRRCyxHAAViODp9BAAJ5RaC5ucGpPzZb8PEP/Z5cvW73//jkdGT7AA4eeFY+/amPO+lmQi1NzNw5w0JwSQI4AEui4QMIQCDfCNjAaTMBLunY4efks5/442uiFglgYDT8C3gmJybk13/tl53f/k2htrbma3rxDQT8EsAB8EuOchCAQOII2NR5c5PbLIB17q8++Sfyg8e+ea2fl4fGJMyQQDbT8N5ffUCeefrJa22s9E2VBsqpraleSYzPIbAiARyAFREhAAEI5BOB1avanbtjSwD/9Tf/ozoB38qUmZqZleGQ9gLM6mU+v/2B98kX//5vnfUxwXVrV3mSRxgCSxHAAViKDM8hAIG8JFBfVyMN9e476C0mwH95/wPy5S98JnNGv7t/JPAswOjoiLz9rW+Shz75MU+MKyrK9Whck6cyCENgKQI4AEuR4TkEIJC3BDZtXHjl73KdnZmZlj998Lfld9/3djnb2Sn9IxaPxl/65je+Kq+4a498/Wtf9lzBlk3rnfcweK6cAqkjgAOQOpPTYQhAoEbPlq9e1eYZhC0FvO0NL5MP/uZ75fTpk87lba3/2996RN58371y/797g7jG+7++Adu70NRI4K7rmfB9MAIEAgrGj9IQgEBCCWzasFau9A2IRQj0kqanpuThv/l0Jt+27w55/c/cJ3tuuU127NwtdXX1YtfZ2nn+c51n5dTJ4/L4Y9+RR7/9DV+D/rxetnlx25aN8z/yFQKhEHA7DxNKU3lbidOmYIsC2NbSEjsIa9d5fwuKXSdQCAI+CQyPjMrTzx6WuevO+/usKrJidmzx1j07pN7DvoXIlMlixRknquuiXO7tk/GJyTmdRbmkzX9X8//Q/FwWVcnbplgCyFvT0jEIQGAlArYUsG1rvN+st25en7rBXwd8efLpg3L23AUZG5+wzZc2Vtnxjfs1/0jzWzSTAhLAAQgIkOIQgECyCbS3NsvmTd42BWarxxvWrZZVHemapbP9EocOH1tuacYuZPifmm/Jlh3ytR0cgHy1LP2CAAScCdj1s3FzAmyPwob1a5z7kC+CvVf6ZURvAFwhmRPwwRVk+HgFAmwCXAEQH0MAAukgYE5AaUmpHD1+Kqd7AgoLC3XD3wZpb4vfnqFs/CYMDA65NnOPqyByixPAAVicC08hAIEUErA76KuqKuTQkeMyrmvP2U4W6Gf3ji2ZK3Cz3XZc2puedrsRUfVN19pIBAZiCSACqFQJAQgkl0B1VaXcsW+v2IyA68VBQXtr7Vh7d+zbk+rB3zjaHgDHxCk2R1BLiTEDsBQZnkMAAqklUFRUmNkTYLfunT7TpfEC+iNjYcF9bL2/Sh0PEgSySQAHIJu0aQsCEEgUAZsN2Lt7m1i8gPPnu+WSnkkPI2aAORjNejXx2jUdYm2QIJALAjgAuaBOmxCAQKIIWLyAHds3yxY9k9+r0QN71REYHBoWD+vVusGwJHOev1Hf+Fs0rK9FDCRBIJcEcABySZ+2IQCBRBEoLi4Wixtg2dLY2LiMah6fmJCpqWkNATwrds1vicrZAG8hfG1jX1VlReZrojqLsnlPAAcg701MByEAgagIVOrAbpkEgSQS4BRAEq2GzhCAAAQgAIGABHAAAgKkOAQgAAEIQCCJBHAAkmg1dIYABCAAAQgEJIADEBAgxSEAAQhAAAJJJIADkESroTMEIAABCEAgIAEcgIAAKQ4BCEAAAhBIIgEcgCRaDZ0hAAEIQAACAQngAAQESHEIQAACEIBAEgngACTRaugMAQhAAAIQCEgAByAgQIpDAAIQgAAEkkgAByCJVkNnCEAAAhCAQEACOAABAVIcAhCAAAQgkEQCOABJtBo6QwACEIAABAISwAEICJDiEIAABCAAgSQSwAFIotXQGQIQgAAEIBCQAA5AQIAUhwAEIAABCCSRAA5AEq2GzhCAAAQgAIGABHAAAgKkOAQgAAEIQCCJBHAAkmg1dIYABCAAAQgEJIADEBAgxSEAAQhAAAJJJIADkESroTMEIAABCEAgIAEcgIAAKQ4BCEAAAhBIIgEcgCRaDZ0hAAEIQAACAQngAAQESHEIQAACEIBAEgngACTRaugMAQhAAAIQCEgAByAgQIpDAAIQgAAEkkgAByCJVkNnCEAAAhCAQEACOAABAVIcAhCAAAQgkEQCOABJtBo6QwACEIAABAISwAEICJDiEIAABCAAgSQSwAFIotXQGQIQgAAEIBCQAA5AQIAUhwAEIAABCCSRAA5AEq2GzhCAAAQgAIGABHAAAgKkOAQgAAEIQCCJBHAAkmg1dIYABCAAAQgEJIADEBAgxSEAAQhAAAJJJIADkESroTMEIAABCEAgIAEcgIAAKQ4BCEAAAhBIIgEcgCRaDZ0hAAEIQAACAQngAAQESHEIQAACEIBAEgngACTRaugMAQhAAAIQCEgAByAgQIpDAAIQgAAEkkgAByCJVkNnCEAAAhCAQEACOAABAVIcAhCAAAQgkEQCOABJtBo6QwACEIAABAISwAEICJDiEIAABCAAgSQSwAFIotXQGQIQgAAEIBCQAA5AQIAUhwAEIAABCCSRAA5AEq2GzhCAAAQgAIGABHAAAgKkOAQgAAEIQCCJBHAAkmg1dIYABCAAAQgEJIADEBAgxSEAAQhAAAJJJFCQRKVjpvPVmOmTGnWKi4ukqLBICgsLxb4vKSmRiopyqdQ8/7W8vCw1POgoBPKBwKEjx+Vyb59rVxjDXEktIle8yDMeQSARBGZmZmVGZm/Utf/GH0vVKairq5G6Ws36taa66kYBfoIABCCQUgI4ACk1fFq6PTU9nXmbmH+jKC8rk7bWJmltbZaqyoq0YKCfEIAABBYQYPpkARLPD1gC8IwsHgWqdTagXR2B9raWzBJCPLRCCwikmwBLANmzPzMA2WNNSzEjMDIyKic0nz7bJR3qBKxd2yFlpaUx0xJ1IAABCERDAAcgGq7UmiACs7Oz0nWhWy50X5KO9hZZv3a1lJaWJKgHqAoBCEDAOwEcAO/MKJGnBObm5uT8hR7p7rksa1d3yLp1q6WwgFWyPDU33YJA6gkQByD1vwIAuJnA7OycnOk8L08+9Zz0Dwze/DE/QwACEMgLAjgAeWFGOhEFgbHxCXn2wPNy4tRZmbvKXs8oGFMnBCCQOwI4ALljT8sJIdB1vluefuaQjKtDQIIABCCQLwTYA5AlSxYXFYudQY9bqqiMn06ujCwQkK3bW56cnBI78x9VGtbTAk89c1C2b90kLc2NUTVDvRCAAASyRgAHIEuoMwFoWlqy1Jp7M2vXtbkLx1xyRnfz21v62Ni4DA2NyMDgkIzq92ElczjsjPKmjetk3ZqOsKqlHghAAAI5IYADkBPsNBoFgeKiokyoXwv326YBfixNTU1LX/+gXLrcqxv6huRqCGv5p053yrTONmxWR4AEAQhAIKkEcACSajn0diJg5/nb2yzaX3PGGei51KtH/bplQpcMgqRzXRcz9e3YtkkKOCoYBCVlIQCBHBHAAcgReJrNPgFzBtbq1P2a1e1ijkCnDuK2XOA3WR0WRGj3zq04AX4hUg4CEMgZAU4B5Aw9DeeKgL2xW/z/O19yi27q26jXCPv3g3uv9Gf2BYSxtJArHrQLAQikkwAOQDrtTq+VgMX462hvlbvuuFVWdbT6ZoIT4BsdBSEAgRwSwAHIIXyajgeBkuJi2bZlo9y2d6fvOwDMCTh4+FjmSGI8eoUWEIAABJYngAOwPB8+TRGB+vpaueP2vdLYUOer11f6BjLLARaXgAQBCEAg7gRwAOJuIfTLKoHSkhLZu2eHrF7lLz6COQGHnz8RynHDrHacxiAAgdQRwAFIncnp8EoEbG/A1s0bNODP2pVEF/2c5YBFsfAQAhCIGQH/259j1hHUgUDYBNatWSXFuj/g2PHTnquenwngiKBndIkpYNdD2THS0dExGZ+Y1LgQU3osdC5zNNR+b4qKCjN7SiorKqSyUnNFeWL6hqLpIIADkA4700ufBFbpKQE7Nnj02CnPNcyfDsAJ8IwutgWmZ2bkim74vNzbL4NDQ2LhoV1TiS4v1dfVSFNjvTTrfRIWuZIEgVwSwAHIJX3aTgSBDo0ZYAknIBHmikTJoeERjSDZowN/n++THhY+2spbLjxxRi+VatCgVB2Z8NWRKE2lEFiBAA7ACoD4GAJGACcgnb8HIzq9f+r0Ob1PYiBUAHZSpOfSlUxubKjP7DeprqoMtQ0qg8BKBHAAViLE5xB4gQBOQHp+FSzE8+mzXZm3/qijPJpz0T8wKKs72mTDhjUsDaTn1yznPeUUQM5NgAJJImBOwHa9AMhPmt8TEPWA4kc3yrxIYGRkVJ7cf1C6zndn7Tin/U506SVVT2m7w9o+CQLZIIADkA3KtJFXBHAC8sqcN3TGLnja/+xh3dU/ccPzbP1g7T6t7V/svpytJmknxQRwAFJsfLrunwBOgH92cS1pVzwfOXrS9ya/sPpl+wOOHj8lZzvPh1Ul9UBgUQI4AIti4SEEViaAE7Ayo6RI2OB/8nRnrNS1PQiWSRCIigAOQFRkqTcVBHACkm/m7p7LsRv856naLIAdPyRBIAoCOABRUKXOVBEIwwmY001gpOwTGB4elWN6Jj/O6fjJM5lTAnHWEd2SSYBjgMm0G1rHjIA5AZb8Bgs6cPCo7Nm1VcPHEh0uW6ad0aN+h44c973mX1hYKC9/xd1yzz33ykvueKls3rJN6hsaNPxvmQz090lf3xV59tn98qMf/kC+9fWvSmfnGd9dO/L8ycxNlaWlJb7roCAEbiZg956QghFwenWrrqyStpYfDxLBmgu39Np1/m69C1eL/Kntok4n+3ECjEBNdZXeRLhd7EZCUvQE7M3/wkXv0+sV+n/5vl94h/zWb/yWrF+33klR29j3+GPfkb/42J/It7/1iFOZm4WamxrUSdx28+O8+9mcMouW6JgYwxxBLSbGEsBiVHgGAZ8EgiwH2Pnvp585zDlwn+y9FLOpfz+D/92veYN87n//izz43//IefA3vWy24FU//Vr5uy9+Tb7w8COycdMWL+pmZC2OxJW+fs/lKACBpQjgACxFhucQ8EkgiBMwfw6cjV8+4TsW87rjv0AH8He///fk9z/ykMbvXyv11RWOLS0Ue/VrXiePPv6kvP4NP7fwwxWenDjZmbXgRCuowsd5QAAHIA+MSBfiRyCIE2DTxbbx6+DhYzI5ORW/ziVco4HBIbHsmsrKK+TBP/uM/OK73pMp0t5QJUHnnWtr6+Rzn39Y/sO7f1ynqy7mIF66fMVVHDkILEsAB2BZPHwIAf8EgjgB1qpN+f7wqeeks+uCcErAvx1uLmkhfl1TUVGx/OcPf1Je/lP3ZoqUlRRJTUWZa/Fl5eya6Q99+KNy/1vfuazczR92nrtw8yN+hoAvAjgAvrBRCAJuBII6AXYpjd1G96Q6AhamlnsE3LgvJTU1Na3r6O43+73zPR/Qwf+116prrq0M/PZ/rTL9xpyAP/7TT8ievbde/3jZ70fHxmVoaGRZGT6EgAsBHAAXSshAIAABcwJ2bt+c+WPvt5qx8YlMmNonnnw2s3ltVpcJSN4J2O5yVydq8/bd8pYH3nutEZv2r68sv/ZzWN+UlZXJXz70ebGvrqn7EncFuLJCbmkCOABLs+ETCIRGoK21OXOEq0g3kwVJExOTmcA13//X/RmHwK6SdR3QgrSbL2VtWcU1vfv9vyu2+W8+VZaV6FW9L/48/zyMrzt27pZfescvO1flpR/OlSKYOgLR/DanDiMdhsDKBJoa6+XWvTulpDh4/C1bGrAlgec0gND3n9ifCWhzXq+THR0dF6fAFCurm3cS5igNDQ879WvfXa+UO3/ip2+QDWvt/4ZKr/vh/f/pd6Ss3G2GwZYybCmABIEgBIL/JQrSOmUhkDICtbXVctutuzI7/Md1Wj+MND09kwmcMh88xc6cV+hGtcqKCikvL5OSkuJMhEGbfUhzpEGbPZmddVs6eeP9DywwTZXOAESZOlatltfe+3r5ypcfdmpmYGBIqir9H0d0agShvCaAA5DX5qVzcSRgf7Tv2LdHr3w9HcmRLjtGaDMBlkneCZRXVMrL7n5x4998DeWl0f+5/Nn73uzsAIyOjc2rxlcI+CLAEoAvbBSCQDAC9ia+a8cW2b51YyZKXLDaKB0mgT377pLim8Ix29p/VOv/1+tu0QJdU1gzSK7tIZd/BHAA8s+m9ChBBDraW+UlOhtQV1eTIK3zW9XN23Yt6GBJRJv/bm6oublFWlrd7uewJQ0SBIIQwAEIQo+yEAiBgC0J7LtlV+aoILe9hQA0YBUda9YtqCHo6Y0FFS7zYIveKuiS7DZDEgSCEIh+USuIdpSFQIoI2FHBpsYGOdPZpWf9L/m+pjZFyCLpamXVwtmYwsKgwX/dVa3QPQguyXVDo0tdyKSTAA5AOu1Or2NKoLi4SLZsWi/r1qySc+cvZhwBO/JHyh6Bubnc8i4O4Zho9mjRUpIJ4AAk2XronrcEbClg88Z1sn7tKrGbAS90X+JioCxZe2hgYbCgubnsRVfo63O77KcoS/sSsoSdZnJAAAcgB9BpEgKuBOxtcP261bJO86DeYGfBf+y8/8xMbt9SXfVPolzv5Z4Famcz9PK5c2cXtL/Yg2I9SUKCQBACOABB6FEWAlkikIlDX1cr9Zq3bt4g/QODmvVaW80jo5wHD9MMR557akF1044BhBYU9Pig9/IludTjdluhBXkiQSAIARyAIPQoC4EcELBIf7ZZ0LKl6ZkZnR0YlpGRUbFLg+x8uGV2ifszzrFDz8rU5KSUXnc5z4w6AJajjgXw6KPfdL7boUIjPZIgEIQADkAQepSFQAwI2N0CzU0NmXy9OhYv3jYQmiNgX23XuEUJTGuyc/MnT3eu2P3JyQn53ncfkXte93M3yI5ryOWaotIbnoX9wyNf/ZJzlVVVOADOsBBclAAOwKJYeAiB5BP4cUyBaOPXJ4mSXQZkRyxdjs898vDfLHAAxiampaY8Ogegq6tTvvaVf3RGastBJAgEIUAgoCD0KAsBCCSGQEFBgdTWLDzjv1gH9j/xz3Lg6Sdu+GhoPNrIe3/+0Y/o5s6ZG9pc6gdz7rgIaCk6PHclgAPgSgo5CEAg8QSam3+8b2Kljthswcc/9Hty9bolk/HJ6cw+gJXK+vn84IFn5dOf+rhz0ZamRmdZBCGwFAEcgKXI8BwCEMg7AjZw2kyASzp2+Dn57Cf++JqoRQIYGA3nCudrleo3kxMT8uu/9svOb/9Wtq2t+foq+B4CvgjgAPjCRiEIQCCJBGzq3DZMuqa/+uSfyA8e++Y18ctDYxJmSCCbaXjvrz4gzzz95LU2VvrGpv5ra6pXEuNzCKxIAAdgRUQIQAAC+URg9ap25+7YEsB//c3/qE7AtzJlpjQA03BIewHsZMZvf+B98sW//1tnfUxwnUaHJEEgDAI4AGFQpA4IQCAxBOr16uWGevcd9BYT4L+8/wH58hc+kzmj390/EngWYHR0RN7+1jfJQ5/8mCduFRXl0trS5KkMwhBYigAOwFJkeA4BCOQtgU16z4KXNDMzLX/64G/L777v7XK2s1P6R8a9FL9B9pvf+Kq84q498vWvffmG5y4/2EVRrnsYXOpDJt0EcADSbX96D4FUEqiprpLVq9o8992WAt72hpfJB3/zvXL69Enn8rbW/+1vPSJvvu9euf/fvUFc4/1f34DtXWhqrL/+Ed9DIBABt+2wgZrI+8JOe4KqK6ukraUldjDWrvP+RzB2nUAhCPggYGvwP9p/QCxCoN9027475PU/c5/sueU22bFzt9TV1UuRXtJj5/nPdZ6VUyePy+OPfUce/fY3fA3683rZ5sU79u2VHwd3mn+an18PHTmeufDKsXeMYY6gFhMjEuBiVHgGAQjkPQEbqHfv3CpPP3vYd4hk273vZQe/H6g25b9r+5ZUDP5++FDGPwGWAPyzoyQEIJBwArYUsG3rxlj3Yuvm9VLvYdNirDuDcrEigAMQK3OgDAQgkG0C7a3NsnmTt02B2dJxw7rVsqqDZbps8U5bOywBpM3i9BcCEFhAYO3qjsyzk6c6F3yWqwebNqzlzH+u4KekXRyAlBiabkIAAssTMCegtKRUjh4/5XtPwPItuH1aWFgo27ZskPa2+G0adusBUkkhgAOQFEuhJwQgEDmBttYmqaqqENuJPj4eftz/lTpggX5279gi1bo3gQSBqAmwByBqwtQPAQgkikB1VWXmyJ3NCGQr6I61Y+3dsW8Pg3+ifluSrSwzAMm2H9pDAAIRECgqKsxsDLRb906f6ZIrff0RtPLjKi24j633V6njQYJANgngAGSTNm1BAAKJImCzAXt3b5PhkVE5f75bLvX2hbI/wByMZr2aeO2aDrE2SBDIBQEcgFxQp00IQCBRBCxewI7tm2WLnsnv7RuQXnUEBoeGZXp6xrkfpSUlmfP8jfrG36JhfS0QEQkCuSSAA5BL+rQNAQgkikBxcbFY3ADLlsbGxmVU8/jEhExNTWsI4FmxEMMlKmcDvIXutY19VZUVma+J6izK5j0BHIC8NzEdhAAEoiJQqQO7ZRIEkkiAUwBJtBo6QwACEIAABAISwAEICJDiEIAABCAAgSQSwAFIotXQGQIQgAAEIBCQAA5AQIAUhwAEIAABCCSRAA5AEq2GzhCAAAQgAIGABHAAAgKkOAQgAAEIQCCJBHAAkmg1dIYABCAAAQgEJIADEBAgxSEAAQhAAAJJJIADkESroTMEIAABCEAgIAEcgIAAKQ4BCEAAAhBIIgEcgCRaDZ0hAAEIQAACAQngAAQESHEIQAACEIBAEgngACTRaugMAQhAAAIQCEgAByAgQIpDAAIQgAAEkkgAByCJVkNnCEAAAhCAQEACOAABAVIcAhCAAAQgkEQCOABJtBo6QwACEIAABAISwAEICJDiEIAABCAAgSQSwAFIotXQGQIQgAAEIBCQAA5AQIAUhwAEIAABCCSRAA5AEq2GzhCAAAQgAIGABHAAAgKkOAQgAAEIQCCJBHAAkmg1dIYABCAAAQgEJIADEBAgxSEAAQhAAAJJJIADkESroTMEIAABCEAgIAEcgIAAKQ4BCEAAAhBIIgEcgCRaDZ0hAAEIQAACAQngAAQESHEIQAACEIBAEgngACTRaugMAQhAAAIQCEgAByAgQIpDAAIQgAAEkkgAByCJVkNnCEAAAhCAQEACOAABAVIcAhCAAAQgkEQCOABJtBo6QwACEIAABAISwAEICJDiEIAABCAAgSQSwAFIotXQGQIQgAAEIBCQAA5AQIAUhwAEIAABCCSRAA5AEq2GzhCAAAQgAIGABHAAAgKkOAQgAAEIQCCJBHAAkmg1dIYABCAAAQgEJIADEBAgxSEAAQhAAAJJJIADkESroTMEIAABCEAgIAEcgIAAKQ4BCEAAAhBIIgEcgCRaDZ0hAAEIQAACAQngAAQESHEIQAACEIBAEgngACTRaugMAQhAAAIQCEgAByAgQIpDAAIQgAAEkkgAByCJVkNnCEAAAhCAQEACOAABAVIcAhCAAAQgkEQCOABJtBo6QwACEIAABAISwAEICJDiEIAABCAAgSQSwAFIotXQGQIQgAAEIBCQAA5AQIAUhwAEIAABCCSRQHESlUZnCEDAncDo6LgMDA7J6NiYjI1NyOTkpEzPzMrs7GymkqKiIikpLpKy8jKprCiXqspKqa+rlaqqCvdGkIQABBJHAAcgcSZDYQisTGBwaFh6enql90q/TE1PL1tgZmZGLI9PTMrAwNA12dKSEmlubpC21mapq6259pxvIACB/CCAA5AfdqQXEJCrV69Kz6Ur0tl1Qd/0xwMTMcfhwsVLmVxVWSHr1q6S1pYmKSgoCFw3FUAAArkngAOQexugAQQCE7A3/ROnzsqEvsVHkUbVoThy9KScOXteNm9aJ81NDVE0Q50QgEAWCeAAZBE2TUEgbAKTU1Ny7PhpudI3EHbVi9Y3PjEhBw8fk6bGBtm+daOUlpYsKsdDCEAg/gQ4BRB/G6EhBBYl0K/r9U89fTBrg//1Slzp65cf7T8gff2D1z/mewhAIEEEcAASZCxUhcA8ga4L3fLshPPdXAAAE5dJREFUgSMyNbX8Br95+Si+TusegecOPi/nL/REUT11QgACERPAAYgYMNVDIGwCp890yYmTZ8Ou1nd9x0+ekdNnu3yXpyAEIJAbAjgAueFOqxDwReBM53k5e+68r7JRFjobU72i7DN1QyDpBHAAkm5B9E8NgQvdl3QXfnzftG1m4mL35dTYg45CIOkEOAWQdAuifyoIDA2PyIkTZ0Lpq+3cr6yokILCAinWKIC2j8COD9qJgqDJlgOqqyulproqaFWUhwAEIiaAAxAxYKqHQFACMxq29/DzJ2ROA/34SYWFhXpsr15amhuloaFOw/4u/t9+enpG+gcGM9EDL/f2ZQILeW1vbm5ODh85IXfcvkcsxDAJAhCIL4HF/xLEV180g0DqCJw+e85XgB8b+DvaWzWCX4eUlZauyK2kpDgT6c+i/dlsQFdXt9hpA4sw6CVZrADbFLhl03ovxZCFAASyTAAHIMvAaQ4CXggMj4xmQvF6KWOy1ToFv2v7ZqnUEL5+kjkMFvGvva1ZjmqgIVuC8JLsaGB7W4tUV1V6KYYsBCCQRQJsAswibJqCgFcCp8+c8/wGbgPv7bft9j34X69jlQ7gt92yUy8Earr+8Yrf26yB6U6CAATiSwAHIL62QbOUE7C3f6+R9lavapMd2zZJYYgX9thSws7tW8Tq9pIsPPGI9oEEAQjEkwAOQDztglYQkHNdFz1RsAt6tm7e4KmMF+EtWrfXS4DOne/20gSyEIBAFgngAGQRNk1BwJWA7fy3G/5cU0VFuezQNf8ok10CvFPbKC8vc26mV08TzM7OOssjCAEIZI8ADkD2WNMSBJwJ2DE8O1LnmuzN3870R53saJ+XWYZZ7cPlXndHJmr9qR8CEHiRAA7Aiyz4DgKxIdDX7369r53xb9Tz/dlKXtvz0pds9YF2IAABERwAfgsgEEMCA4NDzlqtWd3hLBuW4JrV7c5VDei1xSQIQCB+BHAA4mcTNEo5gbGxcbGofC7J1uPr62tdREOVaWyol/Iyt70AU3pt8Nj4RKjtUxkEIBCcAA5AcIbUAIFQCXgZLJsaG8Q25+UieVl2MKeGBAEIxIsADkC87IE2ENC3ZffBsramOmfEvMw8jDMDkDM70TAEliKAA7AUGZ5DIEcE7HY+12Q37+UqVerRQ9cUxk2Drm0hBwEIuBHAAXDjhBQEskbAy7l5u8AnV6nMQzyA2Vn3I4256g/tQiBtBHAA0mZx+ht7Al4Gy6Wu9s1GJy1EsGvy4tS41okcBCAQjID7/+Bg7VAaAhBwJOBlYJ3zeFWvowpOYlfn3K8JLiriT40TVIQgkEUC/K/MImyagoALgeJi94h+M47HBV3a9SozM+N2VNHqLS7O3VKF134hD4G0EMABSIul6WdiCLier7cOeTkyGDaAUQ9H+8rKSsNunvogAIGABHAAAgKkOATCJmAX+7imoeERV9HQ5bxc9evlxEDoilIhBCCwKAEcgEWx8BACuSPg5Whfv4c7A8LukZfbCqurqsJunvogAIGABHAAAgKkOATCJlBWWup85e7A4LBMTE6GrcKK9U1MTMrwyOiKciZgMxqlpSVOsghBAALZI4ADkD3WtAQBZwIN9e63+50/3+Ncb1iC585fdK6qIQd3FTgrhyAEUkwAByDFxqfr8SXQ0tzgrNyF7h6ZnJxylg8qOKFtXey+7FxNc1OjsyyCEIBA9gjgAGSPNS1BwJmAzQC4Tptb4KDjJ8841x1U8PiJ0zI35xbZz/rADEBQ4pSHQDQEcACi4UqtEAhEoKCgQFa1tzrXYRvyOs9dcJb3K3j+Qo9c6RtwLm59sL6QIACB+BHAAYifTdAIAhkCqzrapMhDuN1TZ86Jl535XjFb3SdOnXUuZtH/rA8kCEAgngRwAOJpF7SCQGYJYPUqbwPo4edPSM+l3tDp2eBvdV/1EHp4dUe78zJG6ApTIQQgsCIBHIAVESEAgdwRWLd2lZSWuB+hs7X5I0dPyqnT5zwN1kv10KL9nz7bJQcPH3Ne97e6bO3fdCdBAALxJYADEF/boBkEMjH0t2xe75lEZ9cFefLpg57W629uZGBwSPZrHWc7z9/80Yo/b9m0XnV3v9NgxQoRgAAEQifADR2hI6VCCIRLoLWlSQfyfp3av+Kp4tHRMTlw6KjU19WKLSU0NdbLSjcN2gzC5d4+udhzWQYGhjy1Ny/c1tospjMJAhCINwEcgHjbB+0iIjA1NZ2JZOd6nC0iNZyrtWOBl3v7PU3Dz1dub/KWbfCvq62W6uoqsQuH7A3dpvinp6dlanJa7F4Bi+4XhIm1Ycf+zIkghUugpKQ4Y7viImZWwiWb3tpwANJr+1T2fHJqSo6fOBPpbvm4grWBvV/f6i1HlayN54+diqr61NdbqEcq2/Vo5eZN6zydEEk9OAAsSgAHYFEsPMxHAjb473/mUFaj5uUjR/qUOwJzegrjwsUeGdOrmG/du4MYC7kzRV60zCbAvDAjnXAhYG/+2QyZ66ITMhDwQ8CWdC52X/JTlDIQuEYAB+AaCr7JZwL29h9lkJx8Zkff4kmguyf8eA/x7ClaRUUAByAqstQbKwK2I54EgXwiMDrG73Q+2TMXfcEBCE7d6Rq2q5n91sEbC70GD5HdQm+bCiEAgQAE8vOOBQ/RJicDwKOoEsABCP5rMOxSRZCjVS71+5VJy/hfXVXlFxHlIBBLAlVVFbHUK6hSMzOzrlU4/e11rSyNcjgAwa3u9Es4N2cnruOX0uIAWGja5qaG+BkAjSDgk0B7a4vPkvEuNjvr7ABEd5413ohC0w4HIDhKp1/Cuatu96cHV8dbDVdjqpe3XrhJb92yQcrKSt2EkYJAjAlYsKWO9tQ7AE4vXzE2Y85VwwEIbgKnX8KZmZngLUVQw4y7tx1B69mtsqy0VG6/bTczAdnFTmshErBIixbWee/u7XkZA8DmSScmnbZVGVWnv70h4s+7qggEFNykXS5V2MYWcwKKi+OFfHZGZybKXHqQHzLmBOzZtU0sFPDI6KjMzsZzZiY/aNOLMAmU6K2QNdWVUpTHoYAnJya9hKLuDJNvGuuK12iUTAscdVV7emY6dg5AXDcnujL1K2d7AhpL6/0WpxwEIBABgbHxcS+1Ov/t9VJpmmRZAghu7eddq7C3zrilqel4Lk3EjRP6QAAC0RMY1RDHHhIOgAdYi4niACxGxduzY67i45MTrqJZk5uewgHIGmwaggAEliUwOOhpWR8HYFmaK3+IA7Ayo5Uk7JfQaSF5fCKGDgAzACvZl88hAIEsELB9UnbHgWOys4LHHWURW4IADsASYDw8HlHZZ1zkbb3dYtLHKdl/ummcgDiZBF0gkEoCwyOjulHaOQbAfoU0mkpQIXYaByAcmI+6VhPH+N3ckOdqPeQgAIGoCFzpG/BStfPfXC+Vpk0WByAcizv/Mg6P2oRBvNLkZPw2J8aLENpAAAJRE+i55Ol2Q+e/uVHrneT6cQDCsd4/azVOo6jFApiI2WbAiQldlkhLTOBw7E0tEIBAiARs7X9CYwA4JltH/RdHWcSWIYADsAwcDx/Za/3jrvJDI/GaBZjTYDgTzAK4mg85CEAgZALdPZ7e/v9Jm2f9PwQb4ACEAPGFKj7vWpVFoItbaODx8fidUHDliRwEIJBcArYH6ZK36f+/Tm5v46U5DkB49vj/tCqnV/vMcZdh5+Mu4Wm4TE3jY87Tb8vUwkcQgAAEvBHo7Logc+5LkPbm/w/eWkB6KQI4AEuR8f7cBv8vuRYbGh7WOPTOR15cq/UtZzHxx8dxAnwDpCAEIOCZgEVHvdh92Uu5h1XY6UXLS6VplcUBCNfyn3WtzmYBrgz0u4pnRW5k2FMYzqzoRCMQgED+Ejh1utPL5T8GwvlvbP5SC69nOADhsbSavqX5Kdcqh3UzYJyiA9ou3Jnp+MxKuHJEDgIQSB6BwaFh6fa29m8B1zj+F6KpcQBChPlCVR/yUmVvf59c1X9xSUPDbK6Niy3QAwL5SsBmQI+dOO21e3+gBeLzx9Kr9jGUxwEI3yhf1CoPuVY7paGB+wY8RcByrdqX3OjIuMzEaG+Cr05QCAIQiDWBU2fOyeiopyXHI9qhf4x1pxKoHA5A+Eab0yr/Hy/VDgwOisd7sL1U71l2eJBZAM/QKAABCDgRsJC/57ouOsleJ/Sgfm9/W0khEsABCBHmdVVZTIAnr/t5xW8v9fbGJjbA6OiEcE3wiiZDAAIQ8EhgYnJSnj960mMpeUIL/C+vhZBfmQAOwMqM/EjYTrpf0ey8o252blYuXurxuiPWj24rlsnEKRjwdC/3inUiAAEIpJuA3Tr63MGjMq3h0D0ke+t/n2be/j1AcxUtchVEzjMBm+Pq0HyHa8lZvS7Y7gmorqqWgoIC12KRyNm1nCUlxZkcSQNUCgEIpIaAXYV+4NBRGdErfz2mj6n8Qx7LIO5IILejjKOSCRZrUN2f19zqpQ+VFRXS3tKacyegsKhA2juapaiQiSIv9kMWAhB4kYC92Bw6fEz6+gdffOj2XbeK7dQcn13SbnonRooZgGhNZQH2D2p+i2ZnZ8umyMYmJqSqslIKC3I3+Fp0TosQWFlZHi0laocABPKSgN15ckCn/e22P4/Jpvx/XrPziSqP9SOuBHAAov81OKFNVGh+pZemLEywnQyoqlAnIIdv4LZuV1xUJKWlJV7URxYCEEg5Advw98yB5/1M+xu5P9T8qZQjjLz7zm+lkWuS3w0Ua/e+q9mTE2BIbPq9tblFbFkgV8n2I7S2NeAE5MoAtAuBhBGwo37PHzsp9gLhIz2uZV6t2VdhH+2ltggOQPZMv0ab+qFm2xjoOdXX1kljQ72uI+TGZMXFxdLW1ii2L4AEAQhAYDECdoLIgvz4OOc/X90F/eZOzfaVFDEB/ppHDPim6vfqz49pts2BnlNJSYm0NDZJRXlu1uRLy4qlpVWdgByfUPAMjgIQgEDkBAYHh+XYyTMa4W/Mb1u2S/BVmi3mPykLBHAAsgD5piZ+Sn/+umbfo3hNdbU01TdIka7NZzvZhsDGptqcn1DIdr9pDwIQWJyAXelrt/p5vNjn5spsw/S/0WzT/6QsEcAByBLom5p5k/78Bc2+R3Bbl6+trpH6ulrdpGdbDLKXKqvKpamxVs818OuTPeq0BIF4EZicnJJODel7sftS0ABmFjDNdvwT6z/LJuYveJaBX9ecOQEWMtj3TIDVZY5AdVWVOgPVUl4WqCqrzjnhBDijQhACeUVgQKf6u3suyyW9ynfOzgoHS/bmf79mBv9gHH2VxgHwhS20QrYc8CXNdWHUWKIb9SyKYFVlhZSVloVR5bJ1VFSUSVNzHcsBy1LiQwgkm4Bt7BvWCH62s79HB/2JicmwOmQBfu7TzLR/WEQ91oMD4BFYBOK3ap2PaPZ1OmApfSx2gG0WtFmBUt08aNl28oedyjQ+QFNrPdECwwZLfRDIAQF7n5/UAX5sfEJGx8bENvZZEB8LDR5ysl3+r9N8IOR6qc4DARwAD7AiFLUjgn+r+ZURtpF5U7f9AoWFBZngQhZlMIw7Bwq0PgsUZPWSJMOhtLRU90nUZ/ZoBGEyMDAkV/oHZGpqStdZA0+3BlGFsnlIwN7uLeiYDfAz+tXW9S1uf8TpMa3foqNy1C9i0CtVz1/slQhl73N7Pf9vmn9bM3bJHvdIWzInYNeOLZ5PbNgf48NHTmj8dJslJUEgLwiYZ/GHmn9fc+hTClonySMB37vQPbaD+MoE7D/HdzTb3dev1VytmZRwAuM6lTo2Ni6tLU2eenLoyHEGf0/EEI45gW7Vz3b6P6SZqayYGKswJnqgxosELEaA3YD155ojn4t7sVm+i4pA75V+GRoaca7e1l1twxUJAnlAwN70P6bZ/qZ9Mw/6k1ddwAGIpzn7Va33aH6p5h/FU0W08kLgSp+Z1C0x+LtxQir2BGw28y7N79WMRxtDc4W/LTyGnUywSk+q7i/TbBtmfkfzLs2kBBLQY1RndcOl3QWxYlJZc/zWrSiIAATiScCu8LW1/v+lmVnMeNoIrRJGwGZr3qx5v2ZbQyMni8FH1WauyZZ/sC8MkvY78JT+3lqAM2aWXf+n51gOQ+XYAB6aN0/6i5pfotk2Cf615lHNpGQQ+J4HNb3IeqgWUQiETsA2t/yV5tdotr9ND2vmrV8hJCFx3CwJVlpaRzspYLMCv6T5bs2lmknxI3BSVbLlmylH1SyM4/OaNzjKIwaBbBKw3+N/0mwvITbg8yKiEJKYcACSaLXFda7SxxZI6J4X8j79yjFPhZDj1Kvt36v5aY962NvUNzQ3eSyHOATCJmA7+W3p8dEXss1Q+b7zV8uSYkIAByAmhohADXMItmne/kLeoV/XaLZZg1rNdZprNDNroBBCTvaGdE7z1zT/D80XNPtJq7WQBYZ6vWazHbZSCKRQCdjv6rDmQc1DL3zfpV9tBuqo5mMvfGXAVxAkCEAAAhCAAAQgAAEIQAACEIAABCAAAQhAAAIQgAAEIAABCEAAAhCAAAQgAAEIQAACEIAABCAAAQhAAAIQgAAEIAABCEAAAhCAAAQgAAEIQAACEIAABCAAAQhAAAIQgAAEIAABCEAAAhCAAAQgAAEIQAACEIAABCAAAQhAAAIQgAAEIAABCEAAAhCAAAQgAAEIQAACEIAABCAAAQhAAAIQgAAEIAABCEAAAhCAAATyn8D/Dx/q6FBAaR7mAAAAAElFTkSuQmCC;" vertex="1" parent="1">
          <mxGeometry x="404" y="104" width="42" height="42" as="geometry" />
        </mxCell>
        <mxCell id="Wn_DIbC_k09VwicD28QW-36" value="" style="shape=image;verticalLabelPosition=bottom;labelBackgroundColor=default;verticalAlign=top;aspect=fixed;imageAspect=0;image=data:image/png,iVBORw0KGgoAAAANSUhEUgAAAgAAAAIACAYAAAD0eNT6AAAAAXNSR0IArs4c6QAAAERlWElmTU0AKgAAAAgAAYdpAAQAAAABAAAAGgAAAAAAA6ABAAMAAAABAAEAAKACAAQAAAABAAACAKADAAQAAAABAAACAAAAAAAL+LWFAAA8eElEQVR4Ae3dCZwkZZ3m8Wa55UZakVMaBhAE8WgZEQHxFkUQURFXYXBwPMZ1dFFXURiHXURFnRlZ1wNxPHAAAXG8OJwCuQYBL8ALgeYUBVqgwYbm2ufpqqzOysqsiMyMiPeI3/v5/KsqMyPj/b/fNzLjrXgjI+fNoyCAAAIIIIAAAggggAACCCCAAAIIIIAAAggggAACCCCAAAIIIIAAAggggAACCCCAAAIIIIAAAggggAACCCCAAAIIIIAAAggggAACCCCAAAIIIIAAAggggAACCCCAAAIIIIAAAggggAACCCCAAAIIIIAAAggggAACCCCAAAIIIIAAAggggAACCCCAAAIIIIAAAggggAACCCCAAAIIIIAAAggggAACCCCAAAIIIIAAAggggAACCCCAAAIIIIAAAggggAACCCCAAAIIIIAAAggggAACCCCAAAIIIIAAAggggAACCCCAAAIIIIAAAggggAACCCCAAAIIIIAAAggggAACCCCAAAIIIIAAAggggAACCCCAAAIIIIAAAggggAACCCCAAAIIIIAAAggggAACCCCAAAIIIIAAAggggAACCCBQLLBS8SIsgQACCCCQuMAqyn8Pxb6KHRWbTcWj+n2r4hbF1YqzFBcpHlFQEEAAAQQQQCBRgacr7xMVixWPlYw7tdznFTsrKAgggAACCCCQiID/2z9QcaGi7E5/0HITWserFSsrKAgggAACCCAQocBGyumDipsVg3boo95/o9b5PsWGCgoCCCCAAAIIRCDgw/xfVixVjLqDL/u8v6iOLyqYHhACBQEEEEAAgaYFqjzMX3bn37vchBrN9EDTPU99CCCAAAKtFKjzMH/vDr7sbaYHWrkp0mgEEEAAgSYEmjzMX3bH37sc0wNNbAnUgQACCCCQvUAMh/l7d/Jlb0+od5geyH4TpYEIIIAAAlUKxHiYv+yOv3c5pgeq3DJYFwIIIIBAlgIpHObv3cGXvc30QJabLI1CAAEEEBhVIOXD/GV3/r3LTQiL6YFRtxiehwACCCCQtEBOh/l7d/BlbzM9kPQmTPIIIIAAAsMI5HyYv+yOv3c5pgeG2YJYFgEEEEAgGYE2Hubv3cmXvT2hXmV6IJlNm0QRQAABBPoJcJh/9EsTMz3Qb4viPgQQQACBqAU4zD/6jr/3SAHTA1Fv6iSHAAIIIMBh/up2+r2DgM5tpgd4nSGAAAIIRCPAYf76d/ydAUDnN9MD0Wz+JIIAAgi0T4DD/M3v+DsDgM5vpgfa97qjxQgggEAQAQ7zh9/pd3b+vb8ntEXw6YEgLwsqRQABBPIV4DB/vDv+3oEA0wP5vg5pGQIIINCYAIf509nx9w4EmB5o7GVCRQgggEAeAhzmT3en3zsI6Nye0KbJ9EAer09agQACCFQuwGH+/Hb8nQFA5zfTA5W/bFghAgggkK4Ah/nz3/F3BgCd30wPpPt6JXMEEEBgLAEO87dvp9/Z+ff+ntCWxPTAWC8nnowAAgjEL8Bhfnb8vQOAzm2mB+J//ZIhAgggMLQAh/nZ8Xd29EW/mR4Y+uXFExBAAIG4BDjMz06/aGdf9PiENmmmB+J6XZMNAgggMFCAw/zs+It27MM+zvTAwJcbDyCAAALhBTjMz45/2B37sMszPRD+dU4GCCCAwHIBDvOz0x92J17V8hPaApke4I0IAQQQaFiAw/zs+KvakY+7HqYHGn7xUx0CCLRTgMP87PjH3WHX9XymB9r5nkSrEUCgRgEO87PTr2unXdd6J/R6SGJ6YKUaX7isGgEEEBhVwIf5D1e8TbHZqCvheQgEFLhJdZ+g+JJiccA8qBoBBBBIQoDD/PzHX9d/5qHWy/RAEm89JIkAAiEEOMzPTj/Uzrnpeif0AotmeoApgBBvd9SJAAIW4DA/20FbBZgeaGvP024EWi7AYX7+42/6P+9Y62N6oOVvhjQfgTYIcJifnX6sO+FY8prQG0Gj0wNMAbThrZc2IhBOgMP84eypOU2BxqYHGACkuYGQNQKxC/gw/98rDlKsEXuy5IdAhAJLldM3FP+q+GUd+TEAqEOVdSLQTgEf5t9f8S7F7u0koNUI1CJwvtbqgcBZikcUlRQGAJUwshIEWi3AYf5Wdz+Nb1Cg0ukBBgAN9hxVIZCZAIf5M+tQmpOMQCXTAwwAkulvEkUgCgEO80fRDSSBwLTA+fprpOkBBgDThvyBAAJzCHCYfw4cHkIgAoGhpwcYAETQa6SAQMQC6yu3YxSHKTibP+KOIjUEpgQ8PfAFxVGKe6bu6/uLAUBfFu5EAAEJvFFxvOIJaCCAQHICtyvj9ypOHpQ5A4BBMtyPQHsFFqjpJyr2ai8BLUcgGwFfYfAtiut7W8QAoFeE2wi0W2ATNf8SxZbtZqD1CGQlcKNas5vitu5W/bfuG/yNAAKtFlhXrf++gp1/qzcDGp+hgF/Tfm37NT5dGABMU/AHAq0WWE2tP0PxtFYr0HgE8hXwa9uvcb/Wl5eVO3/wGwEEWi1wtFp/SKsFaDwC+Qv4/B5P/fu8gOV/+DcFAQTaK7COmn6Twh/5oyCAQN4Cd6t5WyiWMAWQd0fTOgTKCByuhdj5l5FiGQTSF/Br3a95jgCk35e0AIGxBDwf6I8HbTrWWngyAgikJHCrkl3AEYCUuoxcEaheYB+tkp1/9a6sEYGYBfya34cBQMxdRG4I1C+wQ/1VUAMCCEQosAMDgAh7hZQQaFBg2wbroioEEIhHYFsGAPF0BpkgEEKAAUAIdepEILzAtlwKOHwnkAECIQXuUuUbhkyAuhFAIIjAYgYAQdypFIFoBB6LJhMSQQCBRgWYAmiUm8oQQAABBBCIQ4ABQBz9QBYIIIAAAgg0KsAAoFFuKkMAAQQQQCAOAQYAcfQDWSCAAAIIINCoAAOARrmpDAEEEEAAgTgEGADE0Q9kgQACCCCAQKMCDAAa5aYyBBBAAAEE4hBgABBHP5AFAggggAACjQowAGiUm8oQQAABBBCIQ4ABQBz9QBYIIIAAAgg0KsAAoFFuKkMAAQQQQCAOAQYAcfQDWSCAAAIIINCoAAOARrmpDAEEEEAAgTgEGADE0Q9kgQACCCCAQKMCDAAa5aYyBBBAAAEE4hBgABBHP5AFAggggAACjQowAGiUm8oQQAABBBCIQ4ABQBz9QBYIIIAAAgg0KsAAoFFuKkMAAQQQQCAOAQYAcfQDWSCAAAIIINCoAAOARrmpDAEEEEAAgTgEGADE0Q9kgQACCCCAQKMCDAAa5aYyBBBAAAEE4hBgABBHP5AFAggggAACjQowAGiUm8oQQAABBBCIQ4ABQBz9QBYIIIAAAgg0KsAAoFFuKkMAAQQQQCAOAQYAcfQDWSCAAAIIINCoAAOARrmpDAEEEEAAgTgEGADE0Q9kgQACCCCAQKMCDAAa5aYyBBBAAAEE4hBYpYE01lYdeysWKDbpE+voPgoCbRVYqa0Np90IDCHwsJadUFymuFzxO4Xve1SxhmJHxU6K5yi8v+GfWyEUlbrefJ6kivedihfo9+pFifA4Ai0VqOs1WJbzsbILshwCAQRuU51fmIo/lKx/Cy13mOJwxcYln9PKxap88/Eo7G2K1ysWKqpct1ZHQSBLgdCvEwYAWW5WyTfK/9l/RnGkYumIrVlXzztO8VZF6NfZiE2o92lVoPhQy39X/JNi83rTZe0IZCdQxWtwHBQGAOPo8dw6BG7QSt+ouKSile+u9Zyq8JFpSpfAuG8+L9W6PMLauWud/IkAAuUFxn0Nlq+p/5IMAPq7cG8YgUWqdg/FzRVXv43W9yOFpwcoUwKjvvlspuefpHghkgggMJbAqK/BsSrtejIDgC4M/gwq4J3+noobasrCO//zFVvVtP7kVjvKm4/PsjxDwckVyXU3CUcoMMprsMpmMACoUpN1jSpwn57ofcvVo66g5PN21XIXK1YuuXzWiw37UYk3S2NCwc4/682CxiGAAAKNChyq2ure+btB/hjhJ/wHpfyZkR4tea7/vaAhgEClAhwBqJSTlSUocKxy/mCDea+munwdgS0brDPKqsocAfDO/3QFO/8ou5CkEEAAgWQFfqjM/VG/JssyVfa5JiuMta4y/318Usmz84+1B8krdYEyr8E628g5AHXqsu65BK7Tg89S3D3XQjU9tpHWe4ui1RepKzoC4Dl/dv41bYGsFgEEEGipwP1q936KEDt/k9+pONt/tLnMNQDwGZmfbzMObUcAAQQQqEXgEK21iZP+5kr+0rkebMNjgwYA/py/P+rX6sMjbdgAaCMCCCDQsIBP+vtWw3X2q86fCGh1GTT/eK5UuMhPqzcNGt+QwKDXYEPVz+McgKakqccCPulvH4Wv9R+6+OPsfwidRMj6+x0BeLESYucfsleoGwEEEMhPwCf9vUERw87fug/7R5tL7wDA/418rM0gtB0BBBBAoHKBzkl/f658zaOvMJaByOgtGPOZvQOAg7S+p4+5Tp6OAAIIIIBAt8AhuhH6pL/ufPy3v8K+1aV7AOCrIx3Tag0ajwACCCBQtYCPKsdw0l9vu3bsvaNtt7sHAIep8Vu1DYD2IoAAAgjUJuCT/j5U29rHW/FO4z09/Wd3DwB8cgYFAQQQQACBKgRiO+mvt02+1k2rS+cjSPOlcLuie0DQahgaj0BDAp3XYEPVzaqGjwHOIuGOCgR80t9fK2Kb9+807fH641ZFq69109nh7yuIzt8dIH4jgAACCCAwisAhelKsO3+3502KVu/8jdDZ6fuazBQEEEAAAQTGFYj1pL9Ou3z2/zs7N9r824cf11L4ixGMQkEAgWYFmAJo1pva6hWI6Up/g1rqAcr7Bz3Ypvt9BGBvBTv/NvU6bUUAAQSqF4j9pD+32Ne54Rtup/reA4Ctp/7mFwIIIIAAAqMIxHilv952rKs7Tlas0vtAW297ALBJWxtPuxFAAAEEKhE4VGuJ+aQ/T7V9TbF9Ja3NZCUMADLpSJqBAAIIBBLwnPppgeouW+1HtKA/7UbpEmAA0IXBnwgggAACQwmcraVjvdJfpyHe8R/VucHvFQIMAFZY8BcCCCCAQHkBn/TnL5CL+Vv1fMjfh/5Df9pGKcRXGADE1ydkhAACCMQukMpJf2cK0if/UfoI+GzIdfrcz10IINCMwMqq5pFmqupbi/978z8ClLkF3EeXKL6r+KnidsUfFfbzidQOf7nMKxTPVeR+pjkn/amTEy/Lj9z4WuAEBmwDYbaBNQO/iSzl9T/n+99i+fiiMRsO0U8baFl/1twXWMvxdXXsEBahFj0qU/sqt6elnhfxCikIIBBGwDuLu8NUvbzWe/STQ6SzO+Bh3fVxxScUo/aPXY9QfECRyxEBn/T3ckXM8/77Kr9vK5j3F8Ic5V4GAHPo8BACDQg8UXX8qYF6BlVxhx7YaNCDLb3/LrX7NYrzK2r/87WeUxWpO/ukv4WKPytiLT7p7zIFg9riHrqTub9iJJZAoE6B0N9ItqzOxiW47t8o52crzq8w9wmtyztOrzvV4pP+9lfEvPP3Tp+T/spvYcsYAJTHYkkE6hBYrY6VDrFOBgArsDxn/1LF9SvuquyvRVqTD5376EKK5VAlfVXEiftoNlf6G66DGAAM58XSCFQuwBGAyklHWqHn/F+ruHGkZ5d70g1a7ADFQ+UWj2ap45QJV/qLpjsqS4QBQGWUrAiB0QQYAIzmVvWzPqYV+lB93eUCVRD7lfO6DXzS3we774jwb5/0d1SEecWeEgOA2HuI/LIXYAogfBf7sLzP9m+qHK+K/qupysaohyv9jYGXwFMZACTQSaSYtwBHAML377FK4d4G0/BH6Dyn/kCDdQ5bFSf9DSuW3vIMANLrMzLOTIAjAGE71HP/JwZIwZ8I+HCAestW6QEKJ/2V1UpzOQYAafYbWWckwBGAsJ3pOflRL/Qzbuaf0gpinArgpL9xezaN5zMASKOfyDJjAY4AhO3c7wSs3lMBhyhimgrgpL+AG0TDVTMAaBic6hDoFeAIQK9Is7d/0Wx1s2r7re6JZSrA1z84SOGBSaxleyXG1/tW0zsMAKpxZC0IjCzAEYCR6Sp54m2VrGW8lXgq4NLxVjH2s33S334KrvQ3NmUyK2AAkExXkWiuAhwBCNuzMQwAYvhUwN+oGzjpL+y22HTtDACaFqc+BHoEQh8BuK8nn7bdjOVy6J4KODIQvk/685cVxVw+ouR8wR9KdQL3xbLxV9ck1oRAWgJrB07X179vc/G3McZSPq1Emp4K4KS/WHq/+TzuYgDQPDo1ItAtEPorYts+ANi4uzMC/+2pgEMUSxvK43rVw0l/DWFHWA1fBxxhp5BSuwQYAITt713CVj+r9t/pniY+FcBJf7PoW3cHA4DWdTkNjk2AAUDYHvFX9MZWPBVwSc1JcdJfzcAJrJ4BQAKdRIp5CzAACNu/z1f1a4ZNYVbtnU8F1DUVwEl/s8hbeQcDgFZ2O42OSWB+4GTafg7AGvJ/c+A+6Fe9pwLq+FTAOVovX+/bT7x99925ktr8WPvaTYsRiEbgHmWyfsBs/CmEJQHrj6Hq25XENgrPi8dUfJL2hYrdKkrKJ/09SxHzxX58pb/LFOsqKPUKrMOnAOoFZu0IFAmspwVWLVqoxsfv07ofrHH9KazanwT4hwgTrXIqgJP+IuzggCn5Nc91AAJ2AFUj0BF4fOePQL/bPg1g9v+l8FGA2EpVUwGc9Bdbz4bN5y5XzxGAsJ1A7QhYgBMBw28Hj1MKJylifE/8jPK6eAyij+u5XOlvDMAMn7p80B/jxp6hNU1CYE4BBgBz8jT24O6q6e8bq618ReNMBfikPx/diLn4Er9HxZxghrkxAMiwU2lSmgIMAOLpt/+jVGKcCrhWeX1oSCaf9HeQwgOIWAtf7xumZxgAhHGnVgRmCTAAmEUS7I6YpwL+WSplpwI6J/0tDiZZXLHP9D9TwRn/xVZVL8EAoGpR1ofAiAIMAEaEq+lpOUwFcNJfTRtHJqtlAJBJR9KM9AVCXwzoj+kTVt6CmKcCii7kw0l/lW8O2a3wT24RJwFm1680KEGB0EcArkvQrO6UY54K+Bc1/qIBAJz0NwCGu2cILH/NMwCYYcINBIIIPCFIrSsq/f2KP/mrSyDmqQAf4u/9rgBO+uvqPP6cU4ABwJw8PIhAcwJbNVdV35pu0r0P932EO1OZCvBJf/srOOmPbbZI4BEtsMgLcQTAChQEwgpsqepXDpiCd/6LAtYfc9WpTAX4iMAvI4b09858TeGP/VHCCtyo6h9yCgwAwnYEtSNggVUUWwSmYBpgcAfEPBVwqNL+R8Wpg9OP4pGPKIt9o8iEJKZf6wwA2BgQiENgQeA0pt8UAucRa/WxTgW4346OFW0qL+/4udJfPJ00/VpnABBPp5BJuwW2Dtz86TeFwHnEWn3MUwGxmjkvrvQXX+9Mf+qHAUB8nUNG7RQIfQRg+k2hnfylWr27lorxuwJKJR9gIV/hjyv9BYAvqHJ6sM8AoECKhxFoSCD0AGD6TaGh9qZaTaxTAbF5ctJfbD2yIp/p1zoDgBUo/IVASIHQUwA3qPExf2lMyL7prpupgG6NwX9z0t9gm5CPPKbKr+8kwACgI8FvBMIKhD4C8KCaf3NYgmRqZypg7q7ipL+5fUI+eqsqf6CTAAOAjgS/EQgrsL6q3yBsCvOmDw0GziOF6pkK6N9LnPTX3yWWe2e8xhkAxNIt5IHAvHmhpwE4EbD8VshUwGwrTvqbbRLbPQwAYusR8kFgSiD0NMCMNwd6pVBgdy3BpwImmTjpr3BziWKBGa9xjgBE0SckgcBygdADgJgvJRvrJsJUwGTPcNJfrFvozLyu6r7JAKBbg78RCCsQegrgirDNT7J2pgImL/HLlf7S2HxnvMYZAKTRaWTZDoHQRwDuEvP0R4TaQV5JK9s8FcBJf5VsQo2s5CbV8qfumhgAdGvwNwJhBXYIW/3y2mf8hxBBPqmk0MapAE76S2XrnMzz8t50GQD0inAbgXACG6vqJ4WrfnnNs94kAueTSvVtmwrgpL9UtswVec4a3DMAWIHDXwjEIPDMwEnMepMInE9K1bdpKoCT/lLaMidznTW4ZwCQXieScd4CzwjcvCtV/6OBc0i5+jZMBXClv/S2UF8C2K/tGYUBwAwObiAQXCD0AGCJBH4XXCHdBHKfCuCkvzS3TX/+/+7e1BkA9IpwG4GwAqEHAG79rEOFYUmSqz3XqQBO+ktuU5xOuO9rmgHAtA9/IBCFwObKYn7gTPq+WQTOKbXqc5sK4KS/1LbAmfn2PbeHAcBMJG4hEINA6KMAfd8sYoBJKIfcpgI46S+hja9Pqn0H9QwA+khxFwKBBUIPAH6u9j8c2CCH6nOZCuCkv7S3xkeU/s/6NYEBQD8V7kMgrEDoAcBSNf+asATZ1J76VAAn/aW/Kf5aTbi/XzMYAPRT4T4EwgqEHgC49T8JS5BN7SlPBXDSXx6bYd/D/24aA4A8OphW5CWwQM1ZP3CTzgtcf07VpzgVwEl/+WyBPxrUFAYAg2S4H4GwAqGPApyj5nvukFKNQGpTAZz0V02/h16LL+p19qAkGAAMkuF+BMIKhB4A+KIhl4YlyKr2lKYCOOkvn03Ph//vHNQcBgCDZLgfgbACoQcAbv33wxJkV3sKUwGc9JfXZveDvJpDaxBAoCmBXVSRryFOVGfgs7G3aaoDh6zHJ/35jHH6Ox+DhXNtAz7Rg4IAAggMErhVD2wy6EHuH0ngIj1rT0VMX7rkfcG3FT78T8lD4A4144kKD+j6FqYA+rJwJwIITAn8EInKBWKcCuCkv8q7OfgK/doduPMPnh0JIIBA9AIHKEMOCVdvENNUgP/r99EI+jkvg4OK3l2YAigS4nEE2i3geeG7FKu0m6GW1scwFeCT/i5TuJ8p+Qh4QDdfsXiuJjEFMJcOjyGAwL0iuBiGWgRCTwV4p3+mgp1/Ld0bdKUe1M2583d2DACC9hGVI5CEAB8HrK+bQl0giCv91denMay51Mf/GADE0FXkgEDcAqXeTOJuQrTZhbpAECf9RbtJVJIYg/ZKGFkJAghY4CYFJ4nVZ/DuBjezfVUXJ/3V15ehXye3q39Lnd/HEYAGX3VUhUDCAqcmnHsKqR+nJPdsIFGu9NcAcuAqTlf9HoRQEEAAgUoEdtJaQv9nk3v9Pmlru0p6q/9KttLdixS5O7a9fc/u3/3ciwACCIwucKWe2vY317rb/3sZbzx6Fw185gI9cqOi7vxZf1jjXw3cAvo8wBRAHxTuQgCBvgL/1vde7qxSYGut7OeKF1e4Ul8P/gLFFhWuk1XFKcBrNM5+ISsEkhfYSC1YpuC/vPoNfJLexxWrKkYt6+mJn1U8oqDP8jdwP2+qoCCAAAK1CPgLY9iZNGdwm7yPVgzzhUxe9r0KP5e+ao/B0N/bsZI2EAoCCCBQVmA/Leirx1GaFXhY1X1X8RPF1YprFIsUays2n4pt9Ht/xV4KpneF0LLyBrX3m8O0mQHAMFosiwACPiTt/yw9HUBBAIE4BHzJbp88unSYdBglDqPFsggg8JAIhvovAzIEEKhdwNfpGGrn74wYANTeL1SAQHYCX8muRTQIgbQFvjJK+kwBjKLGcxBA4CoRPBUGBBAILuBrR/zVKFlwBGAUNZ6DAAJ83phtAIE4BL46ahocARhVjuch0G4Bn3B0o2K1djPQegSCCviz/wsUN42SBUcARlHjOQgg4G8cG/k/D/gQQKASgdO0lpF2/q6dIwCV9AErQaCVAtuq1b9W8I9EK7ufRkcgsIty+MWoefDCHVWO5yGAwO9EcAYMCCAQROAHqnXknb8z5ghAkH6jUgSyEXimWnJFNq2hIQikI7CnUv3xOOlyBGAcPZ6LAAL+iuBzYUAAgUYFLlFtY+38nS0DgEb7jMoQyFLgY1m2ikYhEK9AJa85pgDi7WAyQyAlgcuU7LNTSphcEUhUwF8GtbPC3/Q4VuEIwFh8PBkBBKYEKvmPBE0EECgUOE5LjL3zdy0cASi0ZgEEECgh4PeSXym2L7EsiyCAwGgCi/Q0X/bXXw89duEIwNiErAABBCTg/0j8nwkFAQTqE/ikVl3Jzt8pcgSgvo5izQi0TWBVNfg6xeZtazjtRaABgTtUx5aKob/2d1BuHAEYJMP9CCAwrMBDesLHh30SyyOAQCmBT2upynb+rpEjAKXcWQgBBEoKrKLl/FXBnAtQEozFECghcJOW8Wuq0gEARwBKyLMIAgiUFvD85HtKL82CCCBQRuB9WqjSnb8r5QhAGXqWQQCBYQW+pye8fNgnsTwCCMwSuEj3PG/WvRXcwQCgAkRWgQACswS20z2eCvCJgRQEEBhN4FE9baHip6M9fe5nMQUwtw+PIoDAaAK/1dNOGO2pPAsBBKYETtLvWnb+Xj9HAKaU+YUAApULrK81XqvYqPI1s0IE8hdYoib6oj9/rKupHAGoS5b1IoDA3SL4MAwIIDCSwDF6Vm07f2fEEYCR+oUnIYBASYGVtZwPYfrLSygIIFBOwBfU2kGxrNzioy3FEYDR3HgWAgiUE3hEi7273KIshQACUwLv1e9ad/6uhwHAlDa/EECgNoEJrfnM2tbOihHIS+A8NeesJprEFEATytSBAAILROBvC1wdCgQQGCjgI2a7KK4euESFD3h+joIAAgjULfBnVeDPNL+g7opYPwIJCxyv3L/RVP4cAWhKmnoQQMD/cFyoeA4UCCAwS8D/9T9L8eCsR2q6gwFATbCsFgEE+gpso3t/rlir76PciUA7BXzC364KvzYaK0wBNEZNRQggIIHFU/EKNBBAYFrA18v41vSthv7gCEBD0FSDAAIzBH6gWy+dcQ83EGinwCVq9h4KnwDYaGEA0Cg3lSGAwJTAk/Tbc54bIoJAiwXuV9ufprguhAHXAQihTp0IIPAHEbwNBgRaLuAL/gTZ+dudcwBavvXRfAQCClyjurdV7BQwB6pGIJTA91Xxe0JV7nqZAgipT90IILCBCK5SbAoFAi0SuEtt9cDXR8KCFaYAgtFTMQIISMAXCDpU8RgaCLRIwNNfQXf+tmYKoEVbHE1FIFKB65XXRopnR5ofaSFQpYCv9Oev+g1emAII3gUkgAACElhTcbHi6WggkLHAtWrbQsU9MbSRAUAMvUAOCCBggS0Ulyue4BsUBDITuFft+WvFr2NpF+cAxNIT5IEAAjeJ4DWKh6BAIDMBfxHWwYpodv725RwAK1AQQCAWAQ8C/qTgUsGx9Ah5VCHwIa3ky1WsqMp1MACoUpN1IYBAFQJXaiUbK/zNaBQEUhf4dzXg3TE2gnMAYuwVckIAgVVFcJ5iDygQSFjgp8p9d8XSGNvAACDGXiEnBBCwwHzFFQqfHEhBIDUBT2X5KNbNsSbOSYCx9gx5IYDAHSLYT/EXKBBITGCZ8j1AEe3O354+AsAVuCxBQaC9Aueo6f5q3ljfC16n3DyPSkEgFYHDlegXI072VOV2IEcAIu4hUkOgIYEXq553NVTXKNWcoicdO8oTeQ4CAQROUJ0x7/zfpPwOtAtHAKxAQQCBB0TgK5RdHSmF/1k5S8HHAyPtINJaLjChnx5QPxypx5OV1y8U6zo/jgBYgYIAAmuI4GTF6pFSPKq8Xq+4JNL8SAuBn4vg1YpYd/7+2P/XFct3/vrNAMAIFAQQWC7gryeN+VD7/crv5Qp/tIqCQEwCv1Ey/s//7piS6snlA7r93O77mALo1uBvBBDwiYAvUZwbMcVGyu0CxQ4R50hq7RG4QU19nuLWiJvsjyNeqlilO0cGAN0a/I0AAha4TbGz4i7fiLRsorwuVCyIND/SaoeAd/re+XsQEGt5nBL7mWLb3gQ5B6BXhNsIIOCd6xciZ/Ag5QWKWyLPk/TyFfB1Kl6kiHnnb/1PKWbt/P0ARwCsQEEAgX4Ch+nOL/d7IKL7tlMuP1bwFcIRdUoLUvFc/94K/2cdc3mlkvvOoAQZAAyS4X4EELhPBLsorouc4mnK73zF+pHnSXp5CPhkVP/n7zn1mMsTldxVivmDkmQKYJAM9yOAwNoi+IZixolDEbL4c80vU3jAQkGgToEHtfJXKWLf+dvAR+8G7vy9AAMAK1AQQGCQwK564MODHozo/v9SLvsqfEEjCgJ1CPjz/QcqflTHyite59u1Pn9kds7CFMCcPDyIAAISeETxQsX5itjLPkrwTMWqsSdKfkkJ+EJUBytS+E4Kf4LHA+I1FXMWBgBz8vAgAghMCdyp389WxH7Gs9PdT+E36tV9g4LAmAIeAP+N4qtjrqeJp/uQ/08UTy5TGQOAMkosgwACFrhasZtiiW9EXp6v/PzdAetEnifpxS3gKSV/G+XAM+kjSt9Hvc5T7FE2J84BKCvFcggg8FQRfF2RwvvGhPL0IMCf1aYgMIrAvXrSSxUp7Pzdvs8qSu/8/YQUXsjOk4IAAnEI+ES7Y+JIpTCLK7XE7oobC5dkAQRmCvxJN/dSXDDz7mhvvVOZHT5sdivpCY8N+ySWRwCB1gv4hKiTE1HYVHmeo9ghkXxJM6yAB4z+nP+1YdMoXbuviPlDxdAf12UAUNqYBRFAoEvAc6M+3Hh5130x/7mhkvu+wh9rpCAwSOBXeuDFilsHLRDZ/VsrH5/05+176MIUwNBkPAEBBCSwhuLbCn9vQAplsZL0f0o+EkBBoJ/AZbrzeYpUdv7rKlefnzDSzl/P4xwAI1AQQGAkAe/8PQjwYCCFcr+SfIXilBSSJcdGBc5VbR4geqCYQvE/756CG2taiyMAKXQ1OSIQr8BCpXZivOnNyuwh3fMGxedmPcIdbRU4TQ33wNADxFTKsUrUF70aq6ysZx891hp4MgIItF1gJwEsU1yUCIRPfP6ewv8A7ZlIzqRZj8DntdpDFb7MbyrljUr0+CqS5STAKhRZBwII+FKp+ys8J5lS+Tsl+6+Koc+gTqmR5DpLwIPAjyqOnvVI3Hf4apwXKCqZdmMAEHdnkx0CKQn42/j2Uvjz9ymVvZSsDwNvlFLS5DqygA/1v1lx+shrCPPErVTtxYonVVU9A4CqJFkPAghY4C6FD6tf4xsJlScrV186eOeEcibV4QUW6Sn+Ot9fDv/UoM/wCbcXKhZUmYXnwCgIIIBAVQKP14p8RvXWVa2wofUsUj27Kc5oqD6qaV5gQlUuVKS285+vnH2N/0p3/lofHwM0AgUBBCoV8CFKv2FtVula61+ZDw2/RnG0wnPElHwEfJ18X+DnzsSatJ7yPVvxlDryZgqgDlXWiQACFvitwlcL9HXVUys+ofGrirVTS5x8Zwj40ynvUHxpxr1p3FhLaZ6j8JGpWgoDgFpYWSkCCEwJ/Fy/n6+4O0GRnZSzzwvYKsHcSXnevD8K4QCFT5xLrayuhL+n8MWJaiucA1AbLStGAAEJ7KLwNfj930xq5Sol7Dljzx1T0hLwJ1GepUhx5++PpPpTKbXu/LV+zgEwAgUBBGoVeI7W7v+k/V9NasWfavDc8QmpJd7ifH2JXF/T/5YEDfxP+dcUr2wid44ANKFMHQgg4P9m/F+N/7tJrTyshN+pOFzhSwlT4hTwxajerzhYsTTOFOfMylPyn1e8fs6lKnyQcwAqxGRVCCBQKPBNLfFGhd+sUyw+muE2bJli8hnn7Pn+Nyl80lyq5dNK/N1NJs8RgCa1qQsBBA4Swf9LmOFS5e7zGr6VcBtyS/1sNehpipR3/h9V/o3u/DsbgT/vSmDANsA20OQ2cHznDSjh354S+Avvn8H2H8tk/z8VPpKdcjlCyTf52uuuK1jF3Unwd7gNAHvsQ20D/6I3vtTfvP197L6yXCjDttZ7rcx9ln/q5Ug1IGQfBq08ZMOpO+yGhz/+3ga+rkjxxMDuHY+/me3/KtimmzH4qqxTv0CTB76e8w+6zXASoHqAggACQQV8wZMDFSmeud0N56sHnqjYoPtO/q5MYInW9HaFB40pFw94vZ34pMWghQFAUH4qRwCBKYEL9duffb4ncZHNlf83FP4cOqU6gSu0Kp9A+vvqVhlkTT5adIpi3yC191TKpwB6QLiJAAJBBLzDPF/xxCC1V1fpzVrV8xU+q/uR6lbb2jX5EPknFb4efuo7/3XVhh8qotj5K4/lJ+AYmIIAAgjEIOA3+RcpFsWQzJg57KHn+2jAZmOup61Pz+Gz/Z2+m68/vPN/RueOGH5zBCCGXiAHBBDoCGyjPy5S7Ni5I+HfP1bu/ny6L4NMGU7AO8udFSl/tr/T4i30h7fpqHb+To4BgBUoCCAQk8CmSsY7z11jSmrEXBbrefspfMKX/6bMLXCvHvb1FV6mSPFrpHtb9xTd4S8k2rb3gRhucxJgDL1ADggg0E/gft3pM+vP7fdggvdtrJxPULw6wdybSNnfGvlWxS1NVNZAHQtVxw8Uj2+grpGq4AjASGw8CQEEGhDwVwh/V/GaBupqoorbVYm/n/61ihz+u63KzEdGfIRkH0UuO/+91Zb/VES781duTAEYgYIAAtEKrKbM/LGpv402w+ET87ci+gqCJw//1OyeccaUhb8CN5fio1Y+mpHExYqCXolISNSPAdsA20CZbeCf9H7hacuciq99cKuiTPtzWsZn+B+YU0dOteV/6PfDilT6KplEUwElz3Q2fvoqvb46U2+uSfxnNbVDKPNrPS10oqIt26M/Ghn1ofEyndazjI9UJdeHnATY04vcRACB6AWuVoavUlwffabDJfgiLf5FxZbDPS2ZpW9Tpn+n+I9kMi6XqC9e5akMX6woqcJJgEl1F8kigIAEnqr4icInWuVU/GkHt82fFPDRgJyK/zv2eQ+57fyfqTZdoUhu56+cl5e2HHaine05xEhft6OvH9I72Dun3sdy+7WHGnStIvVteZHa4CMbORZ/N8FfFCn3UdLJpwxP7mm/cOi/ePrvC3oT9hxsbmVNNeg4xTJFatubT4T7jGJtRW7FR86PVaTWJ7Py5RyA3DZN2oNAOwV8qdUDFDl+vv4patdnFalMebgv3qH4pSK3sq4a5JMYX5FDwxgA5NCLtAEBBCxwk8KX3f2Zb2RYXqc2Ha/YNNK2+aN9Ryhy+kx/N/U2uvEdhQdkWRQfyqAggAACOQhsoUb4v09faS/Hcooatb3ikwqf/xBL8dce/7NiO0WuO3+fx+ATT7PZ+asty8useQHdy30YsA2wDaS8DRyj97HcLho0+Y49+dNn1PtSs6H76MfKYafJlLL9+W61LKWL+wyzTQTfgIZJlmXDv+DpA/oglW3AX8O7Tra7pcmGvV6/blU03Sd/UJ1vnEwh25+rq2UnKZq2bbK+rBvXJCR15f1CoX/T7N9f6w1852x3UZMN8yCnMy1Q93bqqYdPK3wyXM5lazXuckXdnqHXn30DQwNTf/4vIvo47j5eqjfyt+e8t5pq2476PaGoa3u8QOvO/XC/Kd+guFdRl2NM621FI2MCJ5d2vLDo5/j62Zdr3UCRe/EOzJfdrWob9LoOzh1N7VtLcZKiKrcU1tOqxqbQIeTYrhcg/d1sf9+oN/jnKnIvnhb4lGKciwj5uV5H7of71cR5uyh+o2jb67F1DW5bB9Pe9r2o6fO5+9xndB+paMPHoP1FNR9UeOBTdrvwsn6On9uG8i418gFFWZ9slltpqtFt6GTaiAACCHQLTOiGz2T3Ie7ciwc7L1fsqdhKsWDqt37Nu0Hhb1b07wsU31c8qsi9PF4NPEnxytwbOqh9DAAGycy+/0Hd5c/d+qNFPrPYH4Nx3Kdoc/G1vp80Fb5Ihr+mdW+FP0JDQSB2gTuV4JsV3ulR2iOwp5rqS/pu2p4m92/pY7qbGGzg/w78HdaeU6OUE7CVzao8EYltdPA2is14Nv5v93jFagpK3gIrq3n/qPDVC3ndgDBwI/BHhz6keJyCMpqA7WxoS15sGMS+DVyh7dTXe6fkKbC5mnWhIvbtsMn8wOizQfjQ/q4KSjUCtrRpkxs2deE9yjbgz38fXM1mz1oiEthfuSxWjLJN5PwcQHo2Cn+F5WYKSrUCNrVtzi8m2pZP/56kbdXnt1DSFlhT6Z+g4LXZx4CTAGdu3Lfr5kLFLTPv5lZFAh4E+PKaG1e0PlaDQJ0CN2jlb1H45F9KegK7K+UvK/4qvdSbybgNn4MtK+nPgfq7xNn5lxUbfjnb2tjWFARiF9hKCZ6n+JyCowGx99aK/Hzu0WcUFyjY+a9w6fsXh0YmD434ZDVKMwK2ZrvDIKVtYJG22Rc28/KgljEE9tRzf69IadsKlitTAJNbmk9Q20bxl8mb/KxZwCN0v0h9/QAKAikJfEHJHqHwyYKUeAR8hOZjircrvF+jlBBgCmAS6aP6xc6/xAZT0SK2tjkFgdQEDlfCVytenFriGef7ArXtKsU7FOz8h+hojgDMm+cr/M1XLBnCjUXHF/DFgu5QcMXA8S1ZQxiBE1XtexX3hKm+9bX6PeQTCg/K2PGPsDlwBGDyDF92/iNsPGM+xeacXT0mIk8PKnCYavfRgJcFzaKdlfsIjO3fqmDnP+I2wABg8tr+I/LxtDEF/L0KFARSFthMyft7BPxxs/VTbkgiua+nPL+kOFuxRSI5R5smA4DJL/aJtoMyT+zXmbeP5rVH4FA11f+R7tOeJjfe0perxmsUPvJCqUCAAcDkJWoroGQVIwj40xcUBHIR2FQN+a7i3xQb5NKoCNphy68ovqewMaUiAQYADAAq2pRGWg0DgJHYeFLkAm9Sfv5P9bWR55lCeq+bsnxzCsmmliMDgNR6jHwRQCAFAV/j4hTFeYrtU0g4shyfonx+pPh3BdcLqalzGACwcdW0aZVaLS/sUkwslLCAP6PuL8HyRWrWSrgdTaXuC/p8XPELxd5NVdrWehgAMAAIue0zAAipT91NCayqit6v+I3iwKYqTbAeT5nY6AiFzSg1CzAAmDfPh5ooYQSwD+NOrWEE/JHBUxXnKrYLk0KUtXqKxFMlnjLhJL8Gu4gBwLx5r2rQm6pmCmA/04Nb7RDwlwoxLTA5JXLclIWnSigNC/gKSv4mojaXB9X4+QquBtjsVsClgJv1prY4BW5WWu9RfCvO9GrLyof7j1f4qAglkABHACavRX9wIP82V2vz1dsMQNsRkMDmitMU5yjaMC3gw/2eAvHhfnb+QghZOAIwqe/Po/N1wM1tiY9TVb9XcBJgc+bUFL/AMqX4KcUxivvjT3eoDP0JiA8rfLSDE/yGoqtvYY4ATNp6R/QP9TGz5h4BW7Pz70HhZusFVpPABxS+RPYBGWn4kw8+u9+fhGDnH1HHcgRgRWc8oD/3Uly24i7+qkFgV63zfMUaNaybVSKQk4CnBfwf8zWJNmpn5e15fp/0SIlQgAHAzE65XTcXKm6ZeTe3KhLwnN/lio0rWh+rQSB3AZ+kfYbifyt+lkhjn6U8j1Tsq/A+hhKpAFMAMzvGOyZ/tadPzKFUK2BT27Lzr9aVteUt4B2opwN+qvgPhY+gxVqeq8R+qPAg3x/xZecvhJgLRwD6984fdbdfdBf3f5h7hxTwG8PpiicO+TwWRwCB2QLn6a6TFB4QLJn9cKP3rKfa9lMcqtiz0ZqpbGwBBgCDCX1Grq9J/QnFvYMX45E5BNbVY0co3qfwCU4UBBCoTuABrepsha8u2ORgwK9rH973Z/lfouC1LYQUCwOA4l67U4t4/u2risXFi7OEBDZU+CtRP6TYSEFBAIF6BTwY8EmDPmp55VTcrd9VlPW1kmdOhY/meae/uoKSuAADgPId+LAWvVBxlsJn5d6q8MmCoQ/BKYWgZR3V7pP7NlXsqPDc3/MUqygoCCAQTuA6Ve3BwE8Vfq/ygODPU9H5WzfnbaDwTt6/O3/7Nf0MhXf8WysoGQowAMiwU2kSAggggAACRQJ8CqBIiMcRQAABBBDIUIABQIadSpMQQAABBBAoEmAAUCTE4wgggAACCGQowAAgw06lSQgggAACCBQJMAAoEuJxBBBAAAEEMhRgAJBhp9IkBBBAAAEEigQYABQJ8TgCCCCAAAIZCjAAyLBTaRICCCCAAAJFAgwAioR4HAEEEEAAgQwFGABk2Kk0CQEEEEAAgSIBBgBFQjyOAAIIIIBAhgIMADLsVJqEAAIIIIBAkQADgCIhHkcAAQQQQCBDAQYAGXYqTUIAAQQQQKBIgAFAkRCPI4AAAgggkKEAA4AMO5UmIYAAAgggUCTAAKBIiMcRQAABBBDIUIABQIadSpMQQAABBBAoEmAAUCTE4wgggAACCGQowAAgw06lSQgggAACCBQJMAAoEuJxBBBAAAEEMhRgAJBhp9IkBBBAAAEEigQYABQJ8TgCCCCAAAIZCjAAyLBTaRICCCCAAAJFAgwAioR4HAEEEEAAgQwFGABk2Kk0CQEEEEAAgSIBBgBFQjyOAAIIIIBAhgIMADLsVJqEAAIIIIBAkQADgCIhHkcAAQQQQCBDAQYAGXYqTUIAAQQQQKBIgAFAkRCPI4AAAgggkKEAA4AMO5UmIYAAAgggUCTAAKBIiMcRQAABBBDIUIABQIadSpMQQAABBBAoEmAAUCTE4wgggAACCGQowAAgw06lSQgggAACCBQJMAAoEuJxBBBAAAEEMhRgAJBhp9IkBBBAAAEEigQYABQJ8TgCCCCAAAIZCjAAyLBTaRICCCCAAAJFAgwAioR4HAEEEEAAgQwFGABk2Kk0CQEEEEAAgSIBBgBFQjyOAAIIIIBAhgIMADLsVJqEAAIIIIBAkQADgCIhHkcAAQQQQCBDAQYAGXYqTUIAAQQQQKBIgAFAkRCPI4AAAgggkKEAA4AMO5UmIYAAAgggUCTAAKBIiMcRQAABBBDIUIABQIadSpMQQAABBBAoEmAAUCTE4wgggAACCGQowAAgw06lSQgggAACCBQJMAAoEuJxBBBAAAEEMhRgAJBhp9IkBBBAAAEEigQYABQJ8TgCCCCAAAIZCjAAyLBTaRICCCCAAAJFAgwAioR4HAEEEEAAgQwFGABk2Kk0CQEEEEAAgSIBBgBFQjyOAAIIIIBAhgIMADLsVJqEAAIIIIBAkQADgCIhHkcAAQQQQCBDAQYAGXYqTUIAAQQQQKBIgAFAkRCPI4AAAgggkKGABwBLMmwXTUIAAQQQQACBwQJLPAC4bfDjPIIAAggggAACGQrcxgAgw16lSQgggAACCBQIMAAoAOJhBBBAAAEEchRgAJBjr9ImBBBAAAEECgQYABQA8TACCCCAAAI5CiwfAFyXY8toEwIIIIAAAggMFLhuJT20luJOxRoDF+MBBBBAAAEEEMhF4AE1ZCN/CuB+xXm5tIp2IIAAAggggMCcAt7n3+8BgMu3J3/xEwEEEEAAAQQyF1i+z/cUgMt8xe2KzoDA91EQQAABBBBAIC+BR9WcjRV3dHb4d+jGJXm1kdYggAACCCCAQI+A9/Xe58/4j//knoW4iQACCCCAAAJ5CUzv6ztTAG7eaorfKLbyDQoCCCCAAAIIZCVwg1qzvWKZW9WZAvDfvuNI/0FBAAEEEEAAgewEvI9fvvN3y7qPAHRuX6k/nu4bFAQQQAABBBDIQuBnasUzFY91WtN9BMD3+YEPdB7kNwIIIIAAAghkIeB9+/TO3y3qPQLQaeW5+uOFnRv8RgABBBBAAIFkBXzhnxf1Zj9oALCZFrxc4c8KUhBAAAEEEEAgTQFf42eh4pbe9HunADqPe8FXKx7s3MFvBBBAAAEEEEhKwPtw78tn7fzdipX9Y0DxE25W7Dfgce5GAAEEEEAAgXgF3qLUvjsovbkGAH7OLxTrKHbzDQoCCCCAAAIIJCFwvLL8xFyZDjoHoPs5HiScrnhV9538jQACCCCAAAJRCpylrA5QPDJXdkVHAPxcf2zgNMVaCo4ECIGCAAIIIIBApAL+z/9vFXPu/J17mQGAl/Mg4BzFIsXLFKsoKAgggAACCCAQh4BP+POcvw/7z/i8/6D0ykwB9D73ObrjDAUfEeyV4TYCCCCAAALNC/ijfj7b/9Jhqh70McC51uEK/JlCX1iAggACCCCAAALhBLwv9j55qJ2/0x1lAODn+SOCvqrQSxS+vjAFAQQQQAABBJoT8L7X+2Dvi71PHrqMOgDoVOTzAvzlAgcrbujcyW8EEEAAAQQQqEXA+1rvc73v9T545DLKOQCDKltNDxymeINiN8W4gwutgoIAAggggEDrBR6VwMWKbypOVCxTjF2qHAB0JzNfN16p8FUEfXhiDQUFAQQQQAABBMoJPKDFPL//bcV3FHcoKi11DQC6k/T1A/ZWbK3YpE+so/soCCCAAAIItE1giRp8W5+4Tvf9p+J+BQUBBBBAAAEEEEAAAQQQQAABBBBAAAEEEEAAAQQQQAABBBBAAAEEEEAAAQQQQAABBBBAAAEEEEAAAQQQQAABBBBAAAEEEEAAAQQQQAABBBBAAAEEEEAAAQQQQAABBBBAAAEEEEAAAQQQQAABBBBAAAEEEEAAAQQQQAABBBBAAAEEEEAAAQQQQAABBBBAAAEEEEAAAQQQQAABBBBAAAEEEEAAAQQQQAABBBBAAAEEEEAAAQQQQAABBBBAAAEEEEAAAQQQQAABBBBAAAEEEEAAAQQQQAABBBBAAAEEEEAAAQQQQAABBBBAAAEEEEAAAQQQQAABBBBAAAEEEEAAAQQQQAABBBBAAAEEEEAAAQQQQAABBBBAAAEEEEAAAQQQQAABBBBAAAEEEEAAAQQQQAABBBBAAAEEEEAAAQQQQACBoAL/Hyy5PxH2LtmjAAAAAElFTkSuQmCC;" vertex="1" parent="1">
          <mxGeometry x="614" y="224" width="42" height="42" as="geometry" />
        </mxCell>
        <mxCell id="Wn_DIbC_k09VwicD28QW-37" value="" style="shape=image;verticalLabelPosition=bottom;labelBackgroundColor=default;verticalAlign=top;aspect=fixed;imageAspect=0;image=data:image/png,iVBORw0KGgoAAAANSUhEUgAAAgAAAAIACAYAAAD0eNT6AAAAAXNSR0IArs4c6QAAAERlWElmTU0AKgAAAAgAAYdpAAQAAAABAAAAGgAAAAAAA6ABAAMAAAABAAEAAKACAAQAAAABAAACAKADAAQAAAABAAACAAAAAAAL+LWFAAA60UlEQVR4Ae3dW6ycVfnH8UIBAcuhF3IULwDBAGoQvJBDFFHR/CEFWvHKpuqtUeOhgaBJgxIwIgTijXdKQA5BYi1eIB5iYiExKCCCgLHBilJIpFY52JLC//fsdtqZ3Tm9613rfd611vdNnu69Z+Zdh8963rVWZ2bP3m9Jt8d+qu4MxdmKUxSnKk5WLFMcufvrgfoa89ihwl5RbN399S/6+oziacXDiicUbyo44gosVXHnKlYozlGcqFiuiD2+KnKu43U9ynJgk2KjYr3iQcVOBYe/APniPwa1tYD1qIMRP0J1fE5xl+IFhS22fQpr052KzyisrRztBA7R6VcqXlT0aZzHtcXGfq3C2szhI0C++LjXWivrUQcjbzurTyhsYX1NMW7y7eNtr6qtdyguUlgfOJoJXKGHP6fo49hOa9NmtXlVs67y6AgC5EsERIqYKcB6NJMozgP2VzGXKOyp9WkTbg73/VF9WK2wpyY5pgvYBbZO8YYih7Ed10Zr+/UKy2GOtALkS1pfSt8lwHrUYSbY/5qfUoybXHO+7Un16SMdOuZWlV1kdylyHuPhttuzVmwC0mUh+ZLOlpL3CrAe7bVI+t1xKv1WxfAkWuL3G9THdySVzLPw6woc+2/lORRZtJp8yWKYsm0k61GHQ7dCdb2kKHHBH9enberrJzv07XtV9hruOKfcb7OXA1b2HT/D9pEvGQ5aRk1mPeposN6iem5W5Pyab5tF6vvq+0EdWfe1Gnv39mZFG8c+n2tvZjy0r/gZtot8yXDQMmky61GH65H9vv5vFH2evLto269lUPOvDV5VQQ6sVR854giQL3EcKWVUgPVo11rcyXp0jOwfUXSxwOZQx+OyOH40H6v4yX4zIoff82+bQ1vUT34LpH1Kky/tDSlhXwHWo9G1OOl6dKz87VP02k6qpZ1vnyp49L65WfQtH6woD84reiS76Rz50o1zTbWwHo1fixutR/P+utPhyqyfKU6uKcPm7Os79bgHFPZUVC2HvdmmlqOmvqYa05oMa+prqnyZVS7r0WShRuvRPBsAe4OF/QrcmZPrrP6ed0vgXkUtbww8p6IRr6mvqYa1JsOa+poqX6aVy3o0TWfXfVHXo++pzNKetk/Vnxtnj00Rj6jh9f9Bjtj7ADjaCZAv7fw4e68A69H863Hr9cg+1rfWX/UbLABNvprVZXtztdjvtqtnTVxyfuz/ih3F7jpGvnRnXXJNrEfN5t2Z65F9Jvek4+26w95VWNNr25Msmty+VQ+2P3n8zyYnZfZYm9BrebnDhmbadZLZ0Lk0l3xxYS+qUtajsOGcuh5New/ATaqPxb85+nKdckPz07I6Y1tWraWx3gLki/cI5F8/61HYGAatRx9TXTk/bduHtl8YNl5ZnPVQZfmRxaD0uJHkS48HJ4OmsR61X4/HrkfjngGwD+24JYOk6HsTzXCcb9/bPU/7Ns7zIB6DwG4B8oVUCBVgPQqVGz1v7Ho0boGyP3Zz6ui5/BQgcJrOuTzgvBxOWZ9DI2ljbwTIl94MRXYNYT2KM2Rj16PFb26ynx9VvCdOndWX8pgEzlTYSxIlHbYrtzc5HlVSp6b0ZfF1MuWh3DVGgHwZg8JNMwVYj2YSNXrAPuvR4mcAPq7iWPwbmU598Ht1r71+VdqxUx36bmmdoj/JBMiXZLRFF8x6FHd491mPFm8A1sStj9IksLpQBXtNaXOhfaNb8QXIl/impZe4pvQOOvRvZD0afmrzCDXmeYX93W6OeAKvqahjFdviFdmbklapJXcrhvOoN42L2JDS+xeRampR5MtUHu4cEmA9GsKI+O3IejT8DMBKVcLiH1F6d1Fmemn8YntR4j1qxXW9aAmNyEGAfMlhlPrRRtajNOMwsh4NbwAuSlMfpUqgZNtvqH93McoIzClAvswJVfnDSp4zvYd2H1t7itP+6EkfPkCnxDa8INuSn0a2vq1T2GdPlzh+6hZHRAHyJSJmgUWxHqWdR/dZj+zPB5Y4cfepT6cXeKEu7pI9bWdvDOyTe4y2LO4nP8cRIF/iOJZWCutR+jl0YT0avARwdmkZ1MP+nNXDNsVu0o9V4CmKtQrbZXIgME2AfJmmU+99rEfpx35hPRpsAE5NX1/1NdRibH8+9zuK4xTnK+wPIz2osA3BDgUHAsMC5MuwBt+bQC1zpedojxjfq5bEeKo0tIyfqv4PKd6qiH1YmRcoNihC2xfjPHsHNEc7gRjjEFJGu1ZztpdAyFjHOMerv6XUy3qUfq0aWY/sIwJjJH5IGVd1mLVXO/bzkQ77WWpVIfkV45xSPUvvV4yxDymjdNfU/WM9Sr8ej6xHz2pEQxK97Tn2P/+uD69nAjZ13dEC62ubb6HnF0hZRZdCx7vteVXgJuzksyq77RiEnF/dejR4D8CyhIM5regbp92Z6L6bEpU7q9jDZj2A+xFAAAEElrAepU+ChfXIft/Sju2Kgxa+6/Yfa8TL3Va5xOr8T8d1WnVmfLBDvSVVabt6j2NwnXjUTZ3hAuRLuJ3nmaxH6fUX1qPBxFbbhVJbf9OnUzc1MG7dOJdSC/mS50jWNm5u/R28BJBnmtBqBBBAAAEEEAgSYAMQxMZJCCCAAAII5C3ABiDv8aP1CCCAAAIIBAmwAQhi4yQEEEAAAQTyFmADkPf40XoEEEAAAQSCBNgABLFxEgIIIIAAAnkLsAHIe/xoPQIIIIAAAkECbACC2DgJAQQQQACBvAXYAOQ9frQeAQQQQACBIAE2AEFsnIQAAggggEDeAmwA8h4/Wo8AAggggECQABuAIDZOQgABBBBAIG8BNgB5jx+tRwABBBBAIEiADUAQGychgAACCCCQtwAbgLzHj9YjgAACCCAQJMAGIIiNkxBAAAEEEMhbgA1A3uNH6xFAAAEEEAgSYAMQxMZJCCCAAAII5C3ABiDv8aP1CCCAAAIIBAmwAQhi4yQEEEAAAQTyFmADkPf40XoEEEAAAQSCBNgABLFxEgIIIIAAAnkLsAHIe/xoPQIIIIAAAkECbACC2DgJAQQQQACBvAXYAOQ9frQeAQQQQACBIAE2AEFsnIQAAggggEDeAmwA8h4/Wo8AAggggECQABuAIDZOQgABBBBAIG8BNgB5jx+tRwABBBBAIEiADUAQGychgAACCCCQtwAbgLzHj9YjgAACCCAQJMAGIIiNkxBAAAEEEMhbgA1A3uNH6xFAAAEEEAgSYAMQxMZJCCCAAAII5C3ABiDv8aP1CCCAAAIIBAmwAQhi4yQEEEAAAQTyFmADkPf40XoEEEAAAQSCBNgABLFxEgIIIIAAAnkLsAHIe/xoPQIIIIAAAkECbACC2DgJAQQQQACBvAXYAOQ9frQeAQQQQACBIAE2AEFsnIQAAggggEDeAmwA8h4/Wo8AAggggECQABuAIDZOQgABBBBAIG8BNgB5jx+tRwABBBBAIEiADUAQGychgAACCCCQtwAbgLzHj9YjgAACCCAQJMAGIIiNkxBAAAEEEMhbgA1A3uNH6xFAAAEEEAgSYAMQxMZJCCCAAAII5C3ABiDv8aP1CCCAAAIIBAmwAQhi4yQEEEAAAQTyFmADkPf40XoEEEAAAQSCBNgABLFxEgIIIIAAAnkLsAHIe/xoPQIIIIAAAkECbACC2DgJAQQQQACBvAXYAOQ9frQeAQQQQACBIAE2AEFsnIQAAggggEDeAmwA8h4/Wo8AAggggECQABuAIDZOQgABBBBAIG8BNgB5jx+tRwABBBBAIEiADUAQGychgAACCCCQtwAbgLzHj9YjgAACCCAQJMAGIIiNkxBAAAEEEMhbgA1A3uNH6xFAAAEEEAgSYAMQxMZJCCCAAAII5C3ABiDv8aP1CCCAAAIIBAmwAQhi4yQEEEAAAQTyFmADkPf40XoEEEAAAQSCBNgABLFxEgIIIIAAAnkLsAHIe/xoPQIIIIAAAkECbACC2DgJAQQQQACBvAXYAOQ9frQeAQQQQACBIAE2AEFsnIQAAggggEDeAmwA8h4/Wo8AAggggECQABuAIDZOQgABBBBAIG8BNgB5jx+tRwABBBBAIEiADUAQGychgAACCCCQtwAbgLzHj9YjgAACCCAQJDDYAOwIOrv9ScvaF9G4hMMbnxHnhO1xiqEUBBBAoGgB1qP0w7uwHg02AP9NX9/YGt4/9ta0N56dtviJpXsZT2wQdyCAAAI9FPCaK6tbjwYbgJedkuDLDvV61Gnd9EpqB2KqRAABBIIFWI+C6eY+cWE9GmwAts19WtwHXqziro5b5NTSvq57/2/qI9Ld6WWcrkeUjAACCMQX8Jorq12P7tUYvukYG1T3hxUp3hNgZVrZ9yk8+3iP6udoJ+A1fu1azdleAuSLl3y7elmP0q9VC+vRAbvH6el249X67ItVgkXJx1Mld25M35bqtnMVKxTnKE5ULFccqMjtsIUk9HhdJ25VbFJsVKxXPKjYqeDYK0C+7LIgX5YsYT3ae12k+m5kPVqjWrx2y7XU++lUI9mzcg9Re65UvKioZWyb9vMF2axVmFXtB/ky+zqpLV/W6KJoek3x+GZmI+vRGYAnT7jTKpjpr1AfnyOX5s6lzbJaVUFeTOoi+dJs0q4lX1iPmuVFyOZnZD3aT1foFkVIQZwz281szbjUw/q2TvGGgnxoZmBm1yv2V9RykC/NcmT4mqohX1iPwvNjOFcmfT92PbpTs8+kE7i9nc1tBc/stnDdRe60vnbs+qthE0C+tJtLBnNx6fnCehQnTwb5Mvx1z3o0POHcX/Ai5d21n3s3IGH916pseyqXo53Ap3T6Ne2KyOJs8iXOMJWeL6xHcfJkXClj1yP7iNxXFMM7Bb5v72Gmh40bhQJus4WfHIlnYE/vriwgLyZ1gXyJlyt23ZWcL6xHcXNlME9PXY/uUFINHsjXOBZ7nm6ZNCtmeru9e3sz+RL9enlOpodmmhPTmk2+xJlPFs/LpeaL5RLrUfycGVmPhl8CMPAf2D8cUQV+GLW0/hT2JTXlhP40p5iWHK+efL6Y3uztCPmy1yLmd6Xmixn9ICYUZS0IjKxH9m7L4cN+fljxvuEb+T5Y4NHdlrZrL+mwD215XvG2kjrVo77Y733bxF7KhwWRL2mTq7R8GWixHg0k4nzdZz1a/AyALVTfjlMXpUjgm4rSFn8b2PMULP4mkeY4WsV+IE3RLqWSL2nZS8uXgRbr0UAiztd91qPFGwCr5h7Fn+PUV3Upf1Lvf1KogH28L0dagZKMS+pL2lEPL71UY9aj8JwYPnPsejRuA2DvLP3C8Jl8HyTwRZ1lliUe9tn+HGkFSjIuqS9pRz289FKNWY/Cc2L4zLHr0bgNgJ30C8Xdw2fzfSOB2/XoXzU6I68Hn5hXc7Ns7UlZtnp8o8mX8S4xby0pXxa7sB4tFmn288T1aPGbAIeLtTchPa6wv+DGMb/AS3roGQp7k1ypx3Z17KBSO9eTfpnxwT1pS9tmkC9tBWefX1K+jOst69E4ldm3TV2PJj0DYMX+Q7FaUeKb2Kx/KQ6z+qyi5MU/hRtlIoAAAtMEWI+m6Yy/b+Z6NG0DYEXep7hlfNncOkbgBt1mf++99GNb6R3sQf/+3YM2xGoC+RJLcnI5JeXLpF6yHk2SGX97lPXInuq117NtN0FMNnhAPgcqajgeUifJhbQGvy0okciXtLli12JJ+TIt9VmP5suludajWc8A2EDsUFyq+IP9wDFW4Pe69XLF62PvLe/GjeV1qXc9Ksm4pL70LlF2N6gWY9aj2RmYZD06RvU+o+B/fqMGT8vkqNljUtQjzicPkl8HJf1aF/kyOmekmENLypd5JkvWo/E5lXQ9sk+cst1FigTOscyHZVHb4m8X51KFffxojmOWQ5u3yHaeZ+f0sCwO8iXttVJavsyb1KxHo3nVyXq0TKNzvyKHiTRlG38pg8PnzdQCH7eWHEh2DXyFfElmm3JO8Cq7xHyZ9xJgPdq1Fne6Hh2g0Vmn2KnwSnqveu2TqW5W1P578PY76n+rcPxT593fZXqIorSDfEkzV5aaL03yn/XIaT26RKP0L0XqSbEv5duv2qxskpmFP3aV+mcbor6MT+7tMMvLCs4Z8iXutVJ6vjS9FFiPmopFePyxKuNWRekLwQb18YQIXqUVca06lPvC25f2X1NacozpD/kS73qpIV/GpNDUm1iPpvKku/NCFf2Eoi+Taax2PK4+XZCOLfuS7c1qdypieddazh0yNMvSD/IlzrVSS76EXg+sR6FyLc6zi9uehvmdIveJ/DH1YbViqYJjuoD9TYl1itKfBUqR02Z2vaKGxV/dXDjIl/D5scZ8GeRN06+sR03FIj3eLvCLFD9SvKpIMXGmKPMVtfU2xUcV1geOZgL2/ojNihRjU2KZf5NVya/5z8oe8qXZtVJ7vszKp0n3sx5NkungdvtVuTUK2wxsUfRtIn9ebbpdYf/bP0zB0U7A3u39NUUfx7ovuWc2X1WYVe0H+TJ7TiRf4l0lrEdDlh7/yz1d9Z+leJfiFMVJChuUIxX2O52xf73OPjryZYW9g3+bYpPCPi3Jwj444UkFR3wBe/rNPp1sxe6vNs7LFbHHV0X2+rD826r4q2KjYr3iIYU9lcuxV4B82WVBvuzNiS6+Yz3qQpk6EEAAAQQQQAABBBBAAAEEEEAAAQQQQAABBBBAAAEEEEAAAQQQQAABBBBAAAEEEEAAAQQQQAABBBBAAAEEEEAAAQQQQAABBBBAAAEEEEAAAQQQQAABBBBAAAEEEEAAAQQQQAABBBBAAAEEEEAAAQQQQAABBBBAAAEEEEAAAQQQQAABBBBAAAEEEEAAAQQQQAABBBBAAAEEEEAAAQQQQAABBBBAAAEEEEAAAQQQQAABBBBAAAEEEEAAAQQQQAABBBBAAAEEEEAAAQQQQAABBBBAAAEEEEAAAQQQQAABBBBAAAEEEEAAAQQQQAABBBBAAAEEEEAAAQQQQAABBBBAAAEEEEAAAQQQQAABBBBAAAEEEEAAAQQQQAABBBBAAAEEEEAAAQQQQAABBBBAAAEEEEAAAQRKEtivQWeW6rHnKlYozlGcqFiuOFDhcbyuSrcqNik2KtYrHlTsVHCUIWD5eYbibMUpilMVJyuWKY7c/TV2/u1Qua8oLLfs618UzyieVjyseELxpoKjfwLkS//GJFWLWI9SyS4q9xD9fKXiRYVNfH2OF9S+tQprM0eeAkeo2Z9T3KWw8exbvlmb7lR8RmFt5fAVIF98/buu3eZ21qOO1K9QPc8p+jYJz2rPZrV5VUdGVNNewP7n9gmFLayvKWaNb1/uf1VtvUNxkcL6wNGNAPnSjXPfamE96mhE7AJbp3hD0ZfJtmk7rO3XK/ZXcPRTwMbmEoU9td50fPv2+D+qD6sV9tQkRxoB8iWNa99LZT3qcITsIrtL0bcJNrQ99r9KNgEdJtCcVdn/mp9ShI5rX897Un36yJwGPGx+AfJlfquSHsl61PFoXqf6+jq5hrbrWx0bUt1kgeN0162K0LHM5bwN6uM7JjNwz5wC5MucUIU+jPWow4G111hymWCbtNNeDljZoSNVjRdYoZtfUjQZu5wfu019/eR4Cm6dQ4B8mQOp4IewHnU4uPbuys2KnCfcaW23NzMe2qEnVe0VeIu+vVlhG7FpY1Tqfd9Xvw9ScMwnQL6QL6xH810r0R51lUoqdQIe9GttNC0KmlfAfl//N4rBGNT69dcy4NcGZ2cN+bLrWqk9X1iPZl8r0R5h71zO4ff82y4eW9RP3qUdLW1mFnSMHvGIou24lXL+47I4fqZavQ8gX0avlVrzhfWo4zngg6qvlEl2Vj/O69i21uqOVcftU/RmjUdt99unCh5da1JM6Tf5Mv5aqTFfPljRvOG6Hg1+Pc7ebFPLUVNfvcb0cFX8M8XJXg3ocb3vVNseUNhT3Ry7BMiXyZlQY77UNEe79nWwAThncv4Vd09NffUYPHsDl/0K3JkelWdS57vVznsVvDFwyRLyZXbS1pYvNc3RvehrDa//D55qtvcBcKQT+J6KHljzdbrFjemGIZuSyZfpOTJ8DdWSL6xHHV++2yuatP/XsW1N1dnH+tb6q37DE/W835vVZTUlyKK+ki/zL/6WU7XkC+vRogsl1Y/2Gct2GHhNT0cO+r3Qef6JIvB2lWLvWua17WacW/Vw+5PH/2x2WvaPJl/ChrCGfGE9CsuNxmcN3gNgn1jGgUAbgZt0Mot/c8HlOuWG5qdlfwb5EjaENeQL61FYbgSf9ZDOnPdpyxIeFwzFiWMFPlZZ/qS4Bi4cK1vmjeRL+/m25HxhPerouh88A7Cxo/qopjwB+9COW8rrVuc9MsPB9dh55R1WSL7EwS45X1iP4uTIzFIGE876mY/kAQiMF7A/dnPq+Lu4tYHAaXrs5Q0en+tDyZc4I1dyvrAexcmRmaUM3gxnu3J7E9JRM88o4wGDfpfRG79emOOjivf4NaGomh9Tb85U2EsMJR7kS9xRLTVfWI/i5snE0gbPAOzUI7478VHcgcB4gY/rZhb/8TYht75XJ9nr46Ue5EvckS01X1iP4ubJxNIGGwB7gL2mtHniI7kDgX0F1ux7E7e0FFjd8vw+n76mz43LtG2l5gvrUQcJufip8FWq827F4ts7aEqnVZTevy4wj1Alzyvs73ZzxBN4TUUdq9gWr8helES+pBmGUvPFtFiP0uTMnlKHnwGwG+9RXLfnXr5BYLLASt3F4j/ZJ/QeM7009OQen0e+pBmcUvPFtFiP0uTMnlIXbwDsjm8o7trzCL5BYLzAReNv5tYIAiXaltinCEMdpYiSbVmPoqRIs0LsKfJ1Cvvs6RQfeuJdprrF0ULA8sP+qJL3OJZa/wuyLellKvIl7bVSWr4snppYjxaLdPSzPW1nbwwsbaLtiK/YauzPk5aWE33rz+kFZQ/5kv56KSlfJqU+69EkmcDbx70EMFzUj/XDKYq1CttlciBgAmfDkFzgrOQ1dFcB+ZLeuqR8maTFejRJJvD2WRsAK9b+fO53FMcpzlfYHy55UGEbgh0KjvoETq2vy533uCTjkvrSeSLMWWEtxqxHcyZEDg/zeto1B5s+t/FeNc5r7Kzenyo+pHirIvZhZV6g2KDw7KO9A7qUg3xJn0sl5YtX3ntd7179da8XcPchCGqAfQSp19hdFdTisJOuduznI2FN7uVZ5Ev666WkfPFKYq85zau/7vUC7j4EQQ14Vmd5jJ39z7/rw+uZgE1ddzRhfc+qbPIlrUFJ+ZIwFacW7ZGjVqfbMc97ANwaR8W9FVjm1LIbHeq9yaFOq/Iwp3pTVEu+pFAdLbOkfBntGT8lE/D+XWOv3Y93v5MNaEcFb1c9B3VU13A1Nsm9PHxDB99bnf/poJ7FVZjxwYtvzPRn8iX9wJWUL+m1xtdQ3XrkvRBWBz4+77K7tbZxq62/sROyNr/a+hs7X7zKq27ceAnAK9WoFwEEEEAAAUcBNgCO+FSNAAIIIICAlwAbAC956kUAAQQQQMBRgA2AIz5VI4AAAggg4CXABsBLnnoRQAABBBBwFGAD4IhP1QgggAACCHgJsAHwkqdeBBBAAAEEHAXYADjiUzUCCCCAAAJeAmwAvOSpFwEEEEAAAUcBNgCO+FSNAAIIIICAlwAbAC956kUAAQQQQMBRgA2AIz5VI4AAAggg4CXABsBLnnoRQAABBBBwFGAD4IhP1QgggAACCHgJsAHwkqdeBBBAAAEEHAXYADjiUzUCCCCAAAJeAmwAvOSpFwEEEEAAAUcBNgCO+FSNAAIIIICAlwAbAC956kUAAQQQQMBRgA2AIz5VI4AAAggg4CXABsBLnnoRQAABBBBwFGAD4IhP1QgggAACCHgJsAHwkqdeBBBAAAEEHAXYADjiUzUCCCCAAAJeAmwAvOSpFwEEEEAAAUcBNgCO+FSNAAIIIICAlwAbAC956kUAAQQQQMBRgA2AIz5VI4AAAggg4CXABsBLnnoRQAABBBBwFGAD4IhP1QgggAACCHgJsAHwkqdeBBBAAAEEHAXYADjiUzUCCCCAAAJeAmwAvOSpFwEEEEAAAUcBNgCO+FSNAAIIIICAlwAbAC956kUAAQQQQMBRgA2AIz5VI4AAAggg4CXABsBLnnoRQAABBBBwFGAD4IhP1QgggAACCHgJsAHwkqdeBBBAAAEEHAXYADjiUzUCCCCAAAJeAmwAvOSpFwEEEEAAAUcBNgCO+FSNAAIIIICAlwAbAC956kUAAQQQQMBRgA2AIz5VI4AAAggg4CXABsBLnnoRQAABBBBwFGAD4IhP1QgggAACCHgJsAHwkqdeBBBAAAEEHAXYADjiUzUCCCCAAAJeAmwAvOSpFwEEEEAAAUcBNgCO+FSNAAIIIICAlwAbAC956kUAAQQQQMBRgA2AIz5VI4AAAggg4CXABsBLnnoRQAABBBBwFGAD4IhP1QgggAACCHgJsAHwkqdeBBBAAAEEHAXYADjiUzUCCCCAAAJeAmwAvOSpFwEEEEAAAUcBNgCO+FSNAAIIIICAlwAbAC956kUAAQQQQMBRgA2AIz5VI4AAAggg4CXABsBLnnoRQAABBBBwFGAD4IhP1QgggAACCHgJsAHwkqdeBBBAAAEEHAXYADjiUzUCCCCAAAJeAmwAvOSpFwEEEEAAAUcBNgCO+FSNAAIIIICAlwAbAC956kUAAQQQQMBRgA2AIz5VI4AAAggg4CXABsBLnnoRQAABBBBwFGAD4IhP1QgggAACCHgJsAHwkqdeBBBAAAEEHAXYADjiUzUCCCCAAAJeAmwAvOSpFwEEEEAAAUcBNgCO+FSNAAIIIICAlwAbAC956kUAAQQQQMBRgA2AIz5VI4AAAggg4CXABsBLnnoRQAABBBBwFGAD4IhP1QgggAACCHgJsAHwkqdeBBBAAAEEHAXYADjiZ1z1Dqe2L3Oo93CHOq3K7U71pqiWfEmhOlpmSfky2jN+SibABiAZbdEF/9epd+93qPdshzqtSi/jFN316gv5kmI0KbMYATYAxQxlpx15udPa9lb25b3fdvadR53WOa9FMwUs+ZJCdbTMkvJltGf8lEyADUAy2qIL3ubUu4tV79Ud1v111fV/HdY3XJWX8XAbYn3v1RfyJdYIUg4CCQTeVJkekaArVRV5r9O4DXJlg+r/sCLFewKsTCv7PsWgPo+v96j+Ug7yJX0ulZQvXnnvcZ1bnW7HAQ1qXqrHnqtYoThHcaJiueJARW5HG/TX1dmtik2KjYr1igcVOxW1HE87d/Ri1W9R8vFUQZ0jX9IPZkn5Mo8W69EupeTr0SGq50rFiwqvHVLf631BNmsVZlXDsUad7PuY5N6+TxeUSORL+uulpHyZlvqsR7NzKdp6dIVG4jlF7pNpV+3fLKtV07K3kPvOICeSXxOnFZIr1g3yJf0cWlK+TEp91qNmeRS8Hu2nEVineEPR1eJZSj1mdr1if0Wph+XHFkUpY9a3fpitGZdykC9pr5XS8mVx3rMehedP4/XIFq67FH2bFHNrz50yLHkTYP3LbUxyae9tsi3tIF/SXS8l5ssg/1mP4uTN2PVo3AJ1reTtqRaOdgKf0unXtCui12ff3+vW5d24n+fd/LGtJ1/GskS5scR8GcCwHg0k2n2daz2yhT+X/yXl0E57+mVlu3Hr7dn2EbmvKHIYh5zaaKaH9XbUwxtGvqS5VkrNF8s01qO4OTN1PbJ3V25W5DRZ5tBWexPloYoSjzvUqRzGIKc2lvx0LvkS/3opNV9Yj+Lnis2DI+vR8EsAX9KdJ5S4Sjn36XjV/3nnNqSq/gepCq643B8W3HfyJf7glpovrEfxc8VKHFmP7N2VdtiHKjyveJv9wBFdwH4v0+BL+7Agy5+HFe9TcLQXeFRFmKXt1Es8yJe4o1pqvrAexc2TxaXtWY8GzwCcp0ew+C9mivfz0SrqA/GK601JtlB9uzetyb8h31QXSl38bXTIl7g5Wmq+sB7FzZPFpe1ZjwYbAPt4X460AqUa3yO2P6elq6L0P6mXP6mgp+RLnEEuOV9KnSvjjHycUhaMBxsA+2x/jrQCpRrbO0u/kJauitK/qF6aZekH+RJnhEvOl1LnyjgjH6eUBePBBuDEOGVSyhSBk6bcl/tdv1AH7s69E47tv111/8qx/q6rJl/aiZeeL6xH7fJjnrMX1qPBmwC364yD5jmLxwQLmPHBwWf3/0R7k+PjCvsLkRzzC7ykh56hsDfh1nSQL2GjXUO+sB6F5UaTsxbWo8EzAE1O5LEIjBP4h25crSj5TWzj+t3mNrP6rKK2xd/MyBdTaHbUnC/NpHj0XAKDDcC2uR7Ng9oI/LvNyZmce5/aeUsmbe1DM29QI9b3oSFObSBfmsHXki+sR83yIuTRI+vRQyrBdpdEOoPfhoxShufYS0n2eja5NN3gARkdmOH4xm4y+TI9TwbXUU35wno0X04MciPk68J6NHgGYGPsq5ry9hGoxXiHen6p4g/7CHDDQOD3+uZyxeuDGyr+Sr7MHvza8qWWuXL2yKd7xIjx+aonZBfBOfO71farLccop54hr/a5rp6WyVEKjlEB8mX8XFJjvrAejc+FmOvtyHq0VNeifTxgzAooa6/nFtkOnm0ZnfbK/sk+ccr+90Iu7DJ4WBYs/pNznnwZvVZqzRfWo9E8iD1/jl2P1jJRJ1uovjJ5ziv+nmXq4f3k1pJfyuDw4ke7fQfJl12Tf+35wnqUbhMwdj2y31H/myL2bqP28v4u00Paz4tZl3CAWr9OsVNRWz7YJ9/drOBzNoQw50G+kC+sR2nmyqnr0SpdoDZh1TZJp+qvWV4256RXw8MuUSf/pUjl3bdy7VdtVtYwsIn6SL4kgs2kWNajuHPlXOvRtUqOvk2kubbnmkwutC6beawqu1VR+kZzg/p4QpewhdZFvhQ6sHN2i/Uo3no813pkb1a7U5HrotuXdt8hQ7PkGC9woW5+QtGX8YrVjsfVpwvGd5lbWwiQLy3wMj6V9SjOHNloPbK/EbBOUfr/0mJN+sPlmNn1ChZ/Icw4zMie5v2dYtgwx+8fUx9WK5YqONIIkC9pXPteKutR+PzYaj2y1y83K3KckD3abG+i5DX/5tOJXeAXKX6keFXhMXYhdb6itt6m+KjC+sDRjQD50o1z32phPWo2N0ZZj+zdmF9TbFGETJI1nGM2X1WYFUc7AftVuTUK2wz0MeeeV7tuV9j/9g9TcPgKkC++/l3XbnMs69H0tXju9ajJ/1rs6Tf79KAVu7+epK/LFbX9etMO9Xmr4q+KjYr1iocU9lQLR3yB01XkWYp3KU5RWN7ZpH+kwn5nPHb+2fi+rLB38G9TbFLYp7FZ2AezPKng6K8A+dLfsYnZMtajXZqsRzGzirIQQAABBBBAAAEEEEAAAQQQQAABBBBAAAEEEEAAAQQQQAABBBBAAAEEEEAAAQQQQAABBBBAAAEEEEAAAQQQQAABBBBAAAEEEEAAAQQQQAABBBBAAAEEEEAAAQQQQAABBBBAAAEEEEAAAQQQQAABBBBAAAEEEEAAAQQQQAABBBBAAAEEEEAAAQQQQAABBBBAAAEEEEAAAQQQQAABBBBAAAEEEEAAAQQQQAABBBBAAAEEEEAAAQQQQAABBBBAAAEEEEAAAQQQQAABBBBAAAEEEEAAAQQQQAABBBBAAAEEEEAAAQQQQAABBBBAAAEEEEAAAQQQQAABBBBAAAEEEEAAAQQQQAABBBBAAAEEEEAAAQQQQAABBBBAAAEEEEAAAQQQQAABBBBAAAEEEEAAAQQQQAABBOYR2G+eB+1+zFJ9PVexQnGO4kTFcsWBCo/jdVW6VbFJsVGxXvGgYqeCowwBy88zFGcrTlGcqjhZsUxx5O6vsfNvh8p9RWG5ZV//onhG8bTiYcUTijcVHHEFmF/ielLabAHml9lGSw7RY65UvKiwia/P8YLat1ZhbebIU+AINftzirsUNp59yzdr052KzyisrRztBOxaZX5pZ8jZ8wswv8xvteQKPfY5Rd8m4Vnt2aw2r2rQTx7qK2A78U8obGF9TTFrfPty/6tq6x2KixTWB45mAswvzbx4dJgA80tDNwNbp3hD0ZfJtmk7rO3XK/ZXcPRTwMbmEoU9td50fPv2+D+qD6sV9lQ2x3QB5pfpPtwbR4D5JcDR0O5S9G2CDW2P/a+STUBAIiQ+xf7X/JQidFz7et6T6tNHEtvlXDzzS86jl0/bmV8Cx+o6ndfXyTW0Xd8KtOC0+ALHqchbFaFjmct5G9THd8Tny75E5pfsh7DXHWB+aTE89ppcLhNsk3baywErW7hwahyBFSrmJUWTscv5sdvU10/GoSuiFOaXIoaxt51gfmkxNPZu3M2KnCfcaW23NzMe2sKHU8MF3qJTb1bYRmzaGJV63/fV74MUNR/MLzWPftq+M79EmF+u0hiVOgEP+rU2bR5S+hgB+3393ygGY1Dr11/LoOZfG2R+GXNxcFNrAeaXXXNrq/nF3rmcw+/5t108tqifvEu79TU3dwHH6JGPKNqOWynnPy6L4+fWK+eBzC/ljGWfesL8Mjq3Bs8vH9SoljLJzurHeX3K4ILbcqz6Zp+iN2s8arvfPlXw6ILHfVzXPlhRHjC/jMuA+Lcxv4yfWxvNL4Nfj7M3T9Ry1NRXrzE9XBX/THGyVwN6XO871bYHFPbUZS1HTddcTX31yl/ml8nyjeaXwQbgnMnlFXdPTX31GDx7Q479CtyZHpVnUue71c57FbW8MbCma66mvnpcbswvs9Ubzy81vP4/eKrZ3gfAkU7geyp6YM3X6RY3phuGXpXM/NKr4ci6Mcwv0+eU4Tl37vllu1Ji+MSSv/9f1unf78bbx/rW+qt+IdeMWV3W7yGN0jrmlyiM1RfC/NJsnZ45v9hnctthF2gtT0dafwf9tu854gi8XcXYu1Brem07htxWFWJ/8vifMQrraRnMLz0dmIyaxfwSNlhT55fBewDsE8s4EGgjcJNOZvFvLrhcp9zQ/LSszmB+yWq4etlY5pewYZlrfnlIZYc8hZnrOWGUnDVJ4GOV5U+KvL9wEm4BtzO/FDCIjl1gfmm/Po+dXwbPAGx0HFyqzlvAPuTllry70IvWm+HgeuxFgyI2gvklImZlRTG/xBnwsfPLYMJZH6cOSqlQwP7YzakV9jt2l09TgZfHLrQn5TG/9GQgMmwG80ucQRs7vwzeDGe7LHsT0lFx6up9KYN+976hPW+gOT6qeE/P25lL8x5TQ89U2EsMJR3MLyWNZnd9YX6Ja73P/DJ4BmCn6vlu3LoorQKBj6uPLP7xBvq9Kspe7yztYH4pbUS76Q/zS1znfeaXwQbAqrHXCDbHrY/SChdYU3j/PLq32qPSDupkfukAubAq1hTWnz50Z2R+WfxU+Cq18G7F4tv70PCYbSi9fzGtJpV1hO54XmF/550jnsBrKupYxbZ4RfamJOaX3gxF7xvC/JJmiEbml+FnAKy6exTXpamXUgsTWKn+sPjHH1QzvTR+sb0okfmlF8OQRSOYX9IM08j8sngDYFV+Q3FXmroptSCBiwrqS9+6UrIt80vfsq2f7Sn5GvAWn2lrT5GvU9hnCaf40BPvMtUtjhYClh/2R5W8x7HU+l+QbckvUzG/tLj4KjiV+SXt3Dr3/GJPw9gbA0ubaCu4hpJ20f7cZGk50bf+nJ50BPtROPNLP8ahb61gfkk/vy7ML+NeAhhOhh/rh1MUaxW2a+BAwATOhiG5wFnJa/CvgPnFfwz62ALml/SjsjC/zNoAWDPsz+d+R3Gc4nyF/eGSBxW2Idih4KhP4NT6utx5j2sxZn7pPLV6X2Etue85EL0w9nra1RO+hLrvVSe8xs7q/aniQ4q3KmIfVuYFig0Kzz7aO+Y52gl4jV+7VnM280v6uacX8wsXaJ4Xu32kpNfYXdUh2dWO/Xykw36WWpVXjpbq2VW/mF/Sz6+9mF+4QLu6pOLW86yK8xg7+59/14fXMwGbuu5ogfV55KjVydFO4Fmd7jF21c0v87wHoN1QcnaJAsucOnWjQ703OdRpVR7mVC/VIuAtwPySfgQW5hfv3zX22i179zv98KatYbuKPyhtFWNLt6R9eew96W60Ov+TrviJJZvxwRPv5Y55BJhf5lHq32OYX9KPycL84r0QcoGmH+gUNdQ2brX1N0XOeJTJuHmot6+ztnFz6y8vAbRPVkpAAAEEEEAgOwE2ANkNGQ1GAAEEEECgvQAbgPaGlIAAAggggEB2AmwAshsyGowAAggggEB7ATYA7Q0pAQEEEEAAgewE2ABkN2Q0GAEEEEAAgfYCbADaG1ICAggggAAC2QmwAchuyGgwAggggAAC7QXYALQ3pAQEEEAAAQSyE2ADkN2Q0WAEEEAAAQTaC7ABaG9ICQgggAACCGQnwAYguyGjwQgggAACCLQXYAPQ3pASEEAAAQQQyE6ADUB2Q0aDEUAAAQQQaC/ABqC9ISUggAACCCCQnQAbgOyGjAYjgAACCCDQXoANQHtDSkAAAQQQQCA7ATYA2Q0ZDUYAAQQQQKC9ABuA9oaUgAACCCCAQHYCbACyGzIajAACCCCAQHsBNgDtDSkBAQQQQACB7ATYAGQ3ZDQYAQQQQACB9gJsANobUgICCCCAAALZCbAByG7IaDACCCCAAALtBdgAtDekBAQQQAABBLITYAOQ3ZDRYAQQQAABBNoLsAFob0gJCCCAAAIIZCfABiC7IaPBCCCAAAIItBdgA9DekBIQQAABBBDIToANQHZDRoMRQAABBBBoL8AGoL0hJSCAAAIIIJCdABuA7IaMBiOAAAIIINBegA1Ae0NKQAABBBBAIDsBNgDZDRkNRgABBBBAoL0AG4D2hpSAAAIIIIBAdgJsALIbMhqMAAIIIIBAewE2AO0NKQEBBBBAAIHsBNgAZDdkNBgBBBBAAIH2AmwA2htSAgIIIIAAAtkJsAHIbshoMAIIIIAAAu0F2AC0N6QEBBBAAAEEshNgA5DdkNFgBBBAAAEE2guwAWhvSAkIIIAAAghkJ8AGILsho8EIIIAAAgi0F2AD0N6QEhBAAAEEEMhOgA1AdkNGgxFAAAEEEGgvwAagvSElIIAAAgggkJ0AG4DshowGI4AAAggg0F6ADUB7Q0pAAAEEEEAgOwE2ANkNGQ1GAAEEEECgvQAbgPaGlIAAAggggEB2AmwAshsyGowAAggggEB7ATYA7Q0pAQEEEEAAgewE2ABkN2Q0GAEEEEAAgfYCbADaG1ICAggggAAC2QmwAchuyGgwAggggAAC7QXYALQ3pAQEEEAAAQSyE2ADkN2Q0WAEEEAAAQTaC7ABaG9ICQgggAACCGQnwAYguyGjwQgggAACCLQXYAPQ3pASEEAAAQQQyE6ADUB2Q0aDEUAAAQQQaC/ABqC9ISUggAACCCCQnQAbgOyGjAYjgAACCCDQXoANQHtDSkAAAQQQQCA7ATYA2Q0ZDUYAAQQQQKC9ABuA9oaUgAACCCCAQHYCbACyGzIajAACCCCAQHsBNgDtDSkBAQQQQACB7ATYAGQ3ZDQYAQQQQACB9gJsANobUgICCCCAAALZCbAByG7IaDACCCCAAALtBdgAtDekBAQQQAABBLITYAOQ3ZDRYAQQQAABBNoLsAFob0gJCCCAAAIIZCfABiC7IaPBCCCAAAIItBdgA9DekBIQQAABBBDIToANQHZDRoMRQAABBBBoL8AGoL0hJSCAAAIIIJCdABuA7IasFw3e4dSKZQ71Hu5Qp1W53aleqkXAW4D5Jf0ILMwvbADSQ5dYw3+dOvV+h3rPdqjTqvQyduou1SKwR8Ar96ubX9gA7Mk5vmkg8HKDx8Z86JdjFjZnWR51WtO8JsE5WXgYAskEmF+S0e4peGF+YQOwx4NvGghsa/DYmA+9WIVdHbPAGWV9Xff/34zHpLrbyzhVfygXgXkFvHKf+WXeEYr0uDdVjkdEan61xdzrNG6DXNmg+j+sSPGeACvTyr5PMajP4+s9qp+jnYDHuFmdHO0EmF/Szz0L88sBDcZpqR57rmKF4hzFiYrligMVuR1tLtLX1dmtik2KjYr1igcVOxW1HE87d/Ri1W9R8vFUyZ0b0zfml10ozC9LljC/jLlAIt809/xyiCq+UvGiwmtH3fd6X5DNWoVZ1XCsUSf7Pia5t+/TNSSS+sj8MvtaYn6ZbZT79d51++eaX67QBfock/3ci91mWa1SlH6coQ52nbC11Xda6Umk/jG/NLuOmF+aedU2ZzTp79T5ZT9dnOsUbyiaFMpjd5ldL7f9FaUelh9bFIx3GgOzNeNSD+aX8LyxOZn5JdyPOWvX3D1xfrGF6y4FUO0M7pRhyZsA6x85ksbgNtmWejC/xMkZ5pc4jjXOYXvml3EL1LWaeeypOY52Ap/S6de0K6LXZ9/f69bl3bif5938qa1nfpnKM/edzC9zU/HARQIT5xdb+GvcEaXqsz1dt3IRfik/2kfkvqJIZVdruWZ6WClJsqgfzC9xrxfml7ieNcw5E+cXezfuZkUNCF320d5EeeiiibCUH+8gX6JfL3uenislSXb3g/klzdzK/JLGtcs1osu6RuaX4ZcAvqQL9YTCJp0+dOd4NeLzfWhIgjb8IEGZtRf5w0IBmF/SDCzzSxrXUksdmV8G7wS0D+F4XvG2Unvt3C/7PV67UEv7sCDLn4cV71NwtBd4VEWYpf2PoKSD+SXtaDK/pPUtpfR95pfBMwDnqYcs/umG+WgV/YF0xbuVbAvVt91qL6/ib6pLpS3+NkrML2lzlfklrW8ppe8zvww2APbxvhxpBUo1vkdsf05LV0Xpf1Ivf1JoT0vN/T4NV6nGzC9xsmzs/DLYANhn+3OkFSjV2N6J/IW0dFWU/kX10ixLPErN/T6NVanGzC9xsmzs/DLYAJwYpw5KmSJw0pT7cr/rF+rA3bl3wrH9t6vuXznWn7pq5pfUwkuWML+kN861honzy+BNgNvVs4Ny7V0m7TbjgzNpa0gz7U2OjyvsL0RyzC/wkh56hsLehFvqwfySfmSZX9Ib51jD1Pll8AxAjh2jzf0S+Ieas1pR4pvYUkmb1WcVJS/+qewoty4B5pfm4z1zfhlsALY1L5szGgr8u+Hjc3z4fWr0LTk23KnNN6je9U51d1kt80t6beaX9Ma51TD3/PKQema7BSKdwW9zy57A9tpLSfZ6Nrk03eABGR0YaJzbacwv03MhxrXC/JLeOMY4dVXGXPPL4BmAjbnNKBm2txbjHRqbSxV/yHCMumry71XR5YrXu6rQuZ5act+TuRZj5pfZWdZ4fjlfZXa1M6m1nlJ/TWdSOh6jO54hr/a5rp6WyVGT0Aq9nfkl/fzK/JLeOIe1K2h+WaqJxz5OMocO5tjGLbIdPNtS6Bw/tlv2CWW2G81xzFK0+WFZ1Lb4W2Iwv6S9Bphf0vqmmAtSlNlqflnLRJ1sofqKzYKVHsvU7/sVKRI+pzJ/KYPDK80B6zbzS7prgPklnW0uc0zr+cV+R/1vilw6nEs7/y7TQxQ1Hweo8+sUOxW5jFusdtonmd2sqP1zNphf0uQ+88uSJcwvkeaXVZqobMKKNfnVXo5ZXqbg2CVwib78S1FLXtivZq3c1XX+lQDzS9zcZ34ZvayYX0Y9gn66VmfVMkGn7uc1QSNQ9knHqnu3KkrfaG5QH08oeyiDesf8Em9+ZX7ZNwWZX/Y1aXSLvVntTkXqxbH08u+QoVlyjBe4UDc/oSgtDx5Xny4Y32VulQDzS5ycZ36Zfjkxv0z3mXqv/Y2AdYrS/5eWYvExs+sVLP5CmHGYkT1t9ztFirHosszH1IfViqUKjukCzC/h+c78Mj23hu9lfhnWCPjeXr/crOhyIs25LnsTJa/5N080WxAuUvxI8aoilxx4RW29TfFRhfWBo5kA80uzXGd+aZZfg0czvwwkAr7au3e/ptiiyGVi7rqdZvNVhVlxtBOwX5Vbo7DNQB9z7nm163aF/W//MAVHOwG7Zphfps+tzC/tcmz4bOaXIY0m/2uxp1Ps06ZW7P56kr4uV9T260071Oetir8qNirWKx5S2FNzHPEFTleRZynepThFYXlnF/GRCvuMgdj5Z+P7ssLewb9NsUlhn65lYR+08aSCI74A88suU+aX+Lk1rcSq55f/Bzo7Hl5adP49AAAAAElFTkSuQmCC;" vertex="1" parent="1">
          <mxGeometry x="621" y="460" width="35" height="35" as="geometry" />
        </mxCell>
        <mxCell id="Wn_DIbC_k09VwicD28QW-38" value="" style="image;aspect=fixed;perimeter=ellipsePerimeter;html=1;align=center;shadow=0;dashed=0;spacingTop=3;image=img/lib/active_directory/user_accounts.svg;" vertex="1" parent="1">
          <mxGeometry x="184.64" y="460" width="40.72" height="39.5" as="geometry" />
        </mxCell>
        <mxCell id="Wn_DIbC_k09VwicD28QW-39" value="" style="shadow=0;dashed=0;html=1;strokeColor=none;fillColor=#4495D1;labelPosition=center;verticalLabelPosition=bottom;verticalAlign=top;align=center;outlineConnect=0;shape=mxgraph.veeam.company_owner;" vertex="1" parent="1">
          <mxGeometry x="406" y="575" width="40" height="40" as="geometry" />
        </mxCell>
        <mxCell id="Wn_DIbC_k09VwicD28QW-41" value="" style="group" vertex="1" connectable="0" parent="1">
          <mxGeometry x="610" y="740" width="140" height="100" as="geometry" />
        </mxCell>
        <mxCell id="Wn_DIbC_k09VwicD28QW-43" value="" style="shape=image;verticalLabelPosition=bottom;labelBackgroundColor=default;verticalAlign=top;aspect=fixed;imageAspect=0;editableCssRules=.*;image=data:image/svg+xml,PHN2ZyB4bWxucz0iaHR0cDovL3d3dy53My5vcmcvMjAwMC9zdmciIGZpbGw9Im5vbmUiIHZpZXdCb3g9Ii0wLjAwMDAwMzgxNDY5NzI2NTYyNSA1Ljk2MDQ2NDQ3NzUzOTA2MmUtNyAyMzUuMDA1NzA2Nzg3MTA5MzggMzE0LjgzMTcyNjA3NDIxODc1IiBoZWlnaHQ9IjMxNC44MzE3MjYwNzQyMTg3NSIgd2lkdGg9IjIzNS4wMDU3MDY3ODcxMDkzOCI+JiN4YTs8cGF0aCBmaWxsPSJ3aGl0ZSIgZD0iTTE0Ny43NzggMC43MTQyMDRDMTE2LjU0NiAtMi45OTQ0MyAxMDYuMzQgNy41MDQ5OSAxMDguOTkxIDM3LjczMjRDMTM2LjQyNCA0MC40MTM0IDE1MC4yNjMgMjkuMDUyNCAxNDcuNzc4IDAuNzE0MjA0Wk0yMzQuNzIxIDAuOTQzMjc5QzIwMy40ODggLTIuNzY1MzYgMTkzLjI4MiA3LjczNDA2IDE5NS45MzMgMzcuOTYxNUMyMjMuMzY2IDQwLjY0MjUgMjM3LjIwNSAyOS4yODE1IDIzNC43MjEgMC45NDMyNzlaTTkzLjQ4MzcgMzAuNjA4OEM2Mi4yNTE0IDI2LjkwMDEgNTIuMDQ1NiAzNy4zOTk1IDU0LjY5NjEgNjcuNjI3QzgyLjEyOTQgNzAuMzA4IDk1Ljk2ODYgNTguOTQ2OSA5My40ODM3IDMwLjYwODhaTTM5LjE4ODggNjAuMjc0QzcuOTU2NjIgNTYuNTY1MyAtMi4yNDkyNiA2Ny4wNjQ3IDAuNDAxMzA4IDk3LjI5MjJDMjcuODM0NiA5OS45NzMyIDQxLjY3MzcgODguNjEyMiAzOS4xODg4IDYwLjI3NFpNMjExLjM4OCA3Mi40MTkzSDE3MC4wNEMxMzcuNzQgNzIuNDE5MyAxMDUuOTQyIDgwLjQwNDMgNzcuNDU3MSA5NS43MzJMMzcuODM0NSAxMTcuOTg0QzE1LjE5NzEgMTMzLjE3MiA3LjY1MTI3IDE0OC4zNiA3LjY1MTI3IDE3MS4xMTRWMjI0LjI0NUwyMy40MTEyIDIzNi4xNjdDMjIuOTkzNSAyMzQuNzcxIDIyLjc3MDcgMjMzLjMxOSAyMi43NDI5IDIzMS44MzlWMTc4LjcwOUMyMi43NDI5IDE0OC4zMzIgMzcuODM0NSAxMzMuMTcyIDUyLjkyNjIgMTMzLjE3MkM1Mi45MjYyIDEzMy4xNzIgMzcuODM0NSAxNDAuNzY2IDM3LjgzNDUgMTc4LjcwOVYyNDcuMDI3TDUzLjU5NDQgMjU4Ljk0OUM1My4xNzY4IDI1Ny41NTMgNTIuOTU0IDI1Ni4xMDEgNTIuOTI2MiAyNTQuNjIxVjIwMS40OTFDNTIuOTI2MiAxNzEuMTE0IDY4LjAxNzggMTU1Ljk1NCA4My4xMDk1IDE1NS45NTRDODMuMTA5NSAxNTUuOTU0IDY4LjAxNzggMTYzLjU0OCA2OC4wMTc4IDIwMS40OTFWMjY5LjgxTDgzLjc3NzcgMjgxLjczMUM4My4zNjAxIDI4MC4zMzUgODMuMTM3MyAyNzguODgzIDgzLjEwOTUgMjc3LjQwNFYyMjQuMjczQzgzLjEwOTUgMTkzLjg5NyA5OC4yMDExIDE3OC43MzYgMTEzLjI5MyAxNzguNzM2QzExMy4yOTMgMTc4LjczNiA5OC4yMDExIDE4Ni4zMzEgOTguMjAxMSAyMjQuMjczVjI5Mi41OTJMMTE0LjA0NSAzMDQuNTEzQzExMy41NzEgMzAzLjExOCAxMTMuMzIxIDMwMS42NjYgMTEzLjI5MyAzMDAuMTg2VjIzOC4zMTdDMTEyLjU0MSAyMDcuOTQgMTI2Ljc5NyAxOTYuMjcgMTUxLjY5IDIwMS40MzVDMTU2LjU5MSAyMDIuODAzIDE2MS43MTQgMjAzLjMwNiAxNjYuNzgyIDIwMi44ODdDMTY4Ljc4NyAyMDIuNjkxIDE3MC42OCAyMDEuNzcgMTcyLjA3MiAyMDAuMjlDMTczLjQ2NCAxOTguODExIDE3NC4yNzIgMTk2Ljg1NiAxNzQuMzI4IDE5NC44MThWMTg4LjUwOEMxNzQuMzU1IDE4Ny41NTkgMTc0LjA3NyAxODYuNjEgMTczLjUyIDE4NS44MjhDMTcyLjk2MyAxODUuMDQ2IDE3Mi4xNTYgMTg0LjQ4OCAxNzEuMjM3IDE4NC4yMzdMMTUxLjYwNyAxNzguNjgxQzE1Ni4yODQgMTczLjcxMSAxNjEuOTM3IDE2OS44MDIgMTY4LjIzIDE2Ny4xNzhDMTc0LjUyMiAxNjQuNTUzIDE4MS4yNjEgMTYzLjI5NyAxODguMDU1IDE2My40OTJIMjAzLjY3NUMyMDUuMDk2IDE2My40OTIgMjA1LjA5NiAxNjIuMDQxIDIwNC4zNDQgMTYwLjc1NkMyMDMuOTUxIDE2MC4wNDYgMjAzLjQ5MiAxNTkuMjE4IDIwMi45ODEgMTU4LjI5OEwyMDIuOTc2IDE1OC4yODlMMjAyLjk3NiAxNTguMjg4QzE5OS4wNyAxNTEuMjQ4IDE5Mi4xODEgMTM4LjgzIDE4OS4yNTIgMTMyLjU4NkMxODcuMTY0IDEyOC4wOTEgMTg2LjMyOCAxMjMuMTIxIDE4Ni44MyAxMTguMjA3QzE4Ny4zMzEgMTEzLjI2NSAxODkuMTEzIDEwOC41NzUgMTkyLjAzNyAxMDQuNTgyQzE5OC4zODUgOTYuOTg4NCAyMTAuMzg2IDk1LjE3MzYgMjE5LjY1OCA5NS4xNzM2Vjc5Ljk4NTVDMjE5LjY1OCA3OC45MjQ1IDIxOS40MzUgNzcuODYzNiAyMTkuMDE4IDc2Ljg4NjRDMjE4LjYgNzUuOTA5MiAyMTcuOTYgNzUuMDQzNyAyMTcuMTggNzQuMzE3OEMyMTYuNCA3My41OTE5IDIxNS40ODIgNzMuMDYxNSAyMTQuNDc5IDcyLjcyNjRDMjEzLjQ3NyA3Mi4zOTE0IDIxMi40MTkgNzIuMjc5NyAyMTEuMzYxIDcyLjM5MTRMMjExLjM4OCA3Mi40MTkzWk0xNTcuOTgzIDEyMy4yODhDMTUzLjQ0NCAxMjguNzYxIDE0Ny43NjQgMTMzLjE0NCAxNDEuMzYgMTM2LjE1OUMxMzQuOTU2IDEzOS4xNzUgMTI3LjkzOSAxNDAuNzM4IDEyMC44NjYgMTQwLjczOFYxMTcuOTU2SDk4LjIyODlDOTguMjI4OSAxMTEuOTI1IDEwMC42MjQgMTA2LjExOCAxMDQuODU2IDEwMS44NDZDMTA5LjA4OCA5Ny41NzQ3IDExNC44NTIgOTUuMTczNiAxMjAuODY2IDk1LjE3MzZIMTgxLjIzM0wxNTcuOTgzIDEyMy4yNjFWMTIzLjI4OFpNMTk2LjQxNyAxOTEuMTI5VjIwMC44MjhDMjA0LjE2NCAyMDAuODI4IDIxOS42NTcgMjA4LjQwOSAyMTkuNjU3IDIzOC43MzNWMTc4LjExM0wyMDEuNjc3IDE4My45MzhDMjAwLjEzMyAxODQuNDQgMTk4Ljc5IDE4NS40MTUgMTk3Ljg0NiAxODYuNjk3QzE5Ni45MDMgMTg3Ljk3OSAxOTYuMzg4IDE4OS41NCAxOTYuMzg4IDE5MS4xMjlIMTk2LjQxN1pNMTQ4LjgyMyAyMTQuNzk5QzE2Mi4xNTEgMjE2Ljk2NCAxNzUuNzAzIDIxNy42MDIgMTg5LjIgMjE2LjY4NkwxODkuMjU2IDIxNi43NDJDMjAxLjUxNiAyMTYuNzQyIDIwNC41NTMgMjIyLjA5NyAyMDQuMTAzIDI0Ni45MzFWMzEyLjQ5OEMxOTkuMTgyIDMxNC4xMDcgMTk0LjAzNiAzMTQuODg0IDE4OC44NjMgMzE0LjgyOVYyMzkuMzg0QzE4OC44NjMgMjM3LjM4NiAxODguMDc1IDIzNS40NzEgMTg2LjY0MSAyMzQuMDU2QzE4NS4yMDcgMjMyLjY0MSAxODMuMjY3IDIzMS44MzYgMTgxLjI0MyAyMzEuODM2SDE1MC43NjNMMTY5LjEyNCAyNTAuMDExQzE3MC41MyAyNTEuNDI2IDE3MS42NTQgMjUzLjA5MSAxNzIuNDQyIDI1NC45MjJDMTczLjIwMSAyNTYuNzUzIDE3My41OTUgMjU4LjcyMyAxNzMuNTk1IDI2MC43MjFWMzE0LjgwMUgxNTguMzU1VjI2NS41MjJDMTU4LjM1NSAyNjQuNDEyIDE1OC4xMDIgMjYzLjMwMiAxNTcuNjI0IDI2Mi4zMDNDMTU3LjE0NiAyNjEuMzA0IDE1Ni40NzEgMjYwLjQxNiAxNTUuNTk5IDI1OS42OTVMMTQzLjExNSAyNDkuMzczVjMxNC43NzNIMTI3Ljg3NVYyMzkuMzI4QzEyNy43OSAyMTQuNzk5IDEzOC43IDIxMi44MjkgMTQ4LjgyMyAyMTQuNzk5Wk0yMDUuNDM4IDEzNi4wODdDMjA1LjQzOCAxMzYuMDg3IDIxMy4zNjUgMTM3LjMwNSAyMTkuNjU4IDEzNC4yNkMyMTkuNjU4IDEzNS45MjcgMjE5LjY1MSAxMzguNDcgMjE5LjY0MyAxNDEuMzY0VjE0MS4zNzFDMjE5LjYyMyAxNDguNTUzIDIxOS41OTcgMTU3Ljg4OSAyMTkuNjU4IDE2MS4zNDZDMjE0LjY0NiAxNTMuMDExIDIwOS45MzIgMTQ0LjcxNSAyMDUuNDM4IDEzNi4wODdaIiBjbGlwLXJ1bGU9ImV2ZW5vZGQiIGZpbGwtcnVsZT0iZXZlbm9kZCIvPiYjeGE7PC9zdmc+;" vertex="1" parent="Wn_DIbC_k09VwicD28QW-41">
          <mxGeometry x="56.569999999999936" y="50" width="26.86" height="36" as="geometry" />
        </mxCell>
        <mxCell id="Wn_DIbC_k09VwicD28QW-47" value="" style="shape=image;verticalLabelPosition=bottom;labelBackgroundColor=default;verticalAlign=top;aspect=fixed;imageAspect=0;image=data:image/png,iVBORw0KGgoAAAANSUhEUgAABUYAAAQ4CAIAAABKfJEzAAAAAXNSR0IArs4c6QAAAERlWElmTU0AKgAAAAgAAYdpAAQAAAABAAAAGgAAAAAAA6ABAAMAAAABAAEAAKACAAQAAAABAAAFRqADAAQAAAABAAAEOAAAAABXrH1HAABAAElEQVR4AezdP9QU130/YJujFqFUKYJe1/ELaawUgCu5MKgyyTlCquQiQCVSGFRJKSyaX8CFUGOhwqgSKOcINxbKOZEqAUVIE4FcpDIiRToBrtHvK137ejS7Ozs7O7M7d/d5CzI7c+f+ee7kyJ+9M7Pf//rrr7/njwABAgQIECBAgAABAgQIEChNYE9pHdZfAgQIECBAgAABAgQIECBA4BsBkd51QIAAAQIECBAgQIAAAQIEihQQ6YucNp0mQIAAAQIECBAgQIAAAQIivWuAAAECBAgQIECAAAECBAgUKSDSFzltOk2AAAECBAgQIECAAAECBER61wABAgQIECBAgAABAgQIEChSQKQvctp0mgABAgQIECBAgAABAgQIiPSuAQIECBAgQIAAAQIECBAgUKSASF/ktOk0AQIECBAgQIAAAQIECBAQ6V0DBAgQIECAAAECBAgQIECgSAGRvshp02kCBAgQIECAAAECBAgQICDSuwYIECBAgAABAgQIECBAgECRAiJ9kdOm0wQIECBAgAABAgQIECBAQKR3DRAgQIAAAQIECBAgQIAAgSIFRPoip02nCRAgQIAAAQIECBAgQICASO8aIECAAAECBAgQIECAAAECRQqI9EVOm04TIECAAAECBAgQIECAAAGR3jVAgAABAgQIECBAgAABAgSKFBDpi5w2nSZAgAABAgQIECBAgAABAiK9a4AAAQIECBAgQIAAAQIECBQpINIXOW06TYAAAQIECBAgQIAAAQIERHrXAAECBAgQIECAAAECBAgQKFJApC9y2nSaAAECBAgQIECAAAECBAiI9K4BAgQIECBAgAABAgQIECBQpIBIX+S06TQBAgQIECBAgAABAgQIEBDpXQMECBAgQIAAAQIECBAgQKBIAZG+yGnTaQIECBAgQIAAAQIECBAgINK7BggQIECAAAECBAgQIECAQJECIn2R06bTBAgQIECAAAECBAgQIEBApHcNECBAgAABAgQIECBAgACBIgVE+iKnTacJECBAgAABAgQIECBAgIBI7xogQIAAAQIECBAgQIAAAQJFCoj0RU6bThMgQIAAAQIECBAgQIAAAZHeNUCAAAECBAgQIECAAAECBIoUEOmLnDadJkCAAAECBAgQIECAAAECIr1rgAABAgQIECBAgAABAgQIFCkg0hc5bTpNgAABAgQIECBAgAABAgREetcAAQIECBAgQIAAAQIECBAoUkCkL3LadJoAAQIECBAgQIAAAQIECIj0rgECBAgQIECAAAECBAgQIFCkgEhf5LTpNAECBAgQIECAAAECBAgQEOldAwQIECBAgAABAgQIECBAoEgBkb7IadNpAgQIECBAgAABAgQIECAg0rsGCBAgQIAAAQIECBAgQIBAkQIifZHTptMECBAgQIAAAQIECBAgQECkdw0QIECAAAECBAgQIECAAIEiBUT6IqdNpwkQIECAAAECBAgQIECAgEjvGiBAgAABAgQIECBAgAABAkUKiPRFTptOEyBAgAABAgQIECBAgAABkd41QIAAAQIECBAgQIAAAQIEihQQ6YucNp0mQIAAAQIECBAgQIAAAQIivWuAAAECBAgQIECAAAECBAgUKSDSFzltOk2AAAECBAgQIECAAAECBER61wABAgQIECBAgAABAgQIEChSQKQvctp0mgABAgQIECBAgAABAgQIiPSuAQIECBAgQIAAAQIECBAgUKSASF/ktOk0AQIECBAgQIAAAQIECBAQ6V0DBAgQIECAAAECBAgQIECgSAGRvshp02kCBAgQIECAAAECBAgQICDSuwYIECBAgAABAgQIECBAgECRAiJ9kdOm0wQIECBAgAABAgQIECBAQKR3DRAgQIAAAQIECBAgQIAAgSIFRPoip02nCRAgQIAAAQIECBAgQICASO8aIECAAAECBAgQIECAAAECRQqI9EVOm04TIECAAAECBAgQIECAAAGR3jVAgAABAgQIECBAgAABAgSKFBDpi5w2nSZAgAABAgQIECBAgAABAiK9a4AAAQIECBAgQIAAAQIECBQpINIXOW06TYAAAQIECBAgQIAAAQIERHrXAAECBAgQIECAAAECBAgQKFJApC9y2nSaAAECBAgQIECAAAECBAiI9K4BAgQIECBAgAABAgQIECBQpIBIX+S06TQBAgQIECBAgAABAgQIEBDpXQMECBAgQIAAAQIECBAgQKBIAZG+yGnTaQIECBAgQIAAAQIECBAgINK7BggQIECAAAECBAgQIECAQJECIn2R06bTBAgQIECAAAECBAgQIEBApHcNECBAgAABAgQIECBAgACBIgVE+iKnTacJECBAgAABAgQIECBAgIBI7xogQIAAAQIECBAgQIAAAQJFCoj0RU6bThMgQIAAAQIECBAgQIAAAZHeNUCAAAECBAgQIECAAAECBIoUEOmLnDadJkCAAAECBAgQIECAAAECIr1rgAABAgQIECBAgAABAgQIFCkg0hc5bTpNgAABAgQIECBAgAABAgREetcAAQIECBAgQIAAAQIECBAoUkCkL3LadJoAAQIECBAgQIAAAQIECIj0rgECBAgQIECAAAECBAgQIFCkgEhf5LTpNAECBAgQIECAAAECBAgQEOldAwQIECBAgAABAgQIECBAoEgBkb7IadNpAgQIECBAgAABAgQIECAg0rsGCBAgQIAAAQIECBAgQIBAkQIifZHTptMECBAgQIAAAQIECBAgQECkdw0QIECAAAECBAgQIECAAIEiBUT6IqdNpwkQIECAAAECBAgQIECAgEjvGiBAgAABAgQIECBAgAABAkUKiPRFTptOEyBAgAABAgQIECBAgAABkd41QIAAAQIECBAgQIAAAQIEihQQ6YucNp0mQIAAAQIECBAgQIAAAQIivWuAAAECBAgQIECAAAECBAgUKSDSFzltOk2AAAECBAgQIECAAAECBER61wABAgQIECBAgAABAgQIEChSQKQvctp0mgABAgQIECBAgAABAgQIiPSuAQIECBAgQIAAAQIECBAgUKSASF/ktOk0AQIECBAgQIAAAQIECBAQ6V0DBAgQIECAAAECBAgQIECgSAGRvshp02kCBAgQIECAAAECBAgQICDSuwYIECBAgAABAgQIECBAgECRAiJ9kdOm0wQIECBAgAABAgQIECBAQKR3DRAgQIAAAQIECBAgQIAAgSIFRPoip02nCRAgQIAAAQIECBAgQICASO8aIECAAAECBAgQIECAAAECRQqI9EVOm04TIECAAAECBAgQIECAAAGR3jVAgAABAgQIECBAgAABAgSKFBDpi5w2nSZAgAABAgQIECBAgAABAiK9a4AAAQIECBAgQIAAAQIECBQpINIXOW06TYAAAQIECBAgQIAAAQIERHrXAAECBAgQIECAAAECBAgQKFJApC9y2nSaAAECBAgQIECAAAECBAiI9K4BAgQIECBAgAABAgQIECBQpIBIX+S06TQBAgQIECBAgAABAgQIEBDpXQMECBAgQIAAAQIECBAgQKBIAZG+yGnTaQIECBAgQIAAAQIECBAgINK7BggQIECAAAECBAgQIECAQJECIn2R06bTBAgQIECAAAECBAgQIEBApHcNECBAgAABAgQIECBAgACBIgVE+iKnTacJECBAgAABAgQIECBAgIBI7xogQIAAAQIECBAgQIAAAQJFCoj0RU6bThMgQIAAAQIECBAgQIAAAZHeNUCAAAECBAgQIECAAAECBIoUEOmLnDadJkCAAAECBAgQIECAAAECIr1rgAABAgQIECBAgAABAgQIFCkg0hc5bTpNgAABAgQIECBAgAABAgREetcAAQIECBAgQIAAAQIECBAoUkCkL3LadJoAAQIECBAgQIAAAQIECIj0rgECBAgQIECAAAECBAgQIFCkgEhf5LTpNAECBAgQIECAAAECBAgQEOldAwQIECBAgAABAgQIECBAoEgBkb7IadNpAgQIECBAgAABAgQIECAg0rsGCBAgQIAAAQIECBAgQIBAkQIifZHTptMECBAgQIAAAQIECBAgQECkdw0QIECAAAECBAgQIECAAIEiBUT6IqdNpwkQIECAAAECBAgQIECAgEjvGiBAgAABAgQIECBAgAABAkUKiPRFTptOEyBAgAABAgQIECBAgAABkd41QIAAAQIECBAgQIAAAQIEihQQ6YucNp0mQIAAAQIECBAgQIAAAQIivWuAAAECBAgQIECAAAECBAgUKSDSFzltOk2AAAECBAgQIECAAAECBER61wABAgQIECBAgAABAgQIEChSQKQvctp0mgABAgQIECBAgAABAgQIiPSuAQIECBAgQIAAAQIECBAgUKSASF/ktOk0AQIECBAgQIAAAQIECBAQ6V0DBAgQIECAAAECBAgQIECgSAGRvshp02kCBAgQIECAAAECBAgQICDSuwYIECBAgAABAgQIECBAgECRAiJ9kdOm0wQIECBAgAABAgQIECBAQKR3DRAgQIAAAQIECBAgQIAAgSIFRPoip02nCRAgQIAAAQIECBAgQICASO8aIECAAAECBAgQIECAAAECRQqI9EVOm04TIECAAAECBAgQIECAAAGR3jVAgAABAgQIECBAgAABAgSKFBDpi5w2nSZAgAABAgQIECBAgAABAiK9a4AAAQIECBAgQIAAAQIECBQpINIXOW06TYAAAQIECBAgQIAAAQIERHrXAAECBAgQIECAAAECBAgQKFJApC9y2nSaAAECBAgQIECAAAECBAiI9K4BAgQIECBAgAABAgQIECBQpIBIX+S06TQBAgQIECBAgAABAgQIEBDpXQMECBAgQIAAAQIECBAgQKBIAZG+yGnTaQIECBAgQIAAAQIECBAgINK7BggQIECAAAECBAgQIECAQJECIn2R06bTBAgQIECAAAECBAgQIEBApHcNECBAgAABAgQIECBAgACBIgVE+iKnTacJECBAgAABAgQIECBAgIBI7xogQIAAAQIECBAgQIAAAQJFCoj0RU6bThMgQIAAAQIECBAgQIAAAZHeNUCAAAECBAgQIECAAAECBIoUEOmLnDadJkCAAAECBAgQIECAAAECIr1rgAABAgQIECBAgAABAgQIFCkg0hc5bTpNgAABAgQIECBAgAABAgREetcAAQIECBAgQIAAAQIECBAoUkCkL3LadJoAAQIECBAgQIAAAQIECIj0rgECBAgQIECAAAECBAgQIFCkgEhf5LTpNAECBAgQIECAAAECBAgQEOldAwQIECBAgAABAgQIECBAoEgBkb7IadNpAgQIECBAgAABAgQIECAg0rsGCBAgQIAAAQIECBAgQIBAkQIifZHTptMECBAgQIAAAQIECBAgQECkdw0QIECAAAECBAgQIECAAIEiBUT6IqdNpwkQIECAAAECBAgQIECAgEjvGiBAgAABAgQIECBAgAABAkUKiPRFTptOEyBAgAABAgQIECBAgAABkd41QIAAAQIECBAgQIAAAQIEihQQ6YucNp0mQIAAAQIECBAgQIAAAQIivWuAAAECBAgQIECAAAECBAgUKSDSFzltOk2AAAECBAgQIECAAAECBER61wABAgQIECBAgAABAgQIEChSQKQvctp0mgABAgQIECBAgAABAgQIiPSuAQIECBAgQIAAAQIECBAgUKSASF/ktOk0AQIECBAgQIAAAQIECBAQ6V0DBAgQIECAAAECBAgQIECgSAGRvshp02kCBAgQIECAAAECBAgQICDSuwYIECBAgAABAgQIECBAgECRAiJ9kdOm0wQIECBAgAABAgQIECBAQKR3DRAgQIAAAQIECBAgQIAAgSIFRPoip02nCRAgQIAAAQIECBAgQICASO8aIECAAAECBAgQIECAAAECRQqI9EVOm04TIECAAAECBAgQIECAAAGR3jVAgAABAgQIECBAgAABAgSKFBDpi5w2nSZAgAABAgQIECBAgAABAiK9a4AAAQIECBAgQIAAAQIECBQpINIXOW06TYAAAQIECBAgQIAAAQIERHrXAAECBAgQIECAAAECBAgQKFJApC9y2nSaAAECBAgQIECAAAECBAiI9K4BAgQIECBAgAABAgQIECBQpIBIX+S06TQBAgQIECBAgAABAgQIEBDpXQMECBAgQIAAAQIECBAgQKBIAZG+yGnTaQIECBAgQIAAAQIECBAgINK7BggQIECAAAECBAgQIECAQJECIn2R06bTBAgQIECAAAECBAgQIEBApHcNECBAgAABAgQIECBAgACBIgVE+iKnTacJECBAgAABAgQIECBAgIBI7xogQIAAAQIECBAgQIAAAQJFCoj0RU6bThMgQIAAAQIECBAgQIAAAZHeNUCAAAECBAgQIECAAAECBIoUEOmLnDadJkCAAAECBAgQIECAAAECIr1rgAABAgQIECBAgAABAgQIFCkg0hc5bTpNgAABAgQIECBAgAABAgREetcAAQIECBAgQIAAAQIECBAoUkCkL3LadJoAAQIECBAgQIAAAQIECIj0rgECBAgQIECAAAECBAgQIFCkgEhf5LTpNAECBAgQIECAAAECBAgQEOldAwQIECBAgAABAgQIECBAoEgBkb7IadNpAgQIECBAgAABAgQIECAg0rsGCBAgQIAAAQIECBAgQIBAkQIifZHTptMECBAgQIAAAQIECBAgQECkdw0QIECAAAECBAgQIECAAIEiBUT6IqdNpwkQIECAAAECBAgQIECAwFMICBAgQIAAAQKTAo8ePXr48GHa/+WXX8bG008/vW/fvrTn2WefnTyltufrr7/+/ve/X9tZ0MdF+5+UYoB5IyvljYKGr6sECBAgUITA9+M/V0V0VCcJECBAgACBgQQigt68efPevXsR4+/evRtJPofS5hYjqaawurOzs3///iNHjhw+fLj5lA04mpQ+//zzL7744v79+w8ePAix+IuhxVcY6X9Z5a8D8kYcje9EAip9MxJuIfbyyy/Hx2qZDfAxBAIECBBYpYBIv0ptbREgQIAAgVEIRIZ8/Pjx+++/f/v27QjzkVGr3cq5tLoztucmz4ipd+7cqZ21MR9v3bp149u/6vcds6xmjbpW/vr169vwJcgsDfsJECBAYHkBN94vb6gGAgQIECBQkkBE0wsXLsS/tXiZxxDRPW3XCsTHXGbqxtwCU88a+c64beHatWtXr16tffExtds1scky2TYdSmv7k8XsIUCAAAECLQVE+pZQihEgQIAAgZIE8op63ojeRy69ePFiXmSuxcvJ4aUCzTE1xfhUMtc8WVWJe/J3H5Odz6qxkbejWGxPFs57wurJkyd79uzJxUT6jGODAAECBLoJiPTd3JxFgAABAgRGLZCSdnQxbUQ6feONN2LBOXW6mkLnDiPnz6klq0er21MLl7IzFuTjRobLly/P6nDmjQLV7Vx+qnDauTFKebA2CBAgQGCNAiL9GvE1TYAAAQIEViHw+uuvv/vuuzl55o0h2o5H9Pfu3TtEzSurM77+OHPmTLrjIKyqCXxqUJ/asZbIG3Zfw1QKOwkQIEBgUAG/Sz8or8oJECBAgMA6BWK1+fjx45HnoxM5muaNhthZPRTb6a9ayaxRffXVV7MOFbE/VuZDLCftbJU6Hw4No8hH80YqXKukoQaHCBAgQIDAogJW6RcVU54AAQIECJQhELm0mk4nO90QNauHqtu1sDpZZ1l7YmjVEcWLBuJ++85DyFB5I1VVbaJz5U4kQIAAAQJTBUT6qSx2EiBAgACBUgVSnowb4JvzfC/DS22VG1mrPV8yz7f0jBargb/agZY1KEaAAAECBKoCIn1VwzYBAgQIECheIKXEV199Nd89PtyQNiaRxu/NL7M+3164luerH9tXoiQBAgQIEMgCnqXPFDYIECBAgMCGCMSC88cff7yWwTz77LNraXeZRuO7j/g5gGVq6HZu5Pl9+/Z1O9dZBAgQIEAgCYj0rgQCBAgQILBRAhFQV7PgvBlqkauD6/79+6sZTr6vIW2U/usAq0HTCgECBAg0CIj0DTgOESBAgACB8gTWmOefeeaZ4u4kv/btXwTs1fQ8t5I2Qqy8K0yPCRAgQGBMAiL9mGZDXwgQIECAwHIC8ZvqEVGXq6P72bHmnFeho5YcX7vXOPyZ8ZBCamSVqT7LuPF++BnWAgECBDZcQKTf8Ak2PAIECBDYKoEcUPOoqxk771x+IwXgWuW1B+lrR5dvtPcarl69Wn2J4Go6HK3khkT63udUhQQIENg2AZF+22bceAkQIEBgYwUind68ebM2vLwgXNu/5MdUba3y4gLqBx98EA45YNeGsyRRm9N3dnbaFFOGAAECBAjMEhDpZ8nYT4AAAQIEChNY8VP0OQlnpt3d3bw9/o38DUgk+TSWyRENMYrcSnwD4vV4QwirkwABAlslINJv1XQbLAECBAhsskA8SB/DW81S89RWDhw4UJDv5cuXc2+nDicf7Xcjt1XWNyD9IqiNAAECBPoSEOn7klQPAQIECBBYp8C9e/fSY+F5EXjQ3tRaSR9rz9IP2oHlK0/fgCxfT+cayvoGpPMwnUiAAAECgwqI9IPyqpwAAQIECKxCIBZ+J5+iX0XDf24jrTwXlFHj64+7d+/+ufvr+b8Fca0HSKsECBAg0EJApG+BpAgBAgQIEBi3QCySf/zxx9HHfFP30P2trdJHc4cPHx660R7rjzy/MqtZ3Xbj/SwZ+wkQIECgvYBI395KSQIECBAgMF6Bzz//PDo3mbQH6nHOw7nFstac46776HkexUBKDdXGQwpliTWMxSECBAgQWKOASL9GfE0TIECAAIF+BOJB+kePHvVTV9dajh071vXUNZwXYtFq/j5ixT2Idsu6qWHFPpojQIAAgfYCIn17KyUJECBAgMBIBf7whz/knq1m5Tm3kjZizXm0GTV3NRPFRrqpobpnldvRpbK+AVkljrYIECBAYCEBkX4hLoUJECBAgMAYBdKac+rZalaea62MNs+HSa2rseerr75a700N8Yv0Iv0Y/x9JnwgQIFCggEhf4KTpMgECBAgQ+K5A+vm62Dd1Rfq7Zfv5VGvo5Zdf7qfewWqpdviLL76otTMZ+2sF+v149OjRfitUGwECBAhsrYBIv7VTb+AECBAgsDkCDx48SINZWTTNDUVUjrvuDx06NFrNFOZzh6OfsUqfe1vdX93OBYbYOHfuXPUrhiGaUCcBAgQIbInAU1syTsMkQIAAAQIbLLDG28gjBkdAHbPtZFDP34BEt1O0rv479FjiIYX4EmToVtRPgAABAlsiYJV+SybaMAkQIEBgMwVSFq2+Hm/F44x0euLEiRU3umRzDx8+TDVE2p8M/EtWPvf0kX8DMrf/ChAgQIDAqARE+lFNh84QIECAAIHFBFIizRl1sZP7KF1iQK2+emDFN8DH1x/VVwmuuPU+JlwdBAgQIDAuAZF+XPOhNwQIECBAoIPAnj3r+Q/6iy++WNwSfY13xav0tW9AVtx6bew+EiBAgMAGCKznfwFsAJwhECBAgMC2CUwuqE7uWcYkautWYV5zXqb1Wec2ZM645f61116bdeKY91dfPdDNfOroGqxS+bNnz3qKfiqdnQQIECDQWcDr8TrTOZEAAQIEtktgbmDLHJESU+GIjvGXQ2Pa/8wzz+zdu3eycPv687lpI6qNv9rOvj5O1hx7UldjwbnQgBqT0pdPtZ6qVVbKBeKH62pL9PmQDQIECBAg0FlApO9M50QCBAgQ2HaBHMJjnfzu3bvx77179+7fvx8b8TNpjx8/bgbav39/xPunn3563759kY3j48GDB6sPWjefno/mbuQ9vW9EQI17+1NkTc3FgnPpt9z3rpRkqkq5iZjc8+fP5482CBAgQIBAXwIifV+S6iFAgACB7RKIld6PPvro9u3bN2/e7Hbre/yUWvXX1IJvd3f3008/HZVjWm2OsJqSaupbhPlyF5yrA+mXulpzVSy+r7l+/XqhdzT0S6Q2AgQIEOhdQKTvnVSFBAgQILDhArdu3bpw4UIsy6eb6tPabJsxV2Pe1PLdbgivJsmp1S6zMy/O50oiz1+6dCl/LG6j/Xy1GVqa0+q/6aw8KfJ8G0ZlCBAgQKCzgEjfmc6JBAgQILB1AlevXn333XcjzOeRT+bDyHKTO1P5J0+e5OyXa6hudIv0s5qr1tx5O0fTqCEaOnny5Jtvvtm5tpGcGE869NWTqk91O9Vfy/MN10Zf/VEPAQIECGybgEi/bTNuvAQIECDQRSCtzMe/DSdX4/rU8DY3e3f7efnqy/YaurfkoXjmP262P3XqVEM9U0fdUH5dh3oXmwzzMbRjx47F7Qzhloc59wLIJW0QIECAAIGWAiJ9SyjFCBAgQGB7BS5evBh32sf4c2ifGuGqO2eFt1n7l8GNd+zVTk/9rO1c5mO8tC/SafVp8KnpfYjRLdPtdZ3b5uuPdfVNuwQIECCwYQIi/YZNqOEQIECAQJ8CcSf8K6+8khbnc06uRvdFG1vm3PZt9dJKGu+sdFpoep/6TUR72FrJfEmk/eljendg9euP2lk+EiBAgACBHgVE+h4xVUWAAAECRQrMinnxHvuf//zn+cn5XnLyQEARINNb92eNpU27tYAad6efPn067rSv3joe9SzTRJtuDFomfROxTN6uKqVLIoMcOnQonk3o8DOEgw5Z5QQIECCw2QIi/WbPr9ERIECAwHyBFPNq5WJ9vprna0d7/JgDYS91Th3L1Jqr0TQVSAE1tiOUxnPgL730Ui3Mp2Ltm5ja7hh2Lvp6vKpVesdhdRRR29TvPqplbBMgQIAAgYEERPqBYFVLgAABAmULvPrqq3l9ftCR9JKQd3Z20ip9m66mgJoDfPoY6f3AgQNHjx59+eWXpyb5NjWXUmbRAWarGGCer1jqjy8+4i8ty1fLlOKgnwQIECCwAQIi/QZMoiEQIECAQM8C8T68jz/+OFWaEm/PDfRdXTWjTu1wDpz5aJwSXwREjN/d3Y1/469aSd8dHFd9i67Sp95Hhg+l+Dcy/I9//OPaa/Nz1B/XUPWGAAECBDZd4Pv5v/GbPlLjI0CAAAECrQRiufu5555LRXMAbnVmH4X+7//+b9Fq4j/l0c/odvzFuffv349/48GB6k/ixVvxUwSNGB+hNDLt9gT4qZ5hFT5JKUElvSgcnokrVGNj//79wRVoU+uxkwABAgQIrFdApF+vv9YJECBAYHQCZ86cuXr16loWXSM33rlzp4NISvXNJ7YpU6uhwym1Gsb5sd9x9VvbOMX0igABAgRGK7BntD3TMQIECBAgsHqB+L26a9eurSDPpyZyQxELY7CdV85TPVFJqmeqW25r6tGpOzucMrWeNe6sguTtfsfVb21rtNI0AQIECJQo4Fn6EmdNnwkQIEBgKIF4in6oqr9bb4qXtZDZ7RnvXLFsmSnyRtWkup0L2CBAgAABAkULWKUvevp0ngABAgT6FIinqW/evNlnjYvUFfHeA9uLgClLgAABAgQIfE+kdxEQIECAAIE/CVy4cGEtFmmtPtaQ4911a+mARgkQIECAAIFCBUT6QidOtwkQIECgf4F4kL7/SlvUmG8Ij9+Ta1FcEQIECBAgQIDAnwREepcCAQIECBD4RiDyfP4Zs5yxV0zjxvsVg2uOAAECBAiULiDSlz6D+k+AAAEC/QhUn6LPb63rp+p2tcS78Q4cONCurFIECBAgQIAAgW8ERHrXAQECBAgQ+Ebg9u3bK4aofXHgrvsV+2uOAAECBAhsgIBIvwGTaAgECBAg0INArNKnjF1L2j1UPaOKPXv2VNs6fPjwjIJ2EyBAgAABAgSmC/hd+uku9hIgQIDA9ghErv7iiy9WP95ot/rQ/pEjR1bfBy0SIECAAAECRQtYpS96+nSeAAECBHoQiFx9//79qCgF7GrM7qH2GVVU1+ejSPx8nVX6GVR2EyBAgAABAjMFRPqZNA4QIECAwPYI3L17Nw+2Frbz/n43al8cHDp0qN/61UaAAAECBAhsg4BIvw2zbIwECBAgMEfg3r17uUQtbOf9A22k5k6dOjVQ/aolQIAAAQIENlhApN/gyTU0AgQIEGgr8OjRo7ZFBygX77r383UDuKqSAAECBAhsvoBIv/lzbIQECBAgMFcgPUs/t9gQBeI+/9OnTw9RszoJECBAgACBjRf4/mqeGNx4RwMkQIAAgaIF/vqv/3pd/X/22Wfv3Lmzrta1S4AAAQIECBQtYJW+6OnTeQIECBDoTWDFj9Dnfp87dy5v2yBAgAABAgQILCQg0i/EpTABAgQI9CAwthvEHj58GKNaca9Scye+/evBVBUECBAgQIDAVgqI9Fs57QZNgACBFQpMRuV1rYdPHXR0b2XvxqtSBELccv/aa69N7ZWdBAgQIECAAIE2Ak+1KaQMAQIECBDoLFAN8JFpqx9n1fnlt3+xeJ7Wz+NTtWQk4fi479u/2IiPaU+1TGy3bKtNf2o1L/ox96TWVtxyv3///vZdXbRd5QkQIECAAIGNFxDpN36KDZAAAQJrE8hRNveglmnT/lgk/+ijj+KX4R88eHD37t1uL59/+umnd3Z24t9Lly6lhD+1rdyTho04MXreUGChQ9VuVGs+e/Zs3HSfqqqWWahyhQkQIECAAIEtFxDpt/wCMHwCBAgMKNCcVG/dunXz5s2PP/44YvzUTkx+I5CLTR6K7wVSPVHnSy+9NFkgnzt3o8c8H21Va8vbEea9FW/uRChAgAABAgQIzBUQ6ecSKUCAAAECfQpE9n7//fcjyUekT/WmoDuZ/yf35H5UD8V2jspTC+SdLTdS5ZN1tjx9VrHcz8jzcSvBrGL2EyBAgAABAgTaC4j07a2UJECAAIFlBS5fvnzhwoXa6+j27NmzTH6unVurfNEe12pb9PSG8qnmU6dOvfnmmw3FHCJAgAABAgQItBcQ6dtbKUmAAAEC3QVu3779+uuvT73Hvt8Und6oF3VWV/Lb9zvOir9+u5RbjzAfkT5/tEGAAAECBAgQWFJApF8S0OkECBAg8BeBWUE6FuffeOONv5QbcisCeVSf/m3ZTrxUr1pyiDx/4MCBuNl+d3e32pDtbgKzLrNutbU/a13ttu+hkgQIECCwhQIi/RZOuiETIEBgKIGpQfrMmTPXrl0bbum7NpgOgTx+Dq9WSfVj7vmsRJcLpLPSx7wzvi84ffp0vN++WqftZQTCdpnTO5+7rnY7d9iJBAgQILANAiL9NsyyMRIgQGBtAinPR/MdknYvnZ6Vw2uVR/Ce9RD+rJ7n0F4rkD7Gv/FNQdxmH3+1uwBqTff1MVqUOfvCVA8BAgQIEChFQKQvZab0kwABAuUJxM32sT6/3qjZMuVG/J4V6cM9pfdaVSm6T52Vw4cPHzt2LH5Lb2qYHwik1r3UsdTJqf2f2nM72wgMNINtmlaGAAECBAjUBET6GoiPBAgQINCPwMWLF+MR+qhratTsp40+aknxLCL9l19+GfXlDFytO+2MPSkbVw9VtyPJHzlyJH6j7tlnn63ur22vEiS3lTdqnfGxgwDMDmhOIUCAAIGBBET6gWBVS4AAga0WiHgcP1ZXJYgUFME4/sYWh1J/8uP0zd3L/Y+NGF1E98jw8dK7ePtd/E1dk68i2CZAgAABAgQI9Csg0vfrqTYCBAgQ+Ebg+PHjNYiUgZsDc+2UVX68cuXK/fv34wfw0lp9+jd3ICX5Z555Zu/evfHv/v37I73v7OzkhJ9Lxsbkzsk91fK2xyaQ5susjW1e9IcAAQIEpgqI9FNZ7CRAgACB7gJXr16tReKoa2UBKZJ2h65HRI9l9kVPnPoNxeTOyT2LNtSyfLwO4ObNm7du3YqvJ+7du/fVV1/98Y9/fPLkyco60LKfyxeLZxyuX7+e6un30grD0Lt7925cww8ePEgf47ueaKt2Vcc9Gnfu3Fl+LGogQIAAAQLLCIj0y+g5lwABAgSmCMRT9JN7V5Yqm59jn+zYmPe0DKsRO99///2PP/44wnw4p7Pi3zS0lcmvTDKm+L333svNtR/gLM/I6r/73e9+//vfxxcitdyeW7FBgAABAgTGKSDSj3Ne9IoAAQKlCqQl+lnZaaBRrbi5gUYxWe3csBr5M95BGOaR6tPpKcmnfycrLHRPdX4jz8f6/NTXFlSLTR1pzTO+AYnvQT766KMOMX7DhKdy2UmAAAECRQiI9EVMk04SIECgGIF33303+lrLTkP3vtpch/vnh+7eEPVHho8XEKbfFJgbZYfowCrrzPMbST7y/KwbMXKx5r7FXfThFj+v2CHJ55qjralfK+QCNggQIECAwGoERPrVOGuFAAECWyEQz2/HQ8hrHGq8uH4bgtY777wTTzfklfkUZdO/Kd5vwBpyDGfyLQBvv/32rDw/96oLk8ePHwdd5PmgS1xzz5pVIE7Pv5Iwq4z9BAgQIEBgBQIi/QqQNUGAAIFtEYg7wGOokXbWFSl/+MMflm6dMvmsUUQWff3112OFuVasar4u/Fl97ra/NsCo5OzZs0ePHu1WW5wV94/EfQ05zE9VqjLObSgKzy2jAAECBAgQGFpApB9aWP0ECBDYIoF4ODlGO7m4ujKCv/u7v1tZWwM11BAU40bx+HXA+LdWZmo6Hah7a6k2xvuLX/zi3Llz3VoPsTNnzqSLM2rIXPlbg6g/7cyH5jYUJeM6n1tMAQIECBAgMLTAnqEbUD8BAgQIbIlABKd0130OSKsf+O7u7uobXU2LOc9HmIy/aqO1hF/7WC1Z6PZPf/rTznk+XoD3/PPP5zxfFchQNc9qmYbtPXv8j6gGHocIECBAYEUC/mu0ImjNECBAYOMF8lP0kZRyWBpu1FOb2NRIH7+Untbnw3PqwKvO3QJqtYZRbcfD8/EI/awuNQ82npx/5ZVX8ksHciWThs315BOrGx1OqZ5umwABAgQI9CLgxvteGFVCgAABAt/LC6ErizoRzKpt7ezsbOTr7iOR/uM//mOs0m/kRVabxNoYI89/+OGHDa88nBrO0854g2A8PF+rMH2sXjZpz2Q9U0+0kwABAgQIjE1ApB/bjOgPAQIEShX44osvVtn1WiqLj4cOHVplB1bWVrwPL1bpV9bcihuqzWO19UjyDT9ZVy1Z3U7h/MaNG5HnY7uh/upZtgkQIECAQKECbrwvdOJ0mwABAqMT+O///u819inC27FjxzYvv6VfUF8j7NBN5+XxvJFbfO+997r9ZF388vwbb7wR9Wze9ZBxbBAgQIAAgSRgld6VQIAAAQI9CESImnxiuYd621URaXD//v0R6dsVL6ZU3Gw/69bxYsYwr6MpdccMpo34N2X7N9988/Dhw/POnn48brnf1OcUpg/YXgIECBDYYgGr9Fs8+YZOgACB/gTu3bvXX2WL1ZTSYOf4t1hjqy2dfkd9tW2up7W8nJ7yfPwE/cmTJ2tdyWVq+2sfI8zHrQ21nT4SIECAAIFNFRDpN3VmjYsAAQIrFYhV+mivZejqt2ep0ddee63fatdeW0TTa9eurb0bq+/A6dOn4yfrUravtj65p3o0b//zP/9z3rZBgAABAgQ2XkCk3/gpNkACBAisQiBF+pahq/cOnThxIm68773a9VZYveV+Ld+VrGX48ZsFv/zlLzs3HT+7cPPmzXz69rjlIdsgQIAAgW0TEOm3bcaNlwABAoMIrPfR5U1dos+JdM+erfjvdbwM78qVK8tcoPEUffX0dX3HVO2DbQIECBAgMKjAVvxPhEEFVU6AAAECIbDG7LR5S/SR5D/77LOqas72m3GxTb1aIs93+Mm6Kkh8r5SX6FMTUxuqnmKbAAECBAiULiDSlz6D+k+AAIFRCKQfTl99gor77eO561EQ9NeJYPzggw/6q290NU1+QxE/QR/r891+si4Pb/JRhcmGcmEbBAgQIEBgMwRE+s2YR6MgQIDAKARWk6Ai8cZfGnDccr9kDhwF3Hc7ES8miGfCv7tvwz+dP38+nqJfcpAJLV8bS9bmdAIECBAgUISASF/ENOkkAQIEihFYQaCKLw7SdwenTp2Ku+6LoWnd0TX+ImDrPvZZMH6ybvl5jDyfXuiQro0++6cuAgQIECAwYgGRfsSTo2sECBAoUGBlgergwYNvvvlmgULzu5wfCE9FV/Atyfw+DVYi8nwvj07U0Abrr4oJECBAgMC4BET6cc2H3hAgQKBEgRXE+FqsjZu041VqJVq16XNtlX4FvG16NUSZo0eP9pLno2+3b98eoofqJECAAAECIxcQ6Uc+QbpHgACBAgRqebvfHqdAW421Kc/v3bu334bGU9ujR4/G05nhehIvQXj77bf7qv/zzz+frGrQK3OyOXsIECBAgMDqBUT61ZtrkQABAhsoMFx2qtUcD13H+ny8IH0DEf88pHg9XmzWBv7ngxvyf9NP1lXnsfqtzaKD/OKLL+J7kFzD5MaiFSpPgAABAgRKEXiqlI7qJwECBAiMWSCHqAii1e3U59gTf8tn1Hh4/uTJk8vXM2bJ6Nu+fft6fI1/cKWfGFzXqKuXROpDJPnJn6BfZlq/+uqrqDnXkDfWNWTtEiBAgACBlQmI9Cuj1hABAgQ2WSBF0Mjt1UFWPy6Zsg4fPhx5fvnfOat2b7TbH374YY99izz/93//9z1WuGhV1csgnRv32y//nUX1S6L1fmexKIjyBAgQIECgRwGRvkdMVREgQGDbBSK3V4NWM0cq3FAmVRUruvEGtfi9uoaSDjUILPllSkPN3Q7FK+7jrXjdzq2eVR3XgwcPqodsEyBAgACB7REQ6bdnro2UAAECAwrEveKp9hS0UlxP/85qdXLxtlZyZ2fnpZdeijBffeK6VmYjP7b/WqTN8KvRt035Qcv08pN1kz5zr6VBB6VyAgQIECCwRgGRfo34miZAgMAmCKR8lSN9DCnnq7wxOc6GtB8B/oUXXnjxxRePHDkyeeI27KmG8MTbbdTp3IZZ6FZt57Pi1Ya9/GRd1Sd1ZnJP5046kQABAgQIlCUg0pc1X3pLgACB0QmkNFVdSJ/MV5O59MmTJ3v27KmmzXhOPh6YP3bsWGxUaxvdgFfbocCc1FttF/ppLab1/Pnz/dQ1UUv1Qpo4aAcBAgQIENhkAZF+k2fX2AgQILAygbhJPjJb/Pral19+OdloLeRHYo9V/Sgf70iLv9iIv2qM34wQO+nQbU9Nr30lnU9s30TLkjHLV65ciSkeaGafeeaZlj1RjAABAgQIbJiASL9hE2o4BAgQWI/A7u7uJ598ktvOwT5tpAyfjka6i42GaNdwKNe/VRsBEuNdPp+vCzZm/Le//e3+/fvTKHrpRq2SvXv3btUlYbAECBAgQCALiPSZwgYBAgQI9CaQcntUlzdqVTcE1IZDtUq25GNfIH3Vk9ijtvRdQ/MsxLc5sT6f8nw+sfmUNkdrY6m+yqF6ei35Vw/ZJkCAAAECmyGwZzOGYRQECBAgQIDAKgVSWm5O9ZHnr1+/Hk9VDN2xWU3Ukv/Q3VA/AQIECBBYvYBIv3pzLRIgQIAAgU0QiDwf7zicNZKc55tj/6zTF9ofN4NEc+kUMX4hOoUJECBAoHSBmf8lLn1g+k+AAAECBAgMLRC/XDC1iZznpx4dYufBgwdTtbO6NESj6iRAgAABAmsXEOnXPgU6QIAAAQIEShWYuiQea+affvpp3Ayf1uenlul3wNHQ0aNHU50raK7fzquNAAECBAgsIyDSL6PnXAIECBAgQOA7AocPH47326fXIka6XsFd99F8NDT5OP1qmv7O4H0gQIAAAQIrFxDpV06uQQIECBAgsIkCkatPnToV78ObfL/90Ok66o+vEvLj9EnXcv0mXmXGRIAAAQJ1AZG+LuIzAQIECBAg0EagGtQjTseP1b355ptTTxwuXac+pPpPnz5d7VL0ZLh2pw7TTgIECBAgsHoBkX715lokQIAAgUEEanFukDa2r9IG1RSYo0CskMfD8/lp9lUiVUP7iRMnqh+jGw2dX7STPVa1aNPKEyBAgACBBgGRvgHHIQIECBAoSaAW50rq+oj7mlXzRups+hiL8+fPn4+b7dPD8+sdR/ThyJEjqQ8pgdf63K17PVbVrQPOIkCAAAECDQJPNRxziAABAgQIFCEQoatNePvyyy/v3r17//79KPzSSy/VHr0uYqTr6uTkGnXsiVXxyPMjYUzXwNmzZ2/evBlK6XqY7HYHwMlLK7XVoSqnECBAgACB3gVE+t5JVUiAAAECqxaYDF25B7du3YqMF/9GmH/06FHsj7vE33vvvZEE0dzPkWzkDFwjrX0Mw3PnzsW/I+l2dCN6GJ2PLsVCfV+pflZ0r2mMB0FPCBAgQGALBUT6LZx0QyZAgMDmCzx+/PjXv/715cuXI8ZXg9nJkydjYXnzx7/4CJPSrLCaAnOUicA8NcxXkRdvvJ8zUufzQn10aZl684jS2CermmU1WdIeAgQIECAwnIBIP5ytmgkQIEBg1QIRwx48eHDhwoVr167ltnP0irAXcTTvt1EVyErVnXk7YJtX5ptPz/WsYCP6GU8EVC+Abo3mEU1+NRC3eBw4cCC+HupWs7MIECBAgECPAt/cpdZjdaoiQIAAAQIrFoj/kKX0FQvyEeZjZT51IO+Po7EdP5k+6yfWVtzhFTcXbxB47rnnOjca8TV+HC7i6759+6ZWkp2nHl3LzjzkDn2Ld+zFt0JxYu55CMTYd3Z24lAk+d3d3YMHD+7duzcXsEGAAAECBNYoINKvEV/TBAgQINCbwI0bN86cOZOelp+sNFZu463sHQLeZFXF7cn5dqGeR459+eWX43fpgq56YjbMG9Wj49m+ePFifL/ToT9xndSGPKuSkQvM6rb9BAgQILBhAiL9hk2o4RAgQGDrBOKx+X/913+NxflqxIrtgEir97G4OpJfWVvL3ESk/9GPfpRvI2/uQ6TZWIg+duxYy1jbXNsajz58+DDuTZj1FU+6cWNq9+Jq+fTTT+MbjalH7SRAgAABAmMT8Cz92GZEfwgQIEBgikA1rlcPR179+c9/fu/evdiZclrKrunfdNalS5cip1XP2obtLBYbe/bsiX+njjpk4o13cTN5JPn424AomwYet8rH8wK1hfpsMpUi7Ywr6p133vHOhQYihwgQIEBgVAJW6Uc1HTpDgAABAgsIxO/SRZ6PDNZwTnqEvk2Wa6ik6EOxXv0v//IvSWD//v2RdeMvons8EB4fY2ibitO8UN8wp+HzySefbOHXQA0mDhEgQIDAaAVE+tFOjY4RIECAQJNA5Pnjx4/PurM6nRmpzE3UTYiNxzYg6r/77ruvv/56jLLhTvupBvHowZUrV6YespMAAQIECIxKYM+oeqMzBAgQIEBgqkDEy+r+Nnk+ysft0xtwJ3l14MNt14SjofTwwnAtrqDmeFF/WmyfHF1z6/G2xVu3bi16VnOdjhIgQIAAgSEERPohVNVJgAABAn0KRLKqxsv0/Hzz+nw0H1kufp+8z35sdF1ZeMNybOdfLozn8LPJRs+8wREgQIBA2QIifdnzp/cECBDYBoFqsoo8H/fb156frxbI2/FWvG3A6WWM1RifAXupee2VxC308f6/3I3qSPPOqRuxSn/16tWph+wkQIAAAQLjEfAs/XjmQk8IECBAYL5A5PnIWrlcbQE/74/fYIsfrssfZxXLBbZkYyGHhQqPEDD3Py6YuGw69DDek3fnzh3PbnSgcwoBAgQIrEzAKv3KqDVEgAABAssKXLx4MeX5vJKcNiK81aqu3XKfy9eKbdvHhRwWKjxCydz/+H6nulDfvqvxzvzLly/Xyk9ebLUCPhIgQIAAgVUKWKVfpba2CBAgQKC7wIMHD370ox/l8yOwzQpX8RT9f/7nf+ZEl0+xsbUC8T7Fn/zkJx2Gnxbq9+7d63LqoOcUAgQIEFiBgFX6FSBrggABAgR6EPjZz36WYlVK8tU8X9uOF90LYD2Ib0oVcXkcOHAg3bix6IURC/X/+q//ms+qXmmbwmMcBAgQIFC2gEhf9vzpPQECBLZEIG65j1fipUCV81WMPW2nf/PRbndZb4nkFg4zXR7x6vt4Kj5dJAsl8/hx+1jkT27Va28LJQ2ZAAECBEYoINKPcFJ0iQABAgS+IxBhPn5RLHZFoKqFsRzj09H4N95wvn///u+c7wOB730vbqE/ffp0klg0mb/xxhsICRAgQIDAOAVE+nHOi14RIECAwF8EUp6PzxHgp4axas6vvRjvL7XY2nqBkydPtnl9/eQ1Fi9lTO9l3HpCAAQIECAwOgGRfnRTokMECBAgUBWIJfpr165V98R2NcNXD8VKbKzSV/c0FK4V83HjBeLyeO211+YOc+rVlb9Xmnu6AgQIECBAYJUCIv0qtbVFgAABAgsLTI1Sk+uoqd74ubLJBmYVnixpz8YLxEJ9/CBCh0siVulv3Lix8T4GSIAAAQLFCYj0xU2ZDhMgQGCLBKYu0U+OPye0ySX6ycKr3zN11Xf13dBiErh06VJs5GumPUs8UW8q23MpSYAAAQKrERDpV+OsFQIECBDoIjB1ib5aUYpYOWhNXaWvll/Bdu5M3uiQHlfQz61tIi6S+Muzkx2apynKxxdM8fb7XN4GAQIECBAYg0D91cFj6JM+ECBAgACBEIgE9dxzz7Wn2N3d/fTTT9uXX6ZkBLyUAPPGMrU5d8UCcRf98ePHU6MLzWA8jX/nzp0279hb8Yg0R4AAAQJbK2CVfmun3sAJECAwdoGbN282dzHCWLXAKn+OfnJFt9aZasdsr1Fg6rzEKn2+WiansqG3Dx8+fOedd1KBqTU3nOsQAQIECBAYQsAq/RCq6iRAgACBHgRiiT4W6ttXdOXKlfE8Sx89j68kIgE+evRoZ2fnxRdfXCg6th+1kt0EFr0HJLdioT5T2CBAgACBMQg8NYZO6AMBAgQIEEgCsfKZou+9e/cidMV2m7XQdFZed10XZtzO/dlnn92+ffvu3buR5KPze/fuPXv27IkTJ9bVJe3mK6pGEe+9P336dF5yrx1t+JgW6s+dO9dQxiECBAgQILAygVb/U2llvdEQAQIECBBIAvF28cuXL7fUiNh24MCBlT1IX+tVpPdIhteuXUv3FOSvISI0xo0D0bFaeR9HIhDhPO4EielL/ZkV/id7a6F+0sQeAgQIEFiXgGfp1yWvXQIECBBoEogV76bD3z0WKTpubv/uvlV8igx/5syZH/3oRxcvXkx5PlqNZBj/Rp6/fv26PL+KaejaRiTzWKjPZ8dVlLebN+K7gLgdo7mMowQIECBAYDUCIv1qnLVCgAABAgsIRDyOe9fjhDYpK5WJF54t0MDSRWNpN+4jiDXeWJzPy7y51pTn49+8x8Y4Bf7pn/6p2+vr//3f/32cI9IrAgQIENg2AZF+22bceAkQIFCAQH7XfVrxntrjfChtrHI9PJ4IiJX5Wc8FxFcMcb+9PD911hbdmWd50RNbln/mmWdee+21Nt8cRYVRLJe8ceNGyyYUI0CAAAECgwqI9IPyqpwAAQIEugh8/PHHc0/bs+cv/wmLoNVtrXVuK9UCES9jQf6VV16J9fnJlflc8pe//OUqv1/I7W7eRoDnCD3c6E6ePBlvMWxTf/TnyZMnqWTcex/3kgz9jUObXilDgAABAlsu8Jf/PbTlEIZPgAABAiMRiJjUZpU+epvzXuT5FaToeAn/888/3/x1Q7zc/tSpUyORLKsbk/E4z+/QA3nhhRdatlUtFldp9ePQnVQ/AQIECBCYKiDST2WxkwABAgTWJvDFF1/kNfCGyBQJMIXA+Hf//v1DdzeemT9+/Hh+B97U5uJme79tNlWmzc6GuW44PV0DDQXmHnr8+HGE8w71NF8Mc9tVgAABAgQI9CLgd+l7YVQJAQIECPQm8Pnnny9UV0TBoV93Hy+0v3DhQvQq2krZL2+krsbO2BN53iP0C83dbqf8zAAAQABJREFUQoXjjYnxF3e8//73v//qq6/yre8hv1A9tcJRT/4KqXao9rE26SJ9zcdHAgQIEFiLgEi/FnaNEiBAgMBMgbi/feax7x5IQTr2DRqkc56PhvJabt5IPYqwF7fcx993O+jTUgKRmWP9PK6H27dvV7/oqUXrfBks1ViLk+NB+iW/PmjRiCIECBAgQGAxAZF+MS+lCRAgQGBogfaRPuer4SJ9vNY+rc83jDolTLfcNxC1PJTC+a1bt+J98vFXXQav5vbq9yn5GmjZREOxahNTi/XY1tT67SRAgAABAh0ERPoOaE4hQIAAgQEFquuxzc1ExEoLpwNF+kiV8XL75j7E0YiCL7300kB9mNv6xhRISf7q1atTb4OfFaer8X5JillN1KqNYj02WqvcRwIECBAgsKiASL+omPIECBAgMKBA+weboxN5WXXfvn299ymWiM+cOdNQbW49ypw9e7ahpEMNAhHg33///fgdgYj0DcXGcyjn+aHf4DCeIesJAQIECIxZQKQf8+zoGwECBLZOoP1d91Wa3lfII2fG++2nLhfndvOibjxC33sHcisbsFH97qM6nOB955134tGGeOd8zsnVAiPfjp9OHHkPdY8AAQIEtkFApN+GWTZGAgQIFCNw//791NdZObA2knQXdO8/YhevxKs+yF1rtNY3T9HXfGof83cfeX9k+F//+tcR5vOXJjXSXHI8G9X77VNvDxw4MJ7u6QkBAgQIbK2ASL+1U2/gBAgQGKNADtKTOXBqd1O4alm4oYbqobgPPFaPq3sati3RN+BMPRRPy8cbCnKYT2VqM1jNz1MrWf3OuNJyo6m3hw8fzntsECBAgACBdQmI9OuS1y4BAgQITBHIq/TpWJvF2yWX6FM8yw1FB371q19N6VllVzV/xovxKkdsNgnEr8pHmI9n5quAU0+o5uepBda+U55f+xToAAECBAgkAZHelUCAAAECIxL43//939ybHLPznuE2csh89913850Cqbk4NCthxiP0ot3USZmcu/gtwHicIRWe9EzlJ8+aWvkad+Yext0Za+yGpgkQIECAQBYQ6TOFDQIECBAYl0CO2c3d6vHVdBHm4wHv3FzOmXlPjvfp0LFjx/IhG1kg5960J1R//vOfxxJ9LhAbtTJprlvOeLWeFW/nHh45cmTFTWuOAAECBAhMFdgzda+dBAgQIEBgLQJ/+MMf1tJuajRWkqut5/yWd0YQTdvp0KlTp/KhITZyc1F5dXtuWwsVnlvbogUCJ3fg2rVrzz//fC3PR4WTtou2ssbyXqCwRnxNEyBAgEBNwCp9DcRHAgQIEFinQO2taSvrSkTQBw8eRP5s02IUjkS6u7vb4w0CU9ut5t7qdq1w6k91Z0PharHhtlMH4sn56l0PwzXXb82TntX6Y2h+46AKYpsAAQIE1isg0q/XX+sECBAg8B2Bhw8f5jjanKzyaTs7O3m780Y0Wluib6gq9dCt1w1E8dXMK6+8Em/Caygz2kP5CpzawxdffHHor3KmtmsnAQIECBCYKuDG+6ksdhIgQIDAegSqaSq2qx9ndSiS/6xD7ffH894tl+hzneN5kL6NUu72CjYC8/jx47dv3462epmdFfS5ZRMR5i3Rt7RSjAABAgRWIyDSr8ZZKwQIECDQRaAhEPabY6tL9A2N5jHs27cvv+u+Tfl84tyNDrVFhF7XAwuTw0l5Ph6eTwPpd5ommxt0z2Tnz58/b4l+UHOVEyBAgMCiAm68X1RMeQIECBAYhUCH6Dur33G3/40bN/LRCHLx11x/zvNxVhTO5y6/0aa2CMw3b96MZfDYiAh96NCht99+++mnn16+9SVrSHk+/l2ynpGcXrsGzp49e/To0ZH0TTcIECBAgEASEOldCQQIECAwFoF4QV23rkT0apOEZ1Ueeb62yl3LcpMnViP95NGB9kQn33nnnXhAoJqZ4+3rly5dGqjFRatd9OGFRetfY/mXXnrJLfdr9Nc0AQIECMwSEOlnydhPgAABAqsWmBukB+pQhyB64MCBgToztdr79+9fvHhxsp/xK3pvvvnm1FPWsjPWseMv7h2IF+N9/PHHcSvBWrrRe6OR5996663eq1UhAQIECBBYXkCkX95QDQQIECCwZoFlluhjxTu/mL39av/KVunTynz8FFztPoIQj5vAR5Xn80UQ33fEX3zdEH2OVB83QYRw3IKRvrKJyap9d1PdU93OFfa1EZU/efJkz549tQ401x9fUlifbyZylAABAgTWKCDSrxFf0wQIECCwfoHqSnJEvjYdWlmej6flX3311RyGc9+in/v3749XteU949yIx/vjdwHSTwM0LN1XA3Z1u/dBReXVrwzSx4ZWov+BHI82NJRxiAABAgQIrFdApF+vv9YJECBAYM0CH3zwQepBCpNzU30UiyXoFXQ6VubfeOONWQ1dv369rFevf7ty/83SfYwovqp4//33Y+m++lKAPAtzp2CWydT9ObdXw3wq2dxQfHETLx2Mr06mVmsnAQIECBAYiYBIP5KJ0A0CBAgQWINAujM8Ndwc8HLnolgvWTpHzVxzdePMmTPVJ+drhX/xi1/00odqi71v1/pcrT9e0R9/sSc99RB35se9Eo8fP244pXr6Qtt5WqPydGKtldrHKBNhPu60X9m9GAsNR2ECBAgQIFATEOlrID4SIECAwBYJVO+6bz/s6ir9ZCBsWU+OmrXykWx/9rOfxW3q1f3x+Hc8BJ5OiTAfgbNzu9VqB92uDXBqh2MscVt7/MXRWLpPT93Xxr58J6MnUX+up9ax9DH+3bt378svvxxvKBDms5UNAgQIEBi/gEg//jnSQwIECBAYSiDu/a7lvTYtRaTPAbWWD9uc3lAm7ho4fvz4ZKbNzcVGeiVev+02dKmvQ80djqMRpOMvBhjvDviHf/iHeMl/HvWSfYh6ZtUQT8sfOXIkNV39pmZWefsJECBAgMDYBET6sc2I/hAgQIDA6gTu3bvXkPem9mPfvn2RA6ceWn5nvAyvmucj6Na6F7+mlt42t3xbo6ohp/cYcizd/8d//MdPfvKT/KT9pMOinU/1p3qi/ojxu7u7IRnbi1alPAECBAgQGJWASD+q6dAZAgQIEFipwGeffRYxb6EmIwouVL594XgZXvyWe3P5Tf01tdosxPcmly5dihsWkkb+XqNzto8TYyn+m5fvi/HNV5ijBAgQIFCagEhf2ozpLwECBAj0JJDuul+0srxEnxeWF61havmLFy/GK+5rh3KUTfvjmfPtWVWOBB7U8SRC1aQGUj3UsB1ob731VqzMN5RxiAABAgQIFCqwp9B+6zYBAgQIEFhSIO6671DDwYMH01m1heUOVeVT4g7ziPRzq4277vMp27Cxs7PTDbl6Vnw18Omnn8rz23DBGCMBAgS2U8Aq/XbOu1ETIECAwPfiBWwdFPIqfYdza6ekNefIn3GHeV5/zhu1wukVbrWdm/0xbr+fpdEw8PDMZ8Ub765fv54Kx85q1G+owSECBAgQIFCQgEhf0GTpKgECBAj0KdBtlT6WjvvqREqYsT5ffQ9cVJ4TabWhbVuir459oe2q3pUrV/K58nymsEGAAAECmyTgxvtNmk1jIUCAAIEFBHpcpa/GyAV68L3vpVvuc9qMeqZWFU+Dx4P0C9Ws8Fa9esB0EyBAgMDWCoj0Wzv1Bk6AAIFtF8hr4wtBTH1BXc7kC1UVhdMt91NjfLWquOu++tH2pMDkFMTL7SeL2UOAAAECBDZMQKTfsAk1HAIECBBoJdAtz0fV8YB3qwZaFLp69Wp0o5bnI5rW9kRN7rqfy1lFS9tTv3yZW48CBAgQIECgLAGRvqz50lsCBAgQ6Eegc6Tv8fV46S33k8vLtT3x9P7WrtLXKFrOfTqr9gN4Lc9VjAABAgQIlCUg0pc1X3pLgAABAv0IPHz4sENFvS/RT/ahutqcjh46dGiy2KB7Jvswq7ko2b7wrEpi/6xKZu1vqMohAgQIECCwVQIi/VZNt8ESIECAwJ8EItJ3WAHufYm+zXys/pnw9jJRsn3hhsFOreSrr75qOMUhAgQIECBAIAREepcBAQIECGyLQHXJd/Ih9ppCtXDtUOePuc5bt25NvfM/Faj+G20dOXKkc4srODEPqve2Jn9lcLi2eu+8CgkQIECAwGoERPrVOGuFAAECBNYvMHUpeFa3aoXTxyXfuBaVpFB6+fLlaru5rbRR/Teeou/x1oBqo71sx3By53upMFcS33rk7bwxUFu5fhsECBAgQKA4AZG+uCnTYQIECBDoQSAWyRfKh32tD0ej0fSNGzeqY2iofIQvxqv2diHD6pDnbsfPAcwtowABAgQIECAg0rsGCBAgQGDrBHIoHS6RNpjW8nxDyTi09rvus1Xu5wrQ4luPa9eu5RYn+5AP2SBAgAABAlsuINJv+QVg+AQIENhegQiKa8mKcdd9+1R84MCB9c5Q+6721c/48bnjx49HbbnpvNFXE+ohQIAAAQIbI/DUxozEQAgQIECAQEuBzhFxya8A4vQvvvii9mK86EyuNm+njd3d3RU/SP/48ePPv/178OBB9DN+F6DW2/gZv+hS/BuvFYiN+MYhNtL3DjGKzrB54lKeT41mlnzUBgECBAgQIFATEOlrID4SIECAAIGZAktG1jj95s2btdqrwTVvp42VLdHHu+jicYCPPvooknzqXnRg6mBrCT+PJWX7Q4cOxZMC8U1E9dxcVd7IZ9U2ohtnzpyZ1UStcIePczvQoU6nECBAgACB9QqI9Ov11zoBAgQIbJfAxx9/3H7AQ0f6WJP/9a9/HQ8CxNp4rVfVTF47NPXj3W//0msC0up9dP6HP/zhD37wg1jGj784a1ad0XrcGXDx4sWpb7mf2lybnenu/VQyOpDuL4he7d+//+DBg7GR74CYFfVn7W/TujIECBAgQGA1AiL9apy1QoAAAQIEvhf3sU+u0je4DBfpYyX8woUL1VfQ1boR8TsCbW1n9WNDgYjoEc5r+TyH6molcVPAkydP8q0Bcaih2uqJi27HeOMvzqr2Kn5NIIRfeOGFuLlgaoWzvoOYWthOAgQIECCwFgGRfi3sGiVAgACBbRSo5sm5449EPVCkjzA/dWU+dSktTed/Z/UzBf5ULJfJgTxv5EP3799vk5BTtfmsQTe++dbh1q2giK8bTpw48dJLL6W7CQZtVOUECBAgQKBfAW+879dTbQQIECBAYKZAui+9ZWr9q7/6q3xn+MwaZx+Y2kqsVP/kJz+JSJ/vtJ8sloP35KHJ1nLhdCifkjfyKXv2/OV/ckwG/lxs+Y3JpqfWWe15sMRt/z/60Y9mPcnfss6pDdlJgAABAgQGFfjLf18HbUblBAgQIECAwL179wKhGiYbTP72b/+24ejcQ5OtxIr0888/H8+850ORVPP23AqbC6TQG7XNSr9xg32uocd2c515o2FE1b5Vt9O5ceIHH3zw3HPPxVceubZ8qLbHRwIECBAgMBIBkX4kE6EbBAgQILDhAvEgfcTpySQ5a9g7OzuzDi26PxqNx+bjdXF5cT7V0JB+5zZRG0iqKnZOrTN2VvfXzs1t5f3Vwvno8htzq00diBX7CPbp2fvlG1UDAQIECBAYVECkH5RX5QQIECBA4E8C1SX6udkyzunxue5YfI5byjvMRM7Yk+emIdQKpJ3V0TUUm1Vn7K9VO1ly6p5qu90KxFmpksjzkerjMfup9dhJgAABAgTGIyDSj2cu9IQAAQIENlkglujz8NpE1r4ifdxv3y3PR28j36aIm7Zz/6fuzEero6tu5wIDbcxta26B6Fi1zBtvvDF5E/5AnVctAQIECBDoJiDSd3NzFgECBAgQWExg0Ru5l7/xPtJpNNo5z6fhRSXxF9vp37xz6uCrZaYWKG5n3IQv1Rc3azpMgACBrRIQ6bdqug2WAAECBNYmEDfe58XtNp1Y5nX3qf5oLp6fX/SrhMm+zep27N+8DD85/Ej1k3fgb8PAJynsIUCAAIERCoj0I5wUXSJAgACBDRT4/PPPF8qBy6/SRxbNeX5WLF8GOoZTrba6vUy1Izw37sCP5xeq07fBgx2hvy4RIECAQIOASN+A4xABAgQIEOhHIF53X3vb/Nx6l1ylv3//fvWO8Wocndv0QgVSuI1/h2tiof70WzgNKkYXzy/88Y9/7LdytREgQIAAgeUFRPrlDdVAgAABAgTmCDx48KB94o0Aufy78WKJvtqnFLyre/raTuNqP7q+2h20nswVG/EXo4v7Hf7f//t/gzaqcgIECBAg0EFApO+A5hQCBAgQILCYQKzSRzJseU4EyCWX6CN/xg/RV5vrK3L3VU+1byPcjmHm+Yrt+ItOvvvuu3H7/Qh7q0sECBAgsM0CT23z4I2dAAECBAisRuAPf/hDaigt+c5tdN++fblM5MkcL/POvDH1aL7lvmVzubbJjcOHD+/u7h45cuTAgQNxNN0+EF8ZpEcJ4pf5Yjve/BdvClj0yYLJtka1J8X41KXsH/c+fPjhh7mfU/HzURsECBAgQGAFAiL9CpA1QYAAAQLbLhC5NxE8efIk58OWKM3lJ49Wl+iruXSyuTi3ocCJEydOnTqVknzt3Aj2KdtH4E+Hop7Hjx9Hwo+oH//GgwbRjXiePw+8VsMyH5u73abmDlE8NXrz5s1YqE+j7lBJm74pQ4AAAQIEFhIQ6RfiUpgAAQIECHQRiLibTptM4FOrS4F56qHmnZEza7fcN5SPwlOPRox/6623pob5yfIp2ca44mGBlHWPHTtWLRapPv4i6qd/YzE/NuLf2JP+YnuhlD6r2wktjkaF8VftQ2275SzUzoqPcWLcAXH9+vW0PVnAHgIECBAgsGIBkX7F4JojQIAAge0SSIk3smsadvrYTNA5cEa1ce7Vq1eb64+jDd2Ixfnz58+3f5h/bm+/WdB/9tnmLqUQHr0KqOY0nnsePYzHE1Lr+/fvn6z/my8Svvwy1tVv374d/0aBKByn5xomT2nYE2fF0fg3Vumjh+19Gup0iAABAgQILC8g0i9vqAYCBAgQIDBTIGXOuBF9ZomJA5Ebq8/STxxv2hGBM3JsU4lvj83K4ZHnL126FEUWzb3V8tXtuT1JBSIhp5A8N/y3rDCKfftNwrPpxoEwidX1dP/CrLE315zOiqFFsXfeeefcuXPN5R0lQIAAAQKrEfDG+9U4a4UAAQIECHwj0DJPpnzbgezGjRvNrTR0IO60T3m+uYapvcrVLprnU0hO/06tuZedsYwfQ7tz507nrwyih7mT3nvfy6SohAABAgR6ERDpe2FUCQECBAgQaCuQ0++sE+YWqJ6YcmYtbeaP1ZJpe9ahuC/gypUrk+Vb7snVNnQ+l6nWmco3nFUt3Hk71R95Ph6D75zqc+vp3vv80QYBAgQIEFijgEi/RnxNEyBAgMC2CORn6WPA8dL75mFPjb6zTqlG4ri9PN42P6tk8/6zZ88uk3XbZPJamYWG2dz59kdjjL/97W873wSRG/rd736Xt20QIECAAIE1Coj0a8TXNAECBAhsi0A10teSbY8EOc8vmpZ3dnbi9+o69GTRhqpNDOdQbWVyO27Cf+211yb3t9yTuh2v3GtZXjECBAgQIDCogEg/KK/KCRAgQIDA6gTyM95t0nI1jccSfbdetmmoW82DnnXy5Ml0S0KH/ie3TD1oP1VOgAABAgTmCoj0c4kUIECAAAECBQhE1Lx3717qaDWuz+p6Nc2m18LPKrmR+9NdCW2gpg4/fsKg+cf2pp5lJwECBAgQ6F1ApO+dVIUECBAgQGANAhHR06+vR9vVuD63K/HDdcs8RT+3/nEWiFGnJ+qT1UJiMaL4LqDNjwWOc+x6RYAAAQKbJCDSb9JsGgsBAgQIbK9AXqJflODYsWOLnrIB5eMN/z/+8Y9jIGmhvsNy/eeff74BDoZAgAABAqULiPSlz6D+EyBAgACBbwSqb+BrI5JDbEq2bU7ZsDI//elP04jaL9FXS1ql37DrwXAIECBQqIBIX+jE6TYBAgQIEPhGICfz/Lr7li579nzzvwHiKfq9e/e2PGXDih05ciSNKBvOHWAumTfmnqIAAQIECBAYVECkH5RX5QQIECBAYFiBvG686KJxCqUHDhwYtn8jrj3eIND5B+oz+4jHp2sECBAgsBUCIv1WTLNBEiBAgMDGC9y/f7/DGLfwXfdVpbxQX91pmwABAgQIFCQg0hc0WbpKgAABAgRmCjx+/DgdW2gBudx33fdy63se/kJoM+fAAQIECBAgsHIBkX7l5BokQIAAAQIDCOTX4y2Udcu98b6XEL67u5umItB6qXCAiVUlAQIECBBoEhDpm3QcI0CAAAECpQikSD83l6YCKcHmQFvKGHvv587OTtQ5F633dlVIgAABAgT6Eniqr4rUQ4AAAQIECKxRIL0eb+4SfSoQITY24rfZe+xwvHL/3XffjQrT9wU91lyrKtf/N3/zNwcPHowbDfL987WScz+mE5NJ+nfuKQoQIECAAIFRCYj0o5oOnSFAgAABAh0FUkpf6OT9+/cvVL5WOEfrtBHROv5ef/31VKxDf2r1N3xMlecOxEv+Ll261CHY107JFTY07RABAgQIEBiVgBvvRzUdOkOAAIGtFqjlq622WHzwEUcXPemZZ56JUzqcmBqKXF3bOHnyZETrtLNzten05n9T5bkDt27deu655y5cuNCh0fgdu1xP3mhu3VECBAgQIDAeAZF+PHOhJwQIECDwvUj1HVIZuCRQC7pzWdKvsvebY0+cOPHJJ590/r33uX1uKHDx279coOWFFE8ftCyZa7ZBgAABAgTGIyDSj2cu9IQAAQLbLhDJ6tChQ/0mzC0xTQ/SJ7r2AbXfZ+kzddx+f/369eo9FwPNaYy0NtgI9ZcvX049adlovCGvZck8QBsECBAgQGA8AiL9eOZCTwgQILDtApGs4m1n267Qafy1ZNuyjuHW0lOqT++Tj86k7uXknHubN1p2uFYsKsx15kOR6h89epQ/ttlYshttmlCGAAECBAgMJCDSDwSrWgIECBDoIhC3befTBK1MMXcjh+e5JVdWIFbpP/zww+pafZ7QnMPzRo+9ih/zu3HjRvsKl3xHYPuGlCRAgAABAkMIiPRDqKqTAAECBDoKxK3gR44cSScPkfc6dstpnQQiz6c78FOYr01oTvid6m466bPPPms6PHEsdyxvTBSxgwABAgQIjFRApB/pxOgWAQIEtlbg7NmzklW32R+hW6T6eFteep6iluEH6m1Um94s0N6w1rH2JypJgAABAgTWLiDSr30KdIAAAQIEviMQvzF+9OjR2DVQ5PtOY5v1YZzRNO68iDvwX3jhhUGx89USCHm7TYvxpUMuP07ANqNQhgABAgS2VkCk39qpN3ACBAiMV+Ctt94a7s1t4x320j3L0XTpmrpXMDUVR6r/zW9+U31RQvcGZpw5td0ZZb/ZXS2ft/NGw4kOESBAgACBUQmI9KOaDp0hQIAAgW8EIgG+99578tWiV8MYxBq+Vrh06dK5c+cWHdRC5dsLpH7Wyjd0fqFuKEyAAAECBFYmINKvjFpDBAgQILCAQNx+f/78+QVO2OKikUtr0XS0GPGihEFTfcrk7ZN5+5KjJdUxAgQIENhyAZF+yy8AwydAgMB4BU6ePPnaa6/V+jeZXaWyEBgaYZK9Ni/tP0aqn5zW9qe3KblQbxcq3KZ1ZQgQIECAwCoFRPpVamuLAAECBBYT+MUvfpF+BS1H1rSRP0Z1Itlipp1KV8E7VfCdk2Jaq2v1/Vb+nZZafNjZ2UmlXEgttBQhQIAAgdEJiPSjmxIdIkCAAIGqQNyBH6n+xRdfrO6Uvqoag24n6t7BY60+Hq2PnkfNvVfeDWS93yx067OzCBAgQICASO8aIECAAIGxC8TPjEX8u3PnztxXpo8kHI4ddJH+paA7RNyN2Ywva+JViLk7Q7SSK2/YcNk04DhEgAABAiMXEOlHPkG6R4AAAQJ/EkjB/n/+538i3sei/YEDB6o0KZWtKxNWe7J522GbePPQah/z/kU30i0YMbPpxL6qXbQbLptFxZQnQIAAgfEIPDWerugJAQIECBCYKxC/Vx+ru/GXSj569CjlMalsLl3nApO2k3sWqjxF91RJfDUTa/XHjx+/f//+ktUu1IephaMD6/paYWp/7CRAgAABAnMFrNLPJVKAAAECBMYlUA1dkfD37t07rv7pzQyB6sRV03us0keqT6+pq+6fUc2Au6s9HLAZVRMgQIAAgf4ERPr+LNVEgAABAksItE9T6019SwxxQ06NOyO6jSRPXN5I9cTUp1Qf/7a/DLr1YfKs1bc42Qd7CBAgQIBAZwGRvjOdEwkQIECgT4FazOuzanX1KvD6669/+eWXPVaZpj6l+torEnIrwwXvzhfecF3Ko7ZBgAABAgTmCoj0c4kUIECAAIHNFIgs1znObaZIu1E9ePDgJz/5ydWrV1PxHpNtpPorV67Ev5MdWftMTXYgnhToceyTQ7aHAAECBAi0ERDp2ygpQ4AAAQIbKBB5TCTrNq8PHz48c+bMhQsX4vTJrNutznRWWquPVyT0XvMyvYpzp14q/Y59yR46nQABAgS2U0Ck3855N2oCBAgQINBFICfbSLMXL178+c9/3vnR+mrzudrYGan+tddei43qzmph2wQIECBAgEAWEOkzhQ0CBAgQ2C6BCKXxt11jXnq0NbSPPvro+eefj1vxl6y4NhEnT548cuTIknU6nQABAgQIbIOASL8Ns2yMBAgQIDBF4MmTJ9aBp7gssiuieLwq72c/+9mtW7cWOW9+2bNnz84vpAQBAgQIENh6AZF+6y8BAAQIENhKgbi7u7YyvJUMXQY9+T1IpPrjx4+nR+u71Pjnc6o1Hz58OD1R/+eD/i8BAgQIECAwRUCkn4JiFwECBAhsvMDU16pv/KiHGGD+ZuRXv/pV/L7dMk3kqlIlp0+fThvVqL9M/cufm3uSN5avUw0ECBAgQGAZAZF+GT3nEiBAgECpAvlR7VqMLHU86+t3Drex8e6778bv2/X1q/WxUB/DiglKc5QbWt9Y//J6/9SlNfZE0wQIECBAIAmI9K4EAgQIENgigRwLY5X+wIEDMfK8Z4sUhhzq3bt34yb8+Hf5RnZ3d6sTJEUvT6oGAgQIENg8AZF+8+bUiAgQIEBgpkA1Fh47dmxWuWqxWWXsnyUQq/SxVn/58uVZBVru37dvX34+wjcvLdEUI0CAAIFtExDpt23GjZcAAQIE/iQQv5Q26wVsAmTnqyR9GxL/vvHGG/HD9Z3rSSdGqk8bUWH8LVmb0wkQIECAwOYJiPSbN6dGRIAAAQIzBapZPeJifgHbzBMc6CSQnOMd+K+++mqnCv50Uo708bk6d8vU6VwCBAgQILBJAiL9Js2msRAgQIDAHIHaSm8s1Odbu/OZER1rxfIhG3MFasH73/7t35a/A39uowoQIECAAIGtFRDpt3bqDZwAAQIEvheLwFeuXEkQOYtGns/bjJYUCMlYq3/06FHneqpz4auWzoxOJECAAIFNFRDpN3VmjYsAAQIE5gikrBjvvT9//nwUFRfneHU9HHn+nXfe6XZ2zFHMS56aarzvVqGzCBAgQIDAhgmI9Bs2oYZDgAABAm0FclCM2+/PnTvX5rR8SpvCW16mGr9v3rzZTSOBV6vqVo+zCBAgQIDApgqI9Js6s8ZFgAABAgsInD17Nu7An/UC/FRRBEvZsqVpQKU0nv794osvWp6oGAECBAgQILCQgEi/EJfCBAgQILCxAvEz9Z988knchz9rhJboZ8lM7s9W6UuQZZ6ln6zcHgIECBAgQCALiPSZwgYBAgQIbLtAvP0+Uv2lS5eqr8G3Mr/8ZcFweUM1ECBAgACBqQIi/VQWOwkQIEBgGwXS2vKJEyfu3LkT9+HHRtyKnxect1HEmAkQIECAAIFxCzw17u7pHQECBAgQWI9A3Icff9H2rVu37t69+/DhwwcPHlRX79fTLa0SIECAAAECBCoCIn0FwyYBAgQIEJgQOPzt38RuO+YIxN0N+X57dzrMwXKYAAECBAh0FXDjfVc55xEgQIDA5grkLLq5Qxx8ZGGYGfPG4K1qgAABAgQIbJmASL9lE264BAgQINBCwKpyC6T5RTDON1KCAAECBAgsJyDSL+fnbAIECBAgQIAAAQIECBAgsCYBkX5N8JolQIAAAQIECBAgQIAAAQLLCYj0y/k5mwABAgQIECBAgAABAgQIrElApF8TvGYJECBAgAABAgQIECBAgMByAiL9cn7OJkCAAAECBAgQIECAAAECaxIQ6dcEr1kCBAgQIECAAAECBAgQILCcgEi/nJ+zCRAgQIAAAQIECBAgQIDAmgRE+jXBa5YAAQIEtkngwIED1eH6wfaqhm0CBAgQIECgs4BI35nOiQQIECBAoK3As88+G0W//vrrdELeaHu+cgQIECBAgACBaQIi/TQV+wgQIECAQK8CtVX6XutWGQECBAgQILC9AiL99s69kRMgQIDAygSOHj0abcX99m65X5m5hggQIECAwDYIiPTbMMvGSIAAAQJrFti3b9+RI0eiE265X/NMaJ4AAQIECGyWgEi/WfNpNAQIECAwVoGzZ8+OtWv6RYAAAQIECJQqINKXOnP6TYAAAQJlCRw+fDgt1JfVbb0lQIAAAQIExiwg0o95dvSNAAECBDZKIC/Ue6J+o+bVYAgQIECAwPoERPr12WuZAAECBLZMIBbqT506FYOuPlFfi/fVj9ViW0ZluAQIECBAgEArAZG+FZNCBAgQIEBgeYGI6LFQX/tBu1puj4+1Pcu3qwYCBAgQIEBgUwVE+k2dWeMiQIAAgVEIVPN5rMDHq++vXLny7LPPVlfjax3Nh/JGrYCPBAgQIECAAIEkINK7EggQIECAwIACk7E88vz169f3798/YKuqJkCAAAECBLZDQKTfjnk2SgIECBAYk0Ck+k8++eTkyZNj6pS+ECBAgAABAuUJiPTlzZkeEyBAgMAGCMQd+OfPn//0009jub56c/4GDM0QCBAgQIAAgZUJiPQro9YQAQIECBD4RqAa4Hd3d//rv/7rt7/97YkTJ55++ukMNHm7fj5kgwABAgQIECCQBZ7KWzYIECBAgACBFQhMxvX4cbv4i6bv3r375bd/Bw8eXEFPNEGAAAECBAiULiDSlz6D+k+AAAECmyMQv29X+4m7zRmbkRAgQIAAAQIDCLjxfgBUVRIgQIAAAQIECBAgQIAAgeEFRPrhjbVAgAABAgQIECBAgAABAgQGEBDpB0BVJQECBAgQIECAAAECBAgQGF5ApB/eWAsECBAgQIAAAQIECBAgQGAAAZF+AFRVEiBAgAABAgQIECBAgACB4QVE+uGNtUCAAAECBAgQIECAAAECBAYQEOkHQFUlAQIECBAgQIAAAQIECBAYXkCkH95YCwQIECBAYDCBr7/+erLu73//+5M77eldYCp+762okAABAgQINAiI9A04DhEgQIAAgbELTE3vouZw0zYVfLjm1EyAAAECBJoFRPpmH0cJECBAgEBJAhE45fmBJizBZt4f/OAH4v1A1KolQIAAgfYCIn17KyUJECBAgMB4BZ599tmU5+XMgSapBpuz/UDNqZYAAQIECLQREOnbKClDgAABAgTGLrCzsyNkrnKSDhw4sMrmtEWAAAECBKYKiPRTWewkQIAAAQKFCezu7uYe19aT834bSwrkL01C++mnn16yNqcTIECAAIHlBUT65Q3VQIAAAQIE1i/wwgsv5E7k5Jn32OhFIH9XcvDgwV4qVAkBAgQIEFhSQKRfEtDpBAgQIEBgFAKHDh3K68Y5eY6iZ5vYiRMnTmzisIyJAAECBMoTEOnLmzM9JkCAAAECUwVOnz6d1uet0k/1ablz8guR2p54E+Hhw4db1qYYAQIECBAYVECkH5RX5QQIECBAYHUCJ0+e3LdvX7SXImgtiK6uH4W3NPmFSG3PuXPnCh+i7hMgQIDA5giI9Jszl0ZCgAABAlsuEHk+FuoDIa/VS/W9XxLxont33feuqkICBAgQ6Cwg0nemcyIBAgQIEBidwNmzZ6s/rlZbXh5dd0vrULyt4MqVK6X1Wn8JECBAYJMFRPpNnl1jI0CAAIEtFPjNb34TD3tv4cBXMOS3336b7QqcNUGAAAEC7QVE+vZWShIgQIAAgfEK5Jvtd3Z2YiU5v/3eQn1fcxZ3QBw9erSv2tRDgAABAgR6ERDpe2FUCQECBAgQWLNA9ZV4ce/9p59+GuvJkedjv1TfbW6SWwDG9yOxPh+Rvls9ziJAgAABAsMJiPTD2aqZAAECBAisTSDy/PXr11966aW19aD8htO3JIcOHYrvR1588cX0sfxhGQEBAgQIbJSASL9R02kwBAgQIEAgC0Sqv/TtX9yKn3bmULqR6/Y9DipVFT8+H1+LxJ/n5/NFZYMAAQIExibw1Ng6pD8ECBAgQIBAjwLxi2vxd+3atQ8++OCzzz6LsBrBPmf7Ng2lU9qULLpMmKQkHwH+2Ld/EemLHpHOEyBAgMA2CIj02zDLxkiAAAEC2y6Qgv2XX35599u/e/fuPXr0KK/eN+vU8n+8Im5lq9a5rYW+Vlioe/v27fvxj3+8f//+eGB+d3f3yJEjC53eTOcoAQIECBAYWsArc4YWVj8BAgQI/H/23h7oguJKzPbybZUdmBWRneDdxNpACAWWVGVWSowCkCLAVYAicJUBJxKq4icRUDYQsaLKCAeLtLWAEiRVGeTACFcZNhGLqyRFWm0iJ2A2kB1YWhzYCf6e1fF71PT83Lnzc+/M3OcG79vT0336nKd7Zvp09/RIYCcEYhK78vCXs63pxjdjlitdyRKQgAQkIIFNENCl30Q1qaQEJCABCUhgZgK7dI/HGTUu18z1oTgJSEACEpDAKAK69KOwmUkCEpCABCSwNQJTHNcpebfGSX0lIAEJSEACWyLgjvdbqi11lYAEJCABCYwmkAvm8c+PFZJ5j814lvTDDRye8iyGWKgEJCABCUjgIAFd+oOITCABCUhAAhLYFYFt+ecj0O/ewBFMzCIBCUhAAnsl4ML7vdasdklAAhKQgAQkIAEJSEACEpDAzgk4S7/zCtY8CUhAAhKQgAQkIAEJSEACEtgrAV36vdasdklAAhKQgAQkIAEJSEACEpDAzgno0u+8gjVPAhKQgAQkIAEJSEACEpCABPZKQJd+rzWrXRKQgAQkIAEJSEACEpCABCSwcwK69DuvYM2TgAQkIAEJSEACEpCABCQggb0S0KXfa81qlwQkIAEJSEACEpCABCQgAQnsnIAu/c4rWPMkIAEJSEACEpCABCQgAQlIYK8EdOn3WrPaJQEJSEACEpCABCQgAQlIQAI7J6BLv/MK1jwJSEACEpCABCQgAQlIQAIS2CsBXfq91qx2SUACEpCABCQgAQlIQAISkMDOCejS77yCNU8CEpCABCQgAQlIQAISkIAE9kpAl36vNatdEpCABCQgAQlIQAISkIAEJLBzArr0O69gzZOABCQgAQlIQAISkIAEJCCBvRLQpd9rzWqXBCQgAQlIQAISkIAEJCABCeycgC79zitY8yQgAQlIQAISkIAEJCABCUhgrwR06fdas9olAQlIQAISkIAEJCABCUhAAjsnoEu/8wrWPAlIQAISkIAEJCABCUhAAhLYKwFd+r3WrHZJQAISkIAEJCABCUhAAhKQwM4J6NLvvII1TwISkIAEJCABCUhAAhKQgAT2SkCXfq81q10SkIAEJCABCUhAAhKQgAQksHMCuvQ7r2DNk4AEJCABCUhAAhKQgAQkIIG9EtCl32vNapcEJCABCUhAAhKQgAQkIAEJ7JyALv3OK1jzJCABCUhAAhKQgAQkIAEJSGCvBHTp91qz2iUBCUhAAhKQgAQkIAEJSEACOyegS7/zCtY8CUhAAhKQgAQkIAEJSEACEtgrAV36vdasdklAAhKQgAQkIAEJSEACEpDAzgno0u+8gjVPAhKQgAQkIAEJSEACEpCABPZKQJd+rzWrXRKQgAQkIAEJSEACEpCABCSwcwK69DuvYM2TgAQkIAEJSEACEpCABCQggb0S0KXfa81qlwQkIAEJSEACEpCABCQgAQnsnIAu/c4rWPMkIAEJSEACEpCABCQgAQlIYK8EdOn3WrPaJQEJSEACEpCABCQgAQlIQAI7J6BLv/MK1jwJSEACEpCABCQgAQlIQAIS2CsBXfq91qx2SUACEpCABCQgAQlIQAISkMDOCejS77yCNU8CEpCABCQgAQlIQAISkIAE9kpAl36vNatdEpCABCQgAQlIQAISkIAEJLBzArr0O69gzZOABCQgAQlIQAISkIAEJCCBvRLQpd9rzWqXBCQgAQlIQAISkIAEJCABCeycgC79zitY8yQgAQlIQAISkIAEJCABCUhgrwR06fdas9olAQlIQAISkIAEJCABCUhAAjsnoEu/8wrWPAlIQAISkIAEJCABCUhAAhLYKwFd+r3WrHZJQAISkIAEJCABCUhAAhKQwM4J6NLvvII1TwISkIAEJCABCUhAAhKQgAT2SkCXfq81q10SkIAEJCABCUhAAhKQgAQksHMCuvQ7r2DNk4AEJCABCUhAAhKQgAQkIIG9EtCl32vNapcEJCABCUhAAhKQgAQkIAEJ7JyALv3OK1jzJCABCUhAAhKQgAQkIAEJSGCvBHTp91qz2iUBCUhAAhKQgAQkIAEJSEACOyegS7/zCtY8CUhAAhKQgAQkIAEJSEACEtgrAV36vdasdklAAhKQgAQkIAEJSEACEpDAzgno0u+8gjVPAhKQgAQkIAEJSEACEpCABPZKQJd+rzWrXRKQgAQkIAEJSEACEpCABCSwcwK69DuvYM2TgAQkIAEJSEACEpCABCQggb0S0KXfa81qlwQkIAEJSEACEpCABCQgAQnsnIAu/c4rWPMkIAEJSEACEpCABCQgAQlIYK8EdOn3WrPaJQEJSEACEpCABCQgAQlIQAI7J6BLv/MK1jwJSEACEpCABCQgAQlIQAIS2CsBXfq91qx2SUACEpCABCQgAQlIQAISkMDOCejS77yCNU8CEpCABCQgAQlIQAISkIAE9kpAl36vNatdEpCABCQgAQlIQAISkIAEJLBzArr0O69gzZOABCQgAQlIQAISkIAEJCCBvRLQpd9rzWqXBCQgAQlIQAISkIAEJCABCeycgC79zitY8yQgAQlIQAISkIAEJCABCUhgrwR06fdas9olAQlIQAISkIAEJCABCUhAAjsnoEu/8wrWPAlIQAISkIAEJCABCUhAAhLYKwFd+r3WrHZJQAISkIAEJCABCUhAAhKQwM4J6NLvvII1TwISkIAEJCABCUhAAhKQgAT2SkCXfq81q10SkIAEJCABCUhAAhKQgAQksHMCuvQ7r2DNk4AEJCABCUhAAhKQgAQkIIG9EtCl32vNapcEJCABCUhAAhKQgAQkIAEJ7JyALv3OK1jzJCABCUhAAhKQgAQkIAEJSGCvBHTp91qz2nVmAv/3//7fM2tg8RKQgAQkIAEJSEACEpDA3gno0u+9hrXvTAR+53d+50wlL1WsgxRNsjJpMjFGAhKQgAQkIAEJSOCUBH7HLukpcVuWBLZIgLvE/kYotlgR6iwBCUhAAhKQgAQkIIGKgLP0FRAPJSCBmoD+fE3k6tgh0SsS/peABCQgAQlIQAISOA+B3z1PsZYqgZ0ScEJ7YMX+t//23zIlQwY78I0/9rGP/d7v/V4aZUACEpCABCQgAQlIQAInIKBLfwLIFrFbAvilt99+e+md7s/Uyt/Ga33kkUfuv//+KZb++te//sxnPlNKqEopT60/zHjE3Xff/dRTT61fVTWUgAQkIAEJSEACEtgZARfe76xCNWdxAuV88j/6R//otdde++IXv7h4qecroLT3j/7oj956662J/jymMKH9/PPPQy/MoogPP/zwfCZOLZkxjm9+85sYNVWQ+SUgAQlIQAISkIAEJHAkgT2sdz3SZJNLYH4C3/jGN/74j/94frmrkTjL5HxlDasbHn/88R/+8IdlPO79hl7dB8vTTz991113lSYYloAEJCABCUhAAhKQwMkI6NKfDLUF7ZzA9773vccee+xv/uZvtmJn/1r38iyT88xC56T6vAZ++9vffuaZZ1bCrbS6aWaejXEHgLz00kuf/OQntzUM0bTLGAlIQAISkIAEJCCB7RLQpd9u3an56gj0vFqf3uDqlG5TKLVdYnK+WWAPt2biNcTA56abbiqHOfTq11Av6iABCUhAAhKQgAQukIDv0l9gpWvyUgSYtv3JT35SvWqO+0d5uHxLlTpWLoqFbiGgDEcMXussb84fVDC48Ub6wZTnTZCI7rvvPvZQQO2s1jyFhhl5Xm0tXQISkIAEJCABCUjgEgg4S38JtayNpyawuUX4ASinmsvJ+Yw8AcT1TNfjond55uxsX47anJLPCarAIiQgAQlIQAISkIAEtkWgs9u6LTPUVgJrI/Dee+/dcccd+KilYmd3/8JTLf+W6kV40Tfnm8U1max2r0FGOl5++WX4NK0wRgISkIAEJCABCUhAAmchoEt/FuwWeikEWr3TphN7YhxdU9Dl5PyJVaqK+4u/+IuvfOUr77//fhV/xkOW2cdi+zPqYNESkIAEJCABCUhAAhKoCOjSV0A8lMDMBNazmLzfsCGT86ccjPj1r3/NJ+54hSHVPmXpWWgEbr31Vr88XzHxUAISkIAEJCABCUhgDQR06ddQC+qweQIHvc3W6fqVmL2eyfkmEFx60L377rusLOAH52aapWMefvjhcuu+Zl03Y5ZWSfkSkIAEJCABCUhAAhIIAufpIktfAhdIoJyuP413OqSUIZPz560slt/z4fqYrk/neYhp09VmsOPpp5++6667potSggQkIAEJSEACEpCABJYgoEu/BFVlSqCTwHqm63k5HH+VJeWduq7pRHxEgNX4OPOz6HVwUAA+L7300ic/+ckcR5ilXIVIQAISkIAEJCABCUhgRgK69DPCVJQEOgmUbiHT9bwl/sMf/rAz9fInHnjgAdaTMwu9fFGzlQC3Bx988O233w6JJdIRZaRL3yoHTx5/Pr48P9cgwgglzSIBCUhAAhKQgAQkIIF+Arr0/Xw8K4GlCDDt/Md//Me4qelbLlXSR+Wy0p4vq+OyfjR6pUdNf7u5zKGZZqIxfHYeRBOFmF0CEpCABCQgAQlIQAInIKBLfwLIFiGB3xKo/M9wUE/j1TMn//zzz29lpX0FCoIZU+5K8FuyM4Vw5nHpU1gWmjEGJCABCUhAAhKQgAQksB4CuvTrqQs12S2BfreQ7d9uu+023NQl7I+iGTK44YYbYiX5EqUsLbMVYHO6/ig1mjIZ8nj55ZdZxXCUHBNLQAISkIAEJCABCUjgjAR06c8I36IviEDTgSyNX3TamYJYZv/aa69t6835kk9XeCI3KgXJ8ao8r82DiL9dZRkvAQlIQAISkIAEJCCBFRK4ZoU6qZIE9kcg/MYuu8KfnNHlDmc1ikM48/MzCu+y4vTxmPbWW2+V6+SP0oFKiXrhZQTk6M8fRc/EEpCABCQgAQlIQAJrIKBLv4ZaUIeLJoD7zQ9/kl3oW0GE29l6qisysiCWBI888sj+nNUwDesYquDt9xdffHGcjchh53/W2+9yyKOreRgvAQlIQAISkIAEJLAbAi68301VasjmCfDR9T/8wz8MM3A1R3jyTQS8Qs/8czN+TzHBikX4fEGA7wgMNw03/umnn77rrruGZzGlBCQgAQlIQAISkIAEVkXAWfpVVYfKXDSBj33sY5/73OcCQenPl+FjAd19993HZtlc+uDDLP1RX+YjPS/P689vrrpVWAISkIAEJCABCUigJKBLX9IwLIGTEsjV41kqk+oZzkAzWZ46GLic/dvZAP/xxx8PIK3EysjYL7AcAuBsmeAgWBNIQAISkIAEJCABCUhgDQR06ddQC+pwoQSYXi7dSMLxQnhGjp6fDwn8Lb3WvVL+m7/5m69+9ausuk8DS7DJMANsp/fmm28G6jJLJshIAxKQgAQkIAEJSEACElg5gd9duX6qJ4F9EyjdSMKxSVtGpm9/LISQcN111x2bcVvp4fP+++/fe++9f/mXf1lpXjIknCTZS2/0DvlVER5KQAISkIAEJCABCUjg7AR06c9eBSpw0QRwNdP5nB3E7ndxx5+//fbb2RivH13489dee+13vvOdy3kToZ+JZyUgAQlIQAISkIAE9kHAhff7qEet2CqByp/PwwxMNCxnpyfKWWH2v/iLv7j55pvx54fYyDL7P//zP9efX2E9qpIEJCABCUhAAhKQwBQCuvRT6JlXAjMTSO80AxMLmGtoYKIas2f/1re+xfw8n/1D8kEbb7nlFr7kV708P7tKCpSABCQgAQlIQAISkMDpCejSn565JUpAApMIsBNebG7fdOaroRAOH374Ydbbl+8gVGkmqWJmCUhAAhKQgAQkIAEJnJWA79KfFb+FS0ACxxBgc/vHHnvse9/7XlemdPIJ8PI8m+E1vzyfabqEGC8BCUhAAhKQgAQkIIGtENCl30pNqacELp0Ar83fc889bG4fPjl/Y76dv00v/frrr3/ppZcu4Rt+l94stF8CEpCABCQgAQlcNgFd+suuf62XwEYI4M/H5vbpvef6+YxJU/Dk8efx6jPGgAQkIAEJSEACEpCABHZJwHfpd1mtGiWBXRHIze2HWHXfffe9+eabbIbXdPWHZDeNBCQgAQlIQAISkIAENkRAl35DlaWqErhEArG5PW/RDzGel+effvrpISlNIwEJSEACEpCABCQggR0QcOH9DipREySwWwLf+MY32N8+zGt9Zz4tZ0/7l19+2S/PJxADEpCABCQgAQlIQAKXQECX/hJqWRsvkcDWl503N7fvsYhl9q+99ppfnr/Ehq7NEpCABCQgAQlI4LIJ6NJfdv1r/X4J5O5xWzSRzfDuvfdeNrcP5XN+Hq8+7MoYEjAzz/w8n6zboqXqLAEJSEACEpCABCQggSkEfJd+Cj3zSkAC8xOIze3Tn6eAnJ/PcYqMefjhh5mfZ9V9xqRCmThjDEhAAhKQgAQkIAEJSGBnBJyl31mFao4Efktgiz4tm9vz8fkhm+HhxrMT3l133fVbgz8aajr5Hz3vkQQkIAEJSEACEpCABDZPwFn6zVehBkigi8AHH3zQdWqd8cM3t4+X53v8+XUaqFYSkIAEJCABCUhAAhKYl4Cz9PPyVJoEVkGACWqm6H/961+vQpthSrCzPfvbD0n7yU9+8qWXXnIzvCGsTCMBCUhAAhKQgAQksG8CztLvu3617kIJNJfcN2PWg4Zl9l/96ldLf75H2/vvv9/N7ddTd2oiAQlIQAISkIAEJHBeAs7Sn5e/pUvgRARW+2J5tbk9OPDnu7R96qmncOn7kfVk78/oWQlIQAISkIAEJCABCWyOgC795qpMhSWwSQKtnnZsbs/f0qTSn89cbIbHl+r4Xl2ZsjVcZm9NYKQEJCABCUhAAhKQgAR2Q8CF97upSg3ZIQEc2t1Y1fS02dz+5ptvrvz5yt7IxWvzb7311hB/vsruoQQkIAEJSEACEpCABPZNQJd+3/WrddsmEA5t0xnetlW/0Z7N7e+4447yY3VdZuLJ48+7Gd4OKl0TJCABCUhAAhKQgARmJ6BLPztSBUpgZgJ7mqsPNOyE9/jjjw+xKzbDY9X9kMQzc1ecBCQgAQlIQAISkIAEVk/Ad+lXX0UqeEkEylXoOLFdE9fbRcK0/GOPPfa9730PEyoDw2mPSP5+7GMfe+SRR3IzvP2h2G4lqrkEJCABCUhAAhKQwHoI6NKvpy7URAIfIbA/J5YBi3vvvfcv//Ivw04M5BeefFpODOHf//3f58vzfH8+4wmEt1/GGJaABCQgASCmHc4AAEAASURBVAlIQAISkMCFE9Clv/AGoPkSOBEB/Pnbb7+9XIZAwaU/nx47njz+fPPl+fD2T6SuxUhAAhKQgAQkIAEJSGALBHyXfgu1pI6XR2Bn7uvBze2xN0y+6667XnvttaY/f3lNQIslIAEJSEACEpCABCRwmICz9IcZmUICpydQTl+fvvSDJeaM+sGUJGBzezbD608Z9j788MO8P9+f8tLODkc9JCVvPXzwwQc33XTTpWFc1F7Wnvz617/++c9/zl9+EOZvVeL1119PDGNVvFTCdo/VSyVV4q7DIVXclXcN8UP0Jw2qxgAfgTILO3EAlr/vvfdek3AY+Ad/8AdkgXBwPmh1Kf9g4vMmGK7qkJQMs7799tveb89bp+NKH1K/ITkuGW5QXDLExOVDICRwlcV9iYuFSP7GYeQd+He4MgMFmkwCEhhHQJd+HDdzSeCiCWSH+yCFP/7N72B6uuAvv/yyX55v8jyILrP0pKT7/sPf/OjbsQ5itEtf9d6qw9CEviPF0Xd8//336VASiWIffvghf+kvsushbi2/cT5tGnvGAEYxMvKzn/3sr/7qrwhgb5g5UKWEBgGaPW2ewOc+9znClYRMmfGtVdxMlunXFhiif6ahreJz8peGFJxpVHl2iGnh2NPYbrjhBiDT/G688cYq40GB68F7UNU0jZStakfTfeONN1555RXCkNm9S58cIhADGYy+0aJoWqwI2+JDp2wJaSC1j1H8sI5LhhvUr371K4YXs1UMDPzt3fk392eul0996lNcO81bUymqVKaMNywBCZyYgC79iYFbnAQuhQBdRja3//73v3/wkU8HwsX2Xc2i7LF1pWmNj+47jvx3v/tdwq1phkeGGlVVcpgdZQqKDmVZViToKgX/6hOf+MQXv/hF3C3aAMlGG9tVxIzx4QzwFzNLG0Nt/iacfisyGX1uwggMJYGAdwGN9DEyZb8VA5P1Cznj2dQf9+NHP/pREG5CRsNMOVDbuAQQRePMLDGGwqgWzS9aXZ5qDRxbaKuQ00eWasPh9ddff+edd/hbNV0U62+up9d8lhLTqOBAo/rNkOYPceNTPmkyTCCzlJErDJd6UpsMe/VcMiP0BxE/ZIIuysK35+7EJcPII4ERMs0iAQmcgEC93fQJirQICUigiwBT2nyzvevsiPhf/vKXI3JNz0KfoNzcPgRGF6ESTg+b+fn+eYAqi4clgbKHR3x03/lMYKtTRAJm6b/5zW+WEkaHo6NcDhm0VvEQ+TQDFKPLOMTLGiJwdJqSJzDBCMzSFyoTjC6lylhygwA07r77bv5GsiVKrBQ442G0IjgTSDVKIBk5e6A5jDJ7EbMIjAZwbDOg9TIbz5w8Xh88S00CLy3tJz/5SRm/p3BcvP1jmpuYpW/WO1dKePJRs5kgA/PWYymWNsNVc8stt3z+858/+716XjOVJoGtE3CWfus1qP4SWB0B/Pnm5vZoSc+g0vWBBx548sknM7LsOmSkgSaBElR01mGO20n3vfKLYsV7U8KUGNY/48az/gI3rJITijUrukqWh+m5oXZo/tBDDz366KOZgEBpbBm/UDh4okyuT64KigQRGZaWMVXi1kPSV/VSEqMqYcs4Aj1mdpdYwzBHqxUTIyEc7haT86X5IbaMIZyEy3C/ApkyA830NGB+bPbBkCLrI+LXTLaSmITQrw/th8vzby+n3wyRkKuZESb9QrZ7Fk8+2hWrYPqXnSeEnhZyRg6pVVYfFVrdlOJUJshApTbxaWx1qjzMEstIwqVYWhc/CBO/nnHYSmEPJXCZBHTpL7PetVoCSxGg23HPPffkW69dvQSKf+qpp+6///5Sj7LrUMYbLgmUSKEd0zXRfY9k2YErU5YSpoS//e1vP/PMM/SbW4Vk0c2zrafQsEr57LPPkrJ8xZfDKs3shyUo3CHc6ZJnT3GpWymhJz2ngkNk7MoVWOg6P/jgg2Rh/QJA9jEnBthq4jQZdnErE2S4C10IKZNdc801wbMpP4XQnql0qp69HnDsyyUSzVynj0lzouhUu9QkbgVYQbMp47tsL9PsIEwNxpKEgVduaXKFtzx1xnBq1bxkjtVqYBvIEiv5re2NNCjGj0D49lw1VUYPJSCBUxLQpT8lbcuSwM4J5Ob22TnIQGk5O+u++OKLvpVXMhkeBikdqcovKrP3d+D6z5ZyqjCF8uUCZjWr+DhEKySXwiMmE5enIpKY1ubBuyd4VtVwT8pZIoAauAQv/ObXP7OXpYfyaUKrIZk4AxWTrlxVMvw0fpt27AMvc4zN9pMNo7I6obUGAl1XliEyQ0IpnJjw7aG95iUSpeb9t4LSutZwNuDWs+uPpDlxJwQCv67GUFpBmlwgU2Is06wn3D+8OMTegba0NoOUfxBU8Oe+jW+/m8HHgehMJoH1ENClX09dqIkEtk2A+VXmbw/agCf/0ksv9Uw5tnYvDordfQKcDSbkcYrowrIIAnvLntZAaAOTBcxMTNHs8sB4TRRKfJN2GRkZy5hm+hCV8ZElD+kjntKlxzQMxMxUoApk7zbjA35ZBc00mTgCAaSytEpTpsxTITlW47MUn19ZbiZbZ4Ahkj/5kz+BMHj71Q4+BzFiJuvkGfRhZJDPDVST0j0QKvJRXFf6cokETXFV44+Q7NnuLi3qIlnG99dIilpbgPsDt0F+VFOa01+hYULVBlZrfvOOlGZmXbTa20wW6eOSiTDQujiU2VN+GZmlNwOI/c3Y4/ectG/CMUYCJyCgS38CyBYhgZ0ToIvJ5vY8zg/ayUzj008/3b8ZHh2Ig3IuJwFsWVD6n/7Tf+LVUMKl4dnlInIgtIHJopToyfFJJHY6pLsWkWWhpTJl+KhSsqxSQs+IT5lsdDh7tPgGX/3qV9O6LoFpdTBpTUaast9MmkrsCCxRUJQef5kK40Jjg0P6za1qnDcSJUszUZU7Q7bbMKFVwwSbaUJOzqmypwAm80ktAuUNBOEMdfE+CH9bJadKpWKtKZuRZAkvhe2+2fiDNfnNNBNjUr2DcuJWECsdEmlPriRZpemKr5Kd/rAfBSYzJ1+9TI6SU8yZknchPl13pIGqZjICjHnRYuOSKe+ojLLxaQkaNmMiJCuvi8xeWtcaWSaowpjAjyF+NkbpWY1fFV0J8VACEjiWgC79scRML4ELIjDkoYvfgssXX+QKNHQRohOQgYhndrF8R/qCOBamtiJtRkK1ud1dIeZEQTyl/unrhfRYYlK0hEzLhDDOPF3PfhOqXHHI38hFRzk6zfFFtNLVjAThh+CK8AkxutFDPLF+fTiL5mw/uc6rKd2DCm91K2i1sURNgoCMAx8vtzfZhhDiScCPtsrwQVNyqtQ8dTAmK5rq44eP1O+lHBTYTNCjXgDJWwFjFj2Jm5LXGVPVcirZFc8lM2RJQsrZbqC6ZIYYEu2zbBWEr732WoafuHAYh2oVQoK4ZHDpn3jiCZa6tCabGIlYtgJhCJI7VatjX6o9sSyzS0ACEBi0DaakJCCB0xDY3Efswrvgbz8fut3PP//8rbfe2p/sQs6WndcyjPl4mHTcmT85iHQ0KxZKDPyIHb0xGuTogqZkXPrjUrmuteI/UGfaM51meszMGx/VMaV+4/3YgQX1J2NA4dVXX8XPJNk4Q/rljz6Lq8BwybjxC3hiC0XDlhFAIA8nzNAJgx3jyh1uLNhbvZR5qyBuBa27D6BqUhqudjMlhpzrI3ZdrDKeSozt7qjTqNBZTK4gLH2fqYprHqa91SUzxNhmGi4ZXhLBXW8W1BVTPsFTma7Eo+NpaVzLPHpaJSxXbmtxRkpgrwR06fdas9q1SQLbcunpdLK5fXagmz2MqAMe5/Sc+LvJKlleaQDSbaVLRxe2a2+2GTs9A116dsLD713e+vYSfvnLX7afmBwLbRotTXecpBGd5mZBdKMZtcG3nz5ww2XFTpOsEWiWcq6YrpGg4W2YNRp8DgPUx5pAEbyiQv1mxuGFZpYqgARiuLmV8UQyklK+/jC9oJBPy2xdW14pUCozOkzjOYtL38OKKyJWJzWXJHTl6oofguXsLn0o2XXJDDEh0jDIyBtt3NtH0Ci9+uEllim7Hv1VPO2NRS5f/vKXy7yGJSCBuQjo0s9FUjkSmIHAhlx6/D28voM20y9nMzz2sjqYcq8JuvpY+JZnWVBaufSVenHIFCsOJzWyhCNxsKJ5+fOtt946mGxEAvylr3zlK++//37V1zwoivTXX389neYRK02ScAaiOHrSXO/49ll6lSDjy0BrGnzLrhmwMu8S4UofWg4WHYu3VIzZPObAy5hjw9MdpNKoflvAjsLN8cpSwkH9Y1APbtwQCDfTp7QMNNOMiDmXS99UlQvzqNVJcAgh1E5T2vCYNbj0ccmkzv3trUxGODgwM08jxKvPs8cGTrC8BVXjc5K0OroES7xadazVppfAzgj4Lv3OKlRzJHAKAgM7zffddx9e0CkUWnEZVaeTLvvB7yfP23HvZ1OpxyGVG15ZlXFgX7PKNeJwlt5ek2E5CBVd4YO6pck4mfSbm53mspQyXEpOwhmIs3RtccV5y5Q+fUzXVwlKIRlu/co64xS8uUq3PpOdLFDqnM5JoGBnu1LbLj6pKnhffvnlEZPzKSECVNavfvUrXq2v4ocflkahdk9GrhR+lMiLGGXzKCV0ZWdJzn/8j/+R7Lm2PFNWrBLjELEpZP0BPHlWJzF62DqQ0aP/bjjkJZPG9re3KhlNLifn89SIALfcRx99tHUriuHSqkZLxjKGKgvTuNd94Qtf6BoLG16cKSUggYqALn0FxEMJSKCPAN3Qr3/963RDq0T5wM54ls7iBeVh+XQvw5lg3wH6MXjy7LBFL/agpWWH9ZSsKIttirven+fsQc1nSVC69KPNLxmi1bj3CCi9f04pSgklqxIpNOJ7TOAUHixThWwwiV83hB5ZmskomoEY1sKUV1wz2aIxEC5vC2l7mt/kU+oD5xlfz8HP4VobiLRU42AYK5pVEKNgOPat24BVMrkVxNrynltBxaosMRRoVaMqaJ2HrUsSspGsU+eFtGIkji9TNoVTufmhh+bZjClvTdkq8iyBaDacKiO7woy/Myw45WWrZkGtWoUC3Ct4wYRCzzIQ2QXBeAlsmoAu/aarT+UlcFICdEa7fI/sPRAouxqpX/m8L8OZYJcBPiBPd5++y+hdhWOCLvpGSyOim1X681Wh1eFyypQu/ZSmkn4CU2HMBLaK6jeKqSScw3L2FatTbBJolczZiO86mwnCm83PQParlIU2AzjVePXo3NSwmXjeGBp5lzPQY37qkP78jJqzuPeOO+549913hyiQmhwMoGFrGu6N7O+Nl966Dp8snGJtOT/GGioJWeM95uepUKBLjUryeg7x5GO7EMZZmjuGzFtH67G6RxMuGfz5rNYyZWtkmYBwXjIZ32TYjMnErQFG4amdnpGm1lxVZDbmiO/RIR6OPHRiLG+I1VVZHkpAAiWBa8oDwxKQwIUT6OopEk+fld2kc+KrNSWR+GM8oUuv7JKRxsRp18eEhpAJzq20h2Qfnob6rTZHqAqtDlv7aq2Rw3WIlOOWXqNeU0McCRotvcYuxaospapMurIwvvLnSdAlqsx7bJhSKOvOO+8kY49KB8VSg1yhlYZTBDZLDGmlTFy1ciSomaU1JpXEdvbtx0UhWUa2ZhkeiXoIROx1110XuVLhuYpo1ZaW1rrlPm4S40pQavrzyEndGL+rbMxTM6pdFXGCQ5w3WiaT0pjf9OdPoMDaimD8Ky6Z/mrN2m/qz4hVXDLNU1Nipovt0blVsehXcKPuR9Ga10gJSKAkUD8/ynOGJSCBSyNQPlbLZzNdsZtvvpmnbwIpU2YkM4Q/+MEPluhqZBGbC0ADb42dpXHYElrJNixqxpzYUlwRet4HC+0xgbzTrUh/PkVloF83FEvdMuXwze0je0qgyk6/IpQPPfaMhQ3hQA2yjobrtEycRiWWKYGQljJZflKOBJXl9peSKeEc3+HrT3/U2VCPSw8XJTKmwlnuUQJbE7M6uoqnFEpsDgMxqMcdgPpt3htLfcpwpXZV0LYOGdl87rnnfvrTn/KA2JbmS2jL5TlwCCwabbNVMJ3ec6OYojM1xYg8H65HCKU3i54ivCtv68hpV2LjJSCBLgK69F1kjJfApRPITjAbTbVOPVWAYlYzegPVqQs/pGNEV54O/Y9//OPPfe5z0Ei2GS5jTo8Lr4yOZkwS9nfjmm5MU9t+Cc30ZUx2VRNIBspkQ8LMCg5fRIrO8cMf+853vnMu3yPnq1EmbQwCAzngYzMhXCUupaXYKYEQyF82Xzg40tdTEJznff+/spQRouV26KwgY+aTTz6ZDbi0OlJiLI4998nSsW8KKTPuKYzVOG+5hutyDK8qkcuTSekqsuewAjX7JVMVTTVxAySSS6kquko5yyGXAxcpZfGbRaBCJHCxBHTpL7bqNVwCgwjwyt/BjXDxgtiq+vSzmoMMWEGi7BjRW8JnqxYy0JXJBGdRlqXa5YvQ/cqUZ6MTVsaE/s2Y4XblLP3wLK0p81VVzh7Up+xNMvJyyy23tMo8QWTMkuU0b2heqndQB7IwkFFW6BAC/WIrBTgMxVhnHh877M/edZbLoeemURXaJaSKb9b1jFtwlcKb6uGcDBmewGTc2iEb6TWLqIzd4iELFt588018e74KGfoH1ZLtFu1q1blZg1wvw8cZW2X2XDKt6UdE5kBYU/8R0nqycMmEOdT+LhtAj+2eksDsBHTpZ0eqQAnshAAzCfH+Z5c98bynX85XxEd8r7tL7O7jYxVu2alduufUj5Sl2pHgoBpVrysOu3JVift1yLM0pwwPD1Q6VK+qVmebYlNVKuXsLRkCfFAqVBqyJqJpDjGMaJST561phkcmn8iSh5QyXEgzJfONPdWdpTQzHhuD50BZB5vBQbGlhFQvImk24ZyUaboEYjUL0Vmzg1ZdaYiniCHSeiSs8FRww3AWLHC5gQIb47dCbSeqlI0k5Sx6yWQpwwOQb00cA2FN/VsTj4tk4OAEwxPjdDOXBLZIQJd+i7WmzhJYlgCPefyB2FespySe9zyV8eejW9aT0lNNAtmpzdmqZpoTxBzl+0X/b2A/r6uz2GMUc9St65Z7ssSpUiUWHZRvdx/MmxLC8RuYftFk9KebL2gcVSLjcWzAflSWYxMz3zj6Ow6URV0Pmak+VquuVsfrxzfeeOOx0oakp+1xA2RxRyQum2J/dnYQwKdlxp7sXSmHS+uSsOb4uAdy3c2+mcI6reaSqQbahtdvpJzdB+5SgOtoufshwstLZp2VpVYS2BwBXfrNVZkKS2BxAu+//z7+fG5u31Ueq0zpj8Yi4a6eAXm7OtldYvcXHwSaHIBGp5Zdo3jdt9mt70E6FyL6l6ydPraOmobMpU+sup8iH4ty0cFRAGdcnj2aRmk4s7i5/H6IQIwtsxPme2nNVfFlmiFie9IwGHQU4RCVCjCtTZvPw56CjjrVpRIjCLGb97wlUhxW5G1woKqlDrT5nK8emH2jyUqrSxNwUwHInTASdNVgmWWjYS6ZCgKHA+0l5Re/+MV8TFRyZgcSWi20Dx8jONT4eceyZyemQAmcnYAu/dmrQAUksC4CvOkXm9tnp6G1z0FPlOf9ENVbsw/JuPU0AAyGQaCHA/4kXRy6ttljw/bIuygENl6OidYe3VoVwNtEVWaS4zfXJFt87Q9ljrK9TIxFOQ9WxrdakZHYMvv0VwofHihrAZUeeOCB4XlZol9mj4xPPPFEtRFXM83wIsqUo6foU4GYos/DED68ykplBoZxIbjK8O0Hph+SjN1AkZmX7UD9K6spKNfspKghpW8rTVrdpITVLFiILfGbZ7dlZpe2r7/+OremgJAoSDzcXlz6FF5KyMjRgdQhAyEqB8JGS27NSF3rz7eSMVICUwjo0k+hZ14J7I0ALyHnx8yy01A95sNmPP+Y4G1F0JqlNeWOIwGYDA+aSaeWhY7snEfn/mDiiQmidnKKfqA0lsSzLoOpTiYVf/GLX/CXrf7ix1vBv/zlL2PXq3IqaaDkTJZLo+E2vAklZFpvT5vMUpoBrDhqSrwpYYkYBnpCqyEoEkKpCd+0e+GFF8qYucJ8BaO1xIHyGQOKFRlV+ikyK1HNQ4RzlbGRZ+upZuSQmGoYbqL+l+DYQ7WLUjj2B7cYqOqlS1qV7CyH5ZX7/e9/P3Uo4zPyYKB06Q8mPipBMsxAZqdSeCrNeHvkMce13ywoSzQgAQmMI6BLP46buSSwQwLMcMZLyEMet6Qhcdfi/CESdkhwsknMXTCDgbdcOvbj+n89ukTt5LeR+yuLzlysjMVjZ11Gj8eOz4/a4fMzdUl4+FRM2Fi6ef1aNa1jhCItap7ticGouVYZ9JQy4hRTZDFRD4rRbQDfu5qoH6FJlQXUXRd+lbLr8IYbbhhtUZfMgfG0MS6xKvE4ZXBOhmxxX5V18DAde5plKHbstXCwiDUnwOrmPbBH4XF11yNwxlNZcQyuMUs/RTKXzIx+9VGacBtvHQg7KCTNJ2VUE5fMGtZDHdTcBBLYIgFd+i3WmjpLYGYCsbn9UZvx8oSmm8J7y02HgVP8ZlbxksTFbFU69vG5+HkB4JXli9ZlZZVhepBsvc5q2JhXKU+V4VbFwnEiL73zIZNLdP5Kf75VZn/ksV97Dmmx9KBf8hnP5kR92Tk+Sp8lJuqrL+QN1yetoK4zPDz7XCnxmaf7FTjzIeTgtTBObZRkvprLh7tBFHFGYuNMmJKrugdOEbWGvCxqm1h9vOJ0RkNaB8JCn572z6k4i+38EDL9ujsjBIuWwMoJ6NKvvIJUTwKLE8C7u+2229LB49EbRcbDuL948t5zzz1Vmt88vv+fkOqUh60EWlFnp/bOO+9szTUuMoZgWGGRFZ1yUCMj2b0Mh/yhhx7KqaE8RXrCrTo3I/FMYt6eABZlWc3AuL3uQw5OZn7tudSzWUoV0zP71LSlynuCQybqsyt/lF2hG1n4MVHP4YzmJOpjCeQ3+abU9bGFtqanYY+YYAdmSEP/3EkkI1sLmhjJjgMM7ZWO/USBq8p+sE3mPZC7R5W4OlyVXU1lfvjDHzYjB8ZEA+u/eQ4UdVSyijBVkA55eaq//cdZ0kdVHqWAiSUggaMI6NIfhcvEEtgbAXxyXp7/+c9/ng/mfFpnTNNm0sRZ/tK/by54DiHl36YQY5JAok74nIpwdmqjS5cpM+/AQEqmc/nxj3+8tYsZwvHhcXT5pTPfWkSrJq2RZE8repwT5nBSydYSuyJpw+W88XAhOHU9rwZ02dKlxkLx6XkOtys1IQs/JurfeeeducyB9uhV96lDf9NK/ZcLoAk+eQ6XDCwImKSkMTNKNTDL9GQUijfFay/ZEqbLXImEbA/9+sTdgxHGuAdG4sg7UEK//NnPRjspxY4eBUshZ79k0CTfNAH7UeSpOF7F4mbbJJMGGpCABCYS0KWfCNDsEtgwAfoZsbn9sTbwOI9nc/xlxX61LVk878u/xxZxmenLflIZji4RvbrRXaKyLprvSiRtCnrrrbduueWWjJk3gHPCrCMf8W56U8x8liZT7kBjGVHCzzxKTyTzyu4mfCRGOthW/SjrMnHyfOaZZzJyYgB/fmC99BQ077bzPQV1nQoTXnzxxVwvkKx6rOMU12C5xX2X/BnjQzGIMQZx1EcQZtRhDaK4NeW7SKlPT2VlmtMHsi1F0YypHXuDKnUOG//gD/6gjDxBuLIiSqQRxotUR5GPkVwEtso8gS0WIYFLIKBLfwm1rI0SaCHAxCbz8z3eXUueqyge59WzmYXcU3otV4L930mAHi0d+qM6Uk1Z/dlxb/DnKaiq3JDTn7dZVk8Mjj2bzDPtRoBkFEeh/KosrWpUaRiWqoaTqgTVYViBZF5Tp8QZjaoKmuUw1PvSl740TlpaB6VxV3qzXEQNqZdmxoiZkrdL5pD4RFGqgZ/MfHtsjpgvBfRoyKl/9+/+XbOhDlFgljRPPvlkjHxV5swifBNCgkCo2lNTq7KFRXDT9VlDjaMDv+eeey4HwobYxSgA45KZEgkZNiABCcxIQJd+RpiKksBmCDCvHpvbo/GIRyx9qSoXExGjBwg2Q+3ciuKFzj69mfVIL63/Y0VVBzozBpXqsB9VJGYdJrM3zLz9m3/zb4Zsodcqk13xWuO7IsMKvLKYou83qkvIyeJDvbJDPLroub5mN9E/OaqdjDa2mTErulKAlhCfMMwEzbwZw8LjcgFLJSqTLRp4+umnKXeItouqMbvwgTCvu+46boNR+sAss6t6lECULN9rOyrv2hLT6vjFQNjAga1cq5+2ICHDBiQggRkJ6NLPCFNREtgAASbr8ILKt9/nesQyS3+sf7UBXmtSkb5UzCjOolR0iKP26Z/x8vxRC7yrZlMd9mtYJqZoVh8wk9OfpfUsezqOWxsSqwOaMkvFmmfPFdN8SWGEJrxOPyJXM8vPfvazZuSGYppVHI2/MqG8OuIUrTS3B4uYpqhKyBKHN9100xpeq57dtOEwRw//za7zEIHY9d57740bfYhc8RchQ4o7TRoumf7XT7AatdljtbpkTqOepUjgMgno0l9mvWv1hRLA/2EunYXK43oYB6mx6Vo5WHAwvQmOJTDjLH32oeP14J6N4o5V8mTpj/rsYmgVLZ+NxE+m5PSC6EBPqfcwmQXz44Y/Sv1ZjDNlAX82udEb7JXKzBIOOKyDYMFIKTBUzfska1hY8l0mOGN4liGeM+o/sWiuBa6IFJJ1lDFrCJRacd2Vh8PVi0YYf6dcd8NLHJ6SKuClleboUljKX0af2TOlKXAciqYcYyQggYqALn0FxEMJ7JnAG2+8EZ3p7FtjbRmebjxeFs7DdDlKmJ1AV0UzkbL+LnKTRtcUfX+XEQhM0Zf2NiWvMGaKwlHvYGn9zMFRxr7//vtHpa8SZ9VMH1yoJI8+zIuCVhEziqlkygzvJQ/PHkCfVPvsypxYgaidso7WiaLUCm+8PDyKWFq6nlGw1J9xLl4DicPUMyyliTKNnw5/niXxaBRZrgEJSKCVgC59KxYjJbBPArElWGVb+bitTo07vPfee9fTZR9nwi5zUdFlXUfXilWs1cbvW+lyVVP0qXYGuipxW1P0WEGt3XDDDV3mDI9nRG944taUzNK3xg+PjNqZ6y2A4eUOSRnv/VbtJ9awTBlSGVL0UWlQqbyQj8q79cRRO1UdrdyoKWvm01IGyldY6QyEhVefekZdMIFfXjLV2ZXXl+pJYKMEdOk3WnGqLYGRBKr1pSOl9GaLrfI++OCD3lSePJoAXbqJvbqyaxWixr3EfrTqc2T4jfX/b7fk5hT9QDJ0NFllPTDxHFrPIINaK/vHoyUy0Xf25btB/u233z67Jq0YuRxyWXuoyuLhWeC3FmekBAYSYJR84hqZgQUdm4x5gvKFea6a8qsEpbRt3XVLzQ1LYBMEdOk3UU0qKYHZCODPlA9g5JZu3lzF0P/4+te/Ppc05QQBamreytrWEvTSfKbox6GIvbXG5T1jO2Sj7+ml40VP3K/+3Xffna4GEhj1W89C4srTyI/V00iYt2eLr1lMVsh0AlVNTRe4CQlpNeOY61SYy4RHSehG74KNJFv1jLtumtOaxkgJSGA0AV360ejMKIFNEuCBygM4Z6KwYaFHLJvwfetb39oko4tRmu7XQrW/KELeCWfMaJzmuV32uOyL2tUj/O///b/fc3bgKUz+0Y9+NMVwOuXRLx9YYk+y9eyjWVnE7muxbJj75EYvkB7smz5V1VTY0hq5aTMr5dPAb3/729Wp9RyyvIVX64dscZ/mrEd5NZHAPgjo0u+jHrVCAkMJxAOVmagZP4eWZVdP68cff9yt8hLOGQPpxZUVxHoNVhSXMWfU8Kii6dqmRZGxtKIMV2Lx1rC6zFLJqdKv57DHqKOU5HqcIoqbxlzE0ITfUcrPnrjLFq4LNveK1UxTcM2ucAjsUnuh4lYu9nJosLaFifp12sut9dVXX23d4r5qP+vUv1LSQwlskYAu/RZrTZ0lMJUAD+A/+7M/myqlkT+f1tkP5kv1bpXX4HTqiKyODz/8MMve3C5xoTnNiTex06KIzIbHYRlOYyPAN72rGOT0pK8Sn/FwrgG4auH96W0vSzz7RH3Visr6XfP78z1qlyYY3jqB8mIJW3jhqNykJhNk4Iwm06nILe571LD19sDxlASmENCln0LPvBLYMIEbb7wxv0BTmTG9f5AScMDuueeedW6FVVm948OsjrI7lUvQt2U4b3OUVrQq35WgfN8kM3YlzgRrCEzZaj5rH0OQUw6xHWt7OLrH5ioBlnmZpffdnBJOfzjrEacuw/1ZLuHs+lHg646riPJiCQlcvM8880xKywQZyFMGJCCBSyOgS39pNa69EvgtAfaqbfXron8wsZeQ2ZkYLHshvy3e0KkIZF1kgTi3Q2ZUMv16ArxIf7AT35WAtz3XY8hRmkxx6bP2AwtrHI4qukwcbaYLb5lyYJhZx/XskzdQ53Mly3r81a9+leFzKXOucqPtTRmWOr3m86744LUj9qk5vRWWKAEJrJyALv3KK0j1JDAngWZf/LnnnuvqcDQTH1SlzFKG6YWU03HlqYMyTTCdQNMBmOU759MVO1YC87plb/7Y7Nt16bG0WYnDzY8rLiRUa++HCyEl841dt4uj5GRihiruvffeKR/uTlGXE7jk++eUq+BcLWTGwdMwn01qHAg7V21argRWS0CXfrVVo2ISmJ9Asz9EH53tncvJtyn9ReSXRZRheiHpS5Tx8xupxAaB8hX6ODmvY9YocKmIKZ9xGviq51KqT5PLQMaICzOzlFdc15hIJu7XdPqwSFUQ+txxxx1dWvUrc5lny9q8KAJVy9mK7TOOnwYBXmTjktGr30oDUE8JnIaALv1pOFuKBNZLgD76o48+Sjcxeorxd5y65C17XRHOGF6qt+M+DuzEXFWdcjjdMZuo0rjsU/ZI/8QnPlE1yHE6nCVXDocdVXpV7+SFQJcn0EzcWtb0waBmQdwWbr/9dm8OrcCNTAJly8nHSp5dbYBta6brVtpLmOUtePW8hTRdshIkIIF9ENCl30c9aoUEJhHgpfo777yzFFF2nsr4/nDZ7ciUKYouO4tsiW9NlukNLE1go/xxa6d4fdddd102xaUJzyuftQlz9d0hMHGvytbdN461t1kR1OwXvvCFV1555VhRpr9MAtdcs5nu6/RZeq6XuGTib9R4vLTCbhSX2QC0WgISqAhs5p5Y6e2hBCQwF4Fw8Nj9Pubf4rC5VHuW4pghfOyxx8p+ySxiFXIJBGJft9GNJ99oHS3hLJDZCouXVmYsGk9gyrvr+CflezrjFGsdVEKxr33ta372chzSS8vV2oTWA6FUj1d+Rq+KCjkpLQNpKV+C/MxnPjNlrDNFGZCABDZN4Hc3rb3KS0AC0wng4dBRoJv+2muv3XzzzTGJV7o9kWB6QSGBrfL4yPb9998/l0DljCAwffn0iEInZnnjjTeQ0OzUDhT7zjvvPPjggwMTj0uGbuWFE0JG+M9xxfGtMvY2p7PelDlOvcw1YqI+TcM/+dSnPvWjH/1odq1CPYYwqGjWDd19991bbKUJedFAVsexpYzOeGxBJ0gfl8kJCppexB/90R/lCy9HqT3kKuMWgVfP9fLwww/nJbOnip7OXwkSuAQCuvSXUMvaKIEDBKLfQG+Al+qZEqQ3UGaoDstTR4WzK8PEAh9Rm74c8ajSTbx1AlO+vobtuNYjvOs1QJvrAkxb8AGOnTYsXYtbbrkFlz6llYG8xsvIY8NM17OcGN8eR+iRRx5JL+VYOZF+l75NcC4rZSCcEVkGSj5ZspiRnqWlLadzxZnXVfKbL7NfzmEFr+fwu+uuu+KSqRRYzlIlS0ACKyHgwvuVVIRqSGAVBJgc49dUZZZeSAphktCt8pqQjekhMGVjvB6xS59aZ8can3mK4bgN+RZDJSev8Sr+qMOAhueGV8/0I0vxp9T+OqvgKCBl4iS8M7tKG4eEk8OQxGdPw+BU1yUzo240ibhk2LNmyiUzo0qKkoAETkZAl/5kqC1IAtsgUC7eS43pK/DLw+kB+uv01KfLUcKFEMhlq2Fvf4d+3rY6nHBTq2bMcGnLpYx5ztHyWXvPKt/R2Q9mLKERxkthP3w2z2MScsQrAweL21aCc7XtFVLaFooHHnhgCYYlhLxw2E2TS4bhsBdeeGHixb6EzsqUgASWIKBLvwRVZUpgwwTor//gBz/IKYXsMdBdyB7DLOYxjcBWebOIUsjuCeSkUzRCmmW2zKbt8zbUpvyumB6VurJ0xYeohQyZ7hjfeuutMxpbQqjE5iFjOmyF8OlPf3ripH1Z1mWGE2kGtsUhL4oMbEJ/lr8toXCrzKhZnPknnngCxx73vhoOK3OV4U2QVEkJSKCVgC59KxYjJXDRBK6//no2wAcBPYPyeR8dhRk7gmyVxxTcRbPW+GEE8jX4bH5ly2yVcTBBa67pkanhFFGh/Cyimmqw8H4iHPbCYC1xU/L0mH7FGIyISXscFXb9uMwZyPfff38K5yS80GdNpug2JG9cFGnFkCxnT4O2S69tKW2s4DAeynDYxz/+cRbkh29f3ljKcCnEsAQksC0CuvTbqi+1lcCJCPC6LJvSZ8+gfOpn5Cyq0C+v1lTPIlYheyKAC8pH6cOi4c2vbLSnpDFcw1NqVZaFJzwdznPPPVfKnBJOZTLQIy3SYAL7jeHYsyD/AlcXz9LG/tf/+l89nFd+akhTWYMJUVOhLRvXnUylVj4syC99+8scETtZFViQBE5MQJf+xMAtTgKrJlD2FHmpPrbFpnNQxs9lQMjEW2PqYPpK4Lm0Us4KCYQ/H53U1q5qj87Hpu8RtZtTs3Tl2Yh+rteDW28vZcWVYRKX6RkQZHXxZz/72Yvy7Usg45olDPlE4ri85hpOoKwpLhmeqpG3jB8u7WDKvDQy0JolfPtckz/LDaG1ICMlIIGTEdClPxlqC5LABgiU/QwWCr700ku8VL/Q+swsi/4EG+BvgM6WVUzaWzQidmjv76S22oXVmWvTBFqtGx051wjaQw89VH5hDsIV5OrwoMJZWaTsCnOqKZbE4dvjpfC+vWt/DqJuMjyYxQTTCbD2LS6Zsnmn2KwUzmY4zw4JHJsr1uTPstoFnfkNUdI0EpDAEgT8Lv0SVJUpgZ0QoPPxzW9+k1n0pe2hY8HH6k+5LnFpi9Ymf9OdrdGvZpRWP/nkk7np49pqZ6P6MOrH/YHNt0L/knZXzNKWogOvmrMmnx+3L174Z3P+hV77X9oW5TcJUL8ffPBBxBM+1oNtCjxxTHXJVKXnFYRdjKSf0jrusfxY8MLSvDvvvPNLX/pSOVpX6dl6eEptWxUwUgIXTkCX/sIbgOZL4ACBL37xi0ws0D8+kG7y6W984xu///u/zzv8kyUpYG8EshOPYXQcs+Pbb2eZkp40zbg/vWdHEMBbZivN/k9XnNL1Kv0Klv+wlx6/8O25lfEbYaNZ1kOA+uV9gbi0y7pej4YHNeGSYfCaIez+lOeyDseeF53Ct2eXfjbCTN/+lBdyPxzPSkACTQIuvG8yMUYCEvgIgaeeeipfqv/IickH9FrKjsvFbmE9GeTRArKXdnTOc2TI7e4pfKA/X6W84YYbzqH4RZRJvz+GS8prubS8K75MM2O4WVz49qw2YtNvvoFXfdBrxqIVdQIC3AHKm0Czuk+gw7giUm3eqO8avD6LOalY2BWH+PbspceafC4c3r3nVI9urRLGUTKXBCQwjoAu/Thu5pLAZRHgpXrmOavH9nQECCxl8so0i3jnetF3uno7k9DTIVu5peOaRNm0Ykxq5WZuTr0kzKgfLkoethpysuZXqlEVSkNi0j43/X7llVfcGKy1stYcWdVpWd1rVhvdSs1zoLzSOc0pE1dp5j2koP6y8Ofx6vHte8bcKwnV4bwKK00CEmgloEvfisVICUjgIwSY1J3xm1Wl6OrZ37NVXvZ1yuyGhxMoAZbh4RLOlZJZ+qqd9GsSicssvkXfJDZvG+Cleqbrm6VkzLzFpdj+QE+hOCpf+9rXcFQYRmTevvLtezL2l+hZCQwhwBD5q6++2jPUeIIWGEX0FFSe4gLh/bu8XobYaBoJSOCUBHTpT0nbsiSwYQK8hrrE28hlpyHoxFZ5TVKlh9Y8a8xwAjDfHMxmO2nGJIHmqW29aJCGLBqY3gYqCbxUf/YdLiuVAFjGZMMoI3PT79K3LxMsWgsKv1gCePVvvvkme9Gdi0B/I+dsa4K8XniHhcX5TeXzKmueMkYCEliOgC79cmyVLIG9EWCtIJvlnMAqtsqLl/dOUNYFFtHaUVszh/iIHRqWmpfhLuWHpOnKa/wIArwk/Nprr7HP5Yi8s2Sp3AkaQMYQ5helZGRZaOmrNO8/rVnK7IZPQyAr8TTFLV3K888/f/aBsLAxwCbe/gbPpD3vsHzhC19g3r5a5JISlkanfAlIoCSgS1/SMCwBCRwgwPL7WMOcj+3+B/8Bcd2ned/VpbDdeC7rTL5LP7yxRcrh6S8L6JLWsqE3K4q7dv9asuQW2WUDKMMtSYsofJV4eZhA3oXyjlckNHgGAsPr8QzKjSqSgbAXX3xxyEqiRW0P4ccWwQUSu+gxaZ8XyygMZpKABCYR0KWfhM/MErgcAjzp+dHtePnll7GacNi+UE+3uVXeQgVdTg1elKW2ljNWN3cJXq3nRyBuFHm7OKNWxxaNf4KX8ulPf1pf5Vh0pj+WAN+BZ3lLLsLvul64rXWdOrbE2dMz/sWM/W233cak/ezCFSgBCRwkoEt/EJEJJCCBvyVAZ4Ifgfis7gmgRJf6BAVZxO4J5Dz/7i1dj4FM1P/kJz959NFHUSluHanbat2S1DADaB6+Ch8Sf//99zPegARmJMAVwfgXi/D5uAyB6nopC+o5VSY7V/idd95h0p6BMBz7DV3m58JluRKYkYAu/YwwFSWBHRJofSqzUJCX6ltPzYuAN1rpSc8rU2mXQKBqnPk2/iXYvhIbowq4V+DYV+vwV+6WtAJ89tlnnYFsJWPkdAJ5RbANLddLrHCZLvZcEhj8wrH/7Gc/64z9uarAci+QgC79BVa6JkvgCALZ1ajy8FJ9boJVuU9VynGHWS49abatGifEXPsgwLRV05BsIa2nqrO+5NmktGgM94SsAqoPF6Xp2C+qwFzC0wosohXhqPCavc1pLrzKaSUQK1wqxz6es9kgWzOuKjKuF99bWVWlqMyOCejS77hyNU0CCxKIbnoUMHsnA4HZfSFAH9olrwvW5epFR2NAzQxU4cqCMlmcav3YUpXLwxkJNO8JG3Xsm22JpUN87q65Jf6M9BQlAQhUjn1cU80GuRJWzUs+FMv3VjhcrfIrYagaEphCQJd+Cj3zSuCiCfBSPV+iXgJBPvgjwKpplrz6OvQSqDchMzuLEeBvtpCB+v/1X//1wJQmW5RAOPY//elPq6X4ixY6u3CmHxln9J2g2cEqEALVzS0d+09+8pNr5lOpjarlfZsP0/LFO4fm11yD6rZ1Arr0W69B9ZfAOQncd9998aX65uN8XrXoQz/22GPzylTaVgjkKx6hMI0tO4s9JpRt8le/+pVDQj2sTnzq+uuvj6X4vGlfVe6JNZlSHC69Xv0UgOZtJdB6c8Oxf/PNN9kVf0NjYXkHjgBLpVje4mt0rZVupASmE9Cln85QCRK4aAKtO/S2dkomYmL9HiP9E4WYfYsE8ACjU0i7ym7iQUOqRvj2229HluESDhZhgikEmLF/5JFHfvzjH+Pe989AVlXZWo+taaaodzAvJXJH0qs/CGreBB/72MfmFbghaayMy20puHxGa36ueyBD83j13/rWt0ZrbkYJSKCLgC59FxnjJXBmAqfvoY4z+Pd+7/fw6qu8C/UY6D0zxr+Q8MoED9dDgE58XA5U/ejrIl360RLWA2RnmjRnIMs6Itxa72UagJzrtnBKr/5cNq6qvfHESX0uE0huS4F7H6vkEsjAQHXtDMw1V7LHH3/cgbC5YCpHAklAlz5RGJDA+QmUD1o6K2vur5S6McO20Ev1zSpxq7wmk93HVPNRZdsbbvvPf/7zKvE4OZUQD+cikDOQOCqsy0ixVFN49RlDoLxVlvFnCePVv/DCCydoTquy+iyoq6q/cCCMhb366qvxLQlukk0axFSRJ2ilQxoGlwzL7oakNI0EJDCQgC79QFAmk8ApCOTjNgLVw/gUGgwrA/Uq3XipPt/xy1MZGCZ1UCq2ysOrj/eiE9egnCbaLIFyXg4jxrUr1ndUr9OPk7NZittQHM+EOwleCmt/+EZ3KN280vMOuZJKfOKJJ5pjRtsgvjUtm41haxbMqS80ctKeL8vmpH1cF5zlR3kcRkz8nVODsbL4uJ3v1Y+FZz4JtBDQpW+BYpQEzk5gPc/dVhSt6j311FMxmxp9CDJmoFXI6Eh22WGrPIS3qjFarBlXS+DGG2+s2tK4qs+196u1VMWSAP48Xj1v2uPhx40lT2VjIJDhcU0iZR4VaC0rhxqPEjUwcZpJ+jI8MPsuk7XWwi4t7TGqhFBO2pfrXMj+t9fJb3z7HlGnP+Un60/P3BJ3TECXfseVq2nbI1D1XLdlAC88v/jii9WEKiaUfY65LGLNnlvszAVz/XLonl5zzUeeVuO6p35LfP11XWnIfvixH1j52nDrLWVck6iKG3jYWhZbfz3zzDMDJRybrDS5DB8rZ0/pqQVRNCu0ddK+mWwNMVwyePVr0EQdJLADAh/pJO3AHk2QwG4IRK+xte+4WhuZTX300UcrnavDicpnH46Vri7bmwhzK9kZLaomncZp/sYbb1Rr78fJMde8BIbcIpiB/Pf//t/zHS8C85Y+o7Rvf/vbi96UAhTDpkOIzWjXqkSVo8aXzKFZKRWNu+++mzft45LJU/kAbWY/SwzXi6PzZyFvofsjoEu/vzrVop0QiEfv2h7AB+HyUv0DDzxwMNnoBNk1IXDPPfcwzD9alBk3RKD8yFm2gS79u64aNmLgrY2uXMafi0BXfVX6kIxmEJP2+ZpPphkoJNOPCAwpYtGtvEMBfNohmowwcBNZyo/YXTKHqrK4K7bSiEvmpz/9KRcOa14O3jwrsQsdlqqyVZ4jrQtxVuxFEdClv6jq1lgJnILAww8/XDpgFFk+v1OD1sg82xOIjPylH7Do+6s9OnjqxATYDp0Ss+r7G09Xt5Vci3pcJ2ZyscWxtPj+++9nC73XXnstJ+27Kr2LUn8Tas01pAhmHfm1ZjdydgJDamT2QtcpsL89c8lwpbAzRXnJlIacmGQWh9qMtPLBiFIZwxKQwAgCuvQjoJlFAhLoI8AsCvtaNZdHVn2OfKj3yfroObLEL6Njq7w8NLBXArHNBLUfBmbgKHvJhbvljFBCG4cxs58rkGrHd+9+8YtflG/aV1pl4gxEguqwyjXl0GGjKfSG5F2u7oaUvuk0ccnEpH3cVCtzKrbVU7tKPP0wiuONFW/L02Eq4cIJ6NJfeAPQfAksQoC+Ap3sSjQP73h+j+4lkLGZ163yKs67PKQnWlZ9GT7W3pwRitZ4bPY9pZ+C8YwcKrWvvfbaeNOeeXtuO11LhKpcM+pfSWbYaP0ftKPxV2rPCGRpUSwgX7qIfctnaxIuGa6XeNO+fJWj2SpOcJ9kov5P/uRP9s1c6ySwNAFd+qUJK18Cl0iATgDfoGJxbGV8dBemdBFa8z7++OMudq1Q7+yw2iGvtRkMNDlnhJqd14ES9pFsCsNVEYh65G+sLsZLwVfBY2mdhFxCc0hWMF9//fUlCppRJrjQeQdToxd+FU9sEvGmPetcym/alzJpJCcgTCl/+qd/Wl1EpRqGJSCBgwR06Q8iMoEEJHA0gegEsIXV5z//+TJzPLNHP7kRG5JLmRHmpfpdbpU3mlUT0dZjGCQqTRhNJl7dHJ291GHT4a5LadNGhfKxSihetmff7xNYVMFk2OgEhY4romz5XAvjhKwnV2nOerTanCaxPf5pxsKqiwVWxNAU/8t/+S+b46bCElgPAV369dSFmkhghwT+7b/9t+VcWTzL+RuBYw0ue2+VBDoEt99++w4mnSomlZnV2Ys67FpQPQICHtcHH3wwIqNZ1kygvD+EnryvwfQjjgoL8ssbEWcXvbK4Ha123dCihp+meVCVO7DiNKyOKiXHwqrrZV7acZ02r9b1r205CqaJJXBiArr0JwZucRK4LALRRWja3HycN9P0xJCdX9XPYJaez9r15NrHKQzfhyHHWnHrrbcem6UrPR5XvFF/sTC5WL773e928dlofHVDwIqoX+5C8eZwOCoRuVzVhxpvv/32+jHSDJbjsJz5EE61m5W+XLn7kJzoesyJ6yW3xx+SpUda66lmxf3whz9coqDW0o2UwP4I6NLvr061SALrIsBE2dNPP93UqflEb6bpiom8zcc/M2Nf//rXu3JtMb6y8b333pvCbYsEUmdep//c5z6XhxMD8Ub9ZcJkMQsvqjz44IPb3Zu9ui66GkNVv+GoPP/88zj5XVmmx4du65ylTyARwKXPmOmGn0wCu7ul2gNbwsl0W39Bie6gqrE9fqzGLz9hczDjUQmiBtGK1lgunrJmj8JoYgno0tsGJCCBxQncd999+SJ0PqczMG/x7LLzrW99a16ZZ5Q2vPt1lJJ0no5Kv5LEdDHnajZM1D/zzDMrsevEajz22GN8/ZFCt7tz+JTrIhx7FuSXjn22qxGSW/Ouc9P7Dz/8MBpb6MwQ4Ynb3lzFJfMRAkdU8YhSdpMlltqx6+QjjzxSXjJzGRjVERUaa1sibDXNRVg5F0JAl/5CKlozJXBmAvlu3gme02yAHx7LmW22+LkJ4NLP0n5CCBP1MZVauQfV4dxGnE1e2MXMPN99RAl65zi3Z9Pm3AWzH1iuKy51GVH70ZzIWOZlzGihgTOWq5QKHxWuLp+FNDxKpdMnLqvp9KVvtESG/x5++GEuGRz7qgVWjWqKgdEgZxQ4RRnzSmBbBHTpt1VfaiuBrRJg2R69geUW71Vc/sW/+Bd0DrLrloEqmYfbIoBLP8s0UbaHr371q6xCr3qQ1eG2EPVoi13f+M0v0gAzEyeQjJkrgOR+4f1n51KjVU5MP8ZrQVHpU6q+KSEHFksby3CrVgcjy6+IH0zcnyA17E+2trPTGa7Noq3owyWDY8+MfS67Q/OyOqZcQYiqGmQpeSuI1FMC5yKgS38u8pYrgYsjQG+g9aX6JUCwoJS3hfPFvIn9jCU0VOY4AlO+SdZsBoz7XM7ye9z5fHkeFMy2ZRU0yeSpiQEkV8LLbjrh6uzE4g5mL0uPxLwWhIty7bXXctg8e1BgJMiMpUVM1MfZ0sYyPFB4lQwJWVx1ashhmff9998fkmVtaaYzXJtF6FPWy3nVO6gJj/KXXnoJ376p58G8zSxlzGUuGykJGJbAaAK69KPRmVECEjiaAAt977///qOzjcrAeD/vDI/Kaqb1Eijnlo/VsrW7mcvvj5W2rfSlP4/m//Sf/lP65WcxofTHyvBplKlKjCbB9xF/8IMfTFlDFGLjb8gkvJDDjPzKiqPQXXPNbzt+y70dcJRKxyaeCDbvAxk4VoEl0ld12vwg68m0rTTpMpYxwVavviv9kPjKpR+oyRDJppHA7gn89s6+e1M1UAISWAOBp556qvrA+IxaVT0A3hnOackZS1HU6QlkdxaXfq5971NmLL8/vVFLl4iBYWPlz1Pul7/85UVLj3KjCLrpn/nMZ1a7A3yoyk1p+hqitJoAv5ylnxc1bzIjfLTMKm+11Hm02FNmnAtsObpxSv2HlPWVr3yl2ue1eroNEbJEmrL94NXzm7GUldg4o0WKksDJCOjSnwy1BUlAAv+PAGv2FpohLHsbUdizzz7L125Fv3UCZVcPr75Z0QMNLOVkGJ/znnvuGS1zYNGnT4au1v9hAAA3vklEQVSB/Jr+PD5h+SrsEopRbohlshG28SLMOjeBT1VjDdHEZhDZQ2Z4nhMFNmtn+mqCUuY6h1pKDaswVBmGmEI1azzetqjkr+GQHV7feOMN/sZOlmtQKXVIehHDRP1cY6wInFKtqaEBCVwmAV36y6x3rZbAOQngz7MB/mk0oIvA97er5XynKdpSFiLAy89Vt3J4QdllrCS88847TzzxxHA5W0mJV5ALVdLkW2+9dYpbeJTtTDbiyVM0nhi+fV6JWRFHSVs68UMPPTTxw34JGQMjnDFzKV/tN36U2Cb2+GzYUULOmzgGhmahOoXk7BComqgdxuByfp7r92c/+9nsZQ0XGCo105fxJ3uaN9UwRgISSAK69InCgAR2SKB87q7EvFCJidbpy1wHWoQvcfvtt5evJq4Qy0BbTAYBOuIxLzSlW1+1AQ7pRqf3uwPONHiaPUalpRmI/SzycDljcU6YbEz5+POolF59xkfgBPpUJeZhFn3dddelfzKidZVZCIfYFJ7FTQxMHHSoSsdDLu+N1dkzHja5Rcx3v/vdUqtmsvLshsI0GH4sKys37OTh9c//+T8/48sRqNTKsIy//vrry89hlqda8xopAQksQUCXfgmqypTASALl1Nn05yKez3QhIy3pzpYqMdda9gPIsVDnDLF4EcwQplKpw3KFZlkrCSzE9lzWxbZMsxvVXKN+LgOHlNtlfjT4m2++OdZUl60dsTfccENsZkF8l4QhpR9Mw/hIc4iEK5FPUeBDVlohrRlzsIi5EpRF52YNw+FkygyEYvF6USl8FoXxoGaRk0JKJ7kyIdOcPtDkFjHVmwLNZMNVnZJ3eCnDU8bmL5VWePVcMuVA2HrqKE0rP0QyRb2yC5TCDUhAAkMI6NIPoWQaCZyIAHNEWdKU52IIWe2Lgmnjk08+Wb5UX3VlMtnEQIilI9i6Af5ChU7Uefbsa94IaqCx5RWB35WbLEYNlmcHCmxNtiGvvqvpMjGOPx8+QDPNAw88kKzKsxnZiuXYSFYHQLI1F1OO5fhaa5rzRjLaeJQCibFi2Lquu0pzVEGRGLHz3ts3tNsIow+lczuCXpllel2U0iaGuS7YpxOVmlphMstbcp//bG+UmIkzMFGNcdnLG/I4CZGr9ZKZItC8ErgcArr0l1PXWroNAjM+mPHiZpQ2Cz70SZUIMITx2muvnWxgns+V5TuKs5izISGJHZ3LHuGGTKjUzg3ewrTq7Di7QsiGvPrKTGa/efk2psHjVFXvjKCxNAYzy/hIOQvAEIuLiBqIbZYSZfH+9te//vUIr/Av/sk4n7li2LpCvkozzvxPfepT4zK25mK4k1+cmkW91lJmiewaJzpK+AptDKe9pwpIcNtttzWHM9KWDByFYsbEXDUpbbQyrCFKIQYkIIGjCOjSH4XLxBJYnMDoZ2FTM/rTM0pryh8RU+oTYXyM73znOyNEHZWFssK7wNPIzutREvaUuMvR2paNTKWO87uaZpbNMs7iOYRT2ky82hhm+Zic7xm0ot7ZGC/0b5o8i12IRQ22xOsvhdHGP/3TPy2X5a+nTaIJU4Wf//znjwIS+sffZDv7CvlUaXbPp6yLLGVtAdp25dMm6qNUzcY2LvtRZTUTZ+l5Kvz51h0NSg1JVo7WZfaVBMo22bRxoJKto2AD85pMAhdOQJf+whuA5q+RQPkUX6N+03RqWnfTTTfN+23bpoL0MLJcekV8UquZxphtEcDvYg35LDpnBzQDiMV/4GvqdKPLyFmKm10IzgAu2Re+8AW0LYU3NZ+LWFlKGWZtMNfXBx98UEaW4bgMQ7FcDcFhXp6ZuKl8npo3UBUUmpRTjkOKi1yldeTKd0OGSDgqDe5TpfZR2avEiGLdxMrHOmnbzXGHiRD+5//8n4lioqiUczBQNXXsGr5nJONlJI4iTqbwQYsiwSyfsivHBQaWazIJSCAI6NLbEiSwOgJre1SfABC7neU66qWLw/+54447Kudn6ULXIL/sSu7DfHZuX/Stjehtr/DT0GVzwhNjcr65IJnqLmucLCy5L7euKIXMEgZX69rgUnh1c0Nt8Kae5dmMLLMvEW4taByoUv9FnRPcp1a1x/FBFL9wmEsTxklbIhc3bVzZ1nnsKcXF9/BCAgSmiBqXF4sYAsuX5HuEUC+hYbxyT8qzKNyj4fRbMRbdeOONPUV4SgIS6CGgS98Dx1MSODWB5bpTy0mei9Fzzz03rhs9UIEkQADfg47UwIy7SZYEtmhRq/JM1P+rf/WvFjWH3vaDDz6Yu80tWtaxwnHmGZzqmuILYtHvj3C1FqYV6bE6ZPpwusqhooEuBy844KUgB30GZslClwuMm2AP/ePvOAkDLeJWOfvdkubEJgjrqYJE0WxaeWpioHTpJ4oal51XVGj8H374YWYvm1BGEiA+L1hGwVq3ei3TnziMbtN3tvvEJz5RjgukvSe2xeIksFECuvQbrTjV3ieBskO8Twu7raJD0LNV3vSne9VVzbmObo08syICVfWlZv/yX/7LsheY8XMFouHR9WcRPvtRj7hCpzfdpi14X3jy/Fgv3TxbxlA66Pg1p+iJLFNODKNMBWeg4XyjK1bNzKvPRHOa2fvVC2MjTYSXXnY0r/xoJ4xeVZXY5DCwWpsZI+bY7OhD0/rZz37WJXBKPL5xzPwfq9WUQjPvE088wccpOCybVmhyUB+2em2+hhCSD+ZNBWYMlCaMEBvZq6X7E2WOUMMsEtg0AV36TVefyu+NQHQvlrBqE09H5p2++c1vtpq/hP7057p6Ra067CMyOnxL8DwLnxnfqD+oPw2m6dgf7EAPQd0jpDzF/eGFF174W1f+9tvx6g8qHAlCQjVFPzDvwGQMdsRMO+mH2FuJxavHooPOZJXrxIdlRTSLDqsjTfyt/JNmlokx4dIn7X71DpaFHCRQEVRllbiSnCVWyQYetmavikhRNCoaBn8jV5W3OsxcBwOZEXufeeYZ0mfMwbyzJMBeXjnhWp4iLbeiqISc2JYsHZgZPjYQDWDeUapjdTC9BLZOQJd+6zWo/vshwFMtOrVzPZKnPGLPhZWHevoe8ZiHRgSWUIleUc8O4UuUeHaZ0bqWQ3p6A9n6nsGgua6afv3hFo49nsYrr7xC4mPLbSXfI4RT7DaHA88M6qc//Wlm9tKZbxXV1J9k7FWR67QH5mrKaY1BWrwPn2fHyY/J2OXGNFO9gYERmlBT/JDPX3bXW3TxCKVEEUk7ih5oXU8yWle1qDslZ1k92cedyiLK7Iy3Vjs+VgpUh2Xe/nCZsfyyaRnfL2Hi2WeffXaW0eRVPb+G7AjQyi2wc4M6dk/KVmlGSuBiCejSX2zVa/jqCNCtiVf74gnX2ssZqHTkHdErHSh/0WS4H3fffTdFhBXQmIKiVdUQGH8391m7k/U7W9GtMJKJehZ3lO+jzqhk0q4aIZ7P1772tZi05w3k4ddayEmxPaoyOcl4E2MH/+Sf/BP+fve7361KqVTqEsV3obim8uzAXJm+PzCXc0Ipq/LqYzz0qJsPifkFrriD9aObeJayvvzlL08U0pq9WtSdRs3bclqLjkguLpx5/NWeNDO6fzwC4p2a0xg47+owlEdgD6isvp40s5wa/R2ZwE6FnkzVWexViATWRmDB6a+1mao+Elg5ATqRf/iHfzivkm+++eaiuzTNq21KAwWv1+ZS3oxfKIBP+Oqrr24C1D/8h/9wFghsWzBjn3gWlSYKYb9DXOuJQqZkhydrrflLQxo+Q0svNnq0uOv0iWnzjOvxl1/lwLfqltlbz0Yk4x133nlnuitDsvRIK08x4oBHUcYQniifd/673r6pClr0ELe2mqweXhzzjT/+8Y8T+PCMB1NWbHF9GeupclEuyarIEYcMA+WCqRHZyyyV2uWpKoxFTF/zt4qPw5SDblxrPCMmWlqyilliTM71LFWhrSodG8l1zWjFsbn606/k+UXFlaMwJdum/nG2TPOTn/ykJJ913cxrjAQk0Ergd1tjjZSABE5PIHbKiXLLR904TUICTs7KPdXWJzd9lJdeeone6gler0UBRhBwCH/wgx9cf/3142gvlKuCEzOHs5T1q1/9ahY56xGCH8i69CFu8HCdK/5lxuYVih+SrgguPdcdzZhOKuHsqpa5cOBZUY/CbP3F33FNHYGlVs0wHjK/Mv5gljJxTxhjm/486SfKZ8oRYk8//XRP0Sc4dXDfwR4dGNaZCKFLeCU2RpEqVWm0XdkHxlMKQnDPGF166qmnsvUOzN5MVqndTEAMzSmc+fKiK8OkCTm0Zxxv0k+3NCUQ4AKk7fEL+Wn1EOVbLWpGxjqUZvy4mIDDX27mjG4wfJ86jxM4Mdc777xTSki2ZWSGWVQVzSxiaMmV8jNiz0INSGDfBOYZzd03I62TwBIE4nlcSmYRb3bry6ddmebYMI9JBr+PzbWS9Exo4NXP66SVplVVACvmrquORZn+LOFSyddff52hh+l9HSQ89NBDc03BnQVLa6EMYC30bcKyFrLo4Rdpa/aUE4HWNK2RVcaew7madFMN7lR82G+5a3PGKeIePj2nyrtxT7LyVFKq5hvLNLOH8WybE/VzlUILZ5TzySef/NKXvjSXzKacdOabp5oxjJThuxI/o+GtF3Ll2Dc1OTYm/Pl8xB+bvT89bY/3a3h+UV+Y0594ibMT1xjub9XYEpCVKYF+Ar5L38/HsxJYikD13OVF2XJ3GZ7QFFylGaEKHYjRy0dHFDdvFnpvL7/8csgMIPPKL/ESXrTLNVrzUknWcZSHo2UCk3XFo7OvNiN7K95///1LqAf2aIFlOyzDPYWSl19PgjjVmqY18qCoTNBcRZynjgpUasSVMq8/XxYB2PPu+8XY0LGuF/qHCbiCpxwWjIn6o2qzNTHM+XEq/kYawnBgmIxXzUe/Kd1aHJEIZFr+4x//OEMS+OeZjEKDZMZkIIao4rDUMxOMC+Q2HGW5TNczrIOGx7aEVh3ikplFVKt8NI8iWPjTmmDpyHKN4bFl0Yb5HZvL9BKQQEVAl74C4qEEzkCAhzFd2GYfpRkzQrlyR9+D2Wcp8WApwxPwpI8Xa8vO1vDsw1OG4c2OVxeQrvjhJVYpK4HVIYnRjV5mlWv0IZMqQ7b6b6oxusTTZGR2dyGHKlrgiHZ4Lob4lvxmwV6a0LxGZi8iIB/c92uWcluFfP/732+NryKzSUQASrQ9WmCVbOnDWUrEhLAi/pY6E8Od57Of/WzsIVeeGhGm/cSHGBHIU685MERx2d4iEH9hy44nvJQRhTb1HKFMJSrLTVFoyJp2HPuMGRHARoZFMDzzzqh8yiTAKMk999xTxpwsXO1j0jSwGYNuERmP+Cb8kylvQRLYB4Hf3jr3YY9WSGCFBHhW5fOsDIeqC3WRKw6xkLVZepVsnYf0qyZ2qo6yK+aCmp7heemNWAlcWY3+xGRT5E3vs79+WWk4yyEX1KJrwmdRcl4h0TLL9skqXCo3/Z+5isM5YU6VN2LmEtgvB/1ZkXvi3UBoP1xrXCZxvfRrWJ3lzfOF1olUBVWHuJ3VG/VVghkPqQ52W2R3uiH1Em2SZoN6TMXzG9d4mvdkRN122215N5vRwFZRKMAztPVDBtFOejTBzZ4yid2qT08kH/WMrSjKG0JP+umnuGQYoKG4ESXSlp5//vnpOihBAhIY89CSmgQkMJFAPvno3+T4/bhO5HBN6JQwHL7RFW6n8eqzCpo9yOGcp6TMhlEJmdH8sohzmVlZN/sh3f3qBeOs2dnLWqFAPOG33nqLyp1dt3BOaELXXHMNf2eX3xTIwNN//s//mRGK5qnZY+LS4IZcTTkOLAjguXFJeZUNzD4lWbPBT5FW5u0xhKq54YYbcOx5f5sK4jAycq29++67rAPiVTKcPZ5x/C1lHhtuHdlZzuQe9ajiLse+zFVCY7EJ66Fa7z9lsjL76HCWEiP4yJm9iNStlMzyjZ4VZGXKyJ567vUBlJQMSOCUBHTpT0nbsiTwWwKx8hlX7bdRC4fiycpa3LnesF1Y31r8jG5tLbrt+Fy9jWYHaLrh2YVqGjqwk9rMuPKY1u+rrVznudRbaK44nJNUsqdRZZpZAstdic1rjT1NHnzwwRFqLzeMMlCZHtdxoISuZFHRTVZd6WePZ71Jc0VAuvQzKtbTpMtSGMhgcDxUKuObhuetuz9ZM+P0GD4Zw94i0+UclMBG9yyXyGQ9DDNNBtgr59Zbb81DAxKQwBQCvks/hZ55JTCSAB1HPk57Mn+epyyKxl9G05nA7BlTT5PohWR4DQFmHvidRhNYMbN0yjXGaVdUUxyyYJUJkHzpoDyV6ScGMBMfJovokba29hCqdmnF+uf9benfUzt5imtkobXfzMSWLbCLfGoyS4BS4kpcYt+v0hy0paDmPblKQ7JWw88+Tkq9M/bRqtvEigiZJYcyHMKbMQcLHahqOs9dAkcU3SWqRyWWpWRBfNuPx/dXvvIVGkxGtspkTRyVwqmeZD2nWmUOjOSujnoDE49OxhMKDmX2kmG/abRY/fkSnWEJTCTgLP1EgGaXwHEEmFvAfeIv2Xjg8fyLv8dJmSP1TTfdxDts0eGYQ96JZOS8x4nK+zt/Z6E5z1L/aAZlDGE6ZKwBHvfqaSVqyOFyc6FDSl8ozelby0KGDBSLY5nDXq2NaqCcrmS0Sca5TuAqVApwk2RqNL5etoRdFMeQwT/7Z/+MteLIr0o/eAjzNYwfca/A1Tyo7fAEXahP9szCn+/a4jFn6YebMzBll9Wt2VHv0Ucf5dWD1rNEnvg2XqrBLf3P//zPr7322jJy3nC8iVO1h+qwtUSc+fycTWsCIyUggWMJ/H//+l//62PzmF4CEhhBIB7t+BjNDjGPwBECB2bpEk7nNfY8Z6OjgaLWkIx5DyyKMZHZ9WntzNEroqBFKTXriN75l7/85f/6X/8rRbdqNd32EJtF8yYIH0fgcKO7LbQCWbS1tJZ4xki8C4afUoGs2YyZHuB9aUr57//9vzNROV3aURIolDsna4mXsCu2/eNyO3itNUvHORmyyOUoY8cl/gf/4B9cd911bKMwLnszV9NY0hAJpSpxM2UZc5BqJY1DXmTg8VSu6K7S0BhYa1aWUiUYfXiUTC4E1Pjf//t/33jjjX/37/7dZqFcMvi9yFzomdUskRiAs6yAW/ovfvGLHoateYdH0pn5zne+Mzx9pmSsAWituDKNAQlI4FgCuvTHEjO9BI4jEL0Z+nysoA4PrTX/iE5Pq5yjIimUF+F4uNIrzc2NjpJwlsThcy7RQyo7c2WYstiymH3Ug9LSlUVfltbyP/7H/0i8pTIZOTGQMsOcOMRSfhDeUHuAQ9ZIBgIOh4zFYBpGTcS18ux42kxpLqRkSfXv/b2/h1/NInxGnfCEFyqxVWyMI8w+uBb+fCyHoamUxraqUUbyQjWTjWd3TlLnT3/605jz05/+tFTy7OFjqcZ+eNXYYtqIOYQZkubJtZxpcT9M+dVhxhP4P//n/3B74dMMn//85xlVKU9lGFvYLZ+HCG52Ri4RCD1T2+hyzH7JoHm5ACqLG2IRtw5YlaDKmh0iwTQSkEArAV36VixGSmA2AvjMDNL/h//wH3jw9wg96qHYI+eoU1EoXUCmZ8lYPvhX/pRF1Xnno/q5AYpJQvbBpq9JJ350ZZVUM5wBdKAu+P7Qs88+W7aW0cX1G5VnK/lMf9H1DEszzcoDaUIGQuE45B0T+pF8RguqVYLSrrIiyvhVhUsl05ZF/XnMz4ISBVcB44A01xNP18fQTN6pShqp21EBWvuXvvSlcrC1NLYrHEXgp7ErClfKUSUukbjUk5FHHjrYlQWVZyMyYwDIdG6mXChAKUjOQvtLYQr39ddf//jHP14lK7MTjln6Ks30w7KUgdK4vTzwwANsT/iP//E/7snCICmbXCA/2vCIgnqE95yiOK4XqPakOeoUVz2GNOfn+y/GOIsa+POVMidDcZSZJpbA5gi0LKDanA0qLIFTEuh/bpWa8ORjcv6FF17YyhOLBy0TfdXcSGnR2sJ0VhgugfMpFWOyJXaiGlJos7U0Y1IOndRTvjyf5XYFcBTPvulXl24j4pnWYw1quDo9tTBC8nmznPdFbnie/u36/PJ2P/meWo5TLIfhFl3dQHpylcXh1ZSvOZSnzh5mKpgv1ce6g4PKDLT3oJwpCVIHhorYqr1y+Volc/On4bWeOkFkjHgyGMRN8tgxHS4ZWl0sMUjDU2d6C0TmYQaaKfPUwQDD33wJcgjVENVVFvGMFrGCLO6iXeV2ZadrwZKWY3F1lWK8BCRQEWi/d1SJPJSABPoJ8AwjQem60+Gonnxdz7l+yac/S3eZ/X7iubt+ndOjqFStDufFSN+IDj2/GcXSw3vssccq72JG+eNEYSkeI6MY47KvLRethcm05lfHq250dbg2K0p98Cq5YMs7T3l26XBeZbRevJTo6GfkcqVTBN4Utvd7KT2aoCr3Z+7SoWQAJH2XzpUoip738u8qd3T8UV796FJGZ2y9xEDKGOJAl+8ELn1V6RiLbrx1wo9574F6NhGFWO5C3IvikulK04wfHcOVUk2PN60rY8pwFIqqORIxQg0qd7VDYCPMMYsEVkhAl36FlaJKmycQnwgOM5qPxjWbFz0tHv8bmq6nq3H6eUIqcS53Fzee9xJZzVE1jPW0nJ1N15dvgSbzinZ1mMnWE6D5MZ/JrOYJVBpIg1XosA0vJX22DMyuJ9uM882OY1cVsbP9M888w/x8j1FdOhNPoVu5N+LV8yWz5gBWVESXjbNXEwIDdWuJEYl7zNAhy9czcVONqr5mcelTJgFeQOBvs1xiUI9hTTz5YxtbU1qWGKfKsbBm4ohJblXervRd8dwxcKp5XwaBXWkiPjhkMpZ7oCdXd444p0qRPg8zUMqHHpPzoJuofynTsAQk0CSgS99kYowExhP42c9+9rWvfY1HYOuzbbzck+fk6Usnprnuep1PZTqvDKPQ7VgOexpeFdHl2Gf6nqojDavBy8X2lfCevCc7FSp1mXkyNeYt6L333mNlctcU2bxlLSFtzUtYW72UIZdDD6ie62L4eBNOIP5t6ZlEiaHbEA3xOfE8R0/P9hi43KnWAayyuB62ZbK5ws3ihi+2L3WY4tIPqWvKYhN7HGCuNX5l0REeKKSZkZiqyX3/+99nmClvR5XkJJaBVpn9kSlz+PWCA//KK6+wrwqoe4Sn5GYaTnHJDF950ZRgjAQkMJyALv1wVqaUwAECzPzgWFaJeh54Vcq1HdKBYEpqQ+uuD3ZeJxLOqsxACgyPt9yFqJkmE2cA56dcbF9mmdJ7S/lzBVIZuoP9H2Geq8TTyGl1Pk9T9OhS8CfpIq981TfWwZbfj370IxrPaGOHZ6Rllsuhy0uJAVZ2RjzomVRllRIwgS3QmOE8zZqISpPph+x+yn1mupzZJdCYY5QkJJfMD5Y1xaXvF44D/7dr67/4Re7qZcqD6h1MUEprhrGILkTXqopm+ikxXC8M2TeHKnDjuVjQhKum35M/WDrCuVM1iziY0QQSkMA4Arr047iZSwIfIcD4evlm5kfOffRg4lP/o8JOcYTCrdP1pyj7+DL6X1A8Xt7hHGWFEsarp7dU+vatIug58V4iHbjWs2uO3Nl0PVcutVBVRFmn66mLuBL5IEI1S7xObYMbjgFsuSpzye5CPHPUCa8bPnzggBJZi8Evis4ExyqAQJx5PJM1cz5oFO38LG8nVYqVtQBSXmGo3OYqfc/hLC591Cl/aTPMyePG87Crrq8eHZY4RU3xaMA6AkvIr2TCP6qA4ljsxmsp0Ig0WVnHtnwE4szzHKzK8lACEliUgC79ongVfhEEeAuar47xOOQRiMH5ROwy/tgHZJecU8bzkGa6nod02HjKooeXFWBP33ltViidwnh7sFI+UrLYno36N/p2RvTzaAl02qIvWNm4tsNm7TQ1jG40s8rNU+eNCeX5yyevuQDXMOU1hGdAK1P+Zs7+e0wAHsUznYqjcvUkTpUy0JMYZ57VEFv3TEpLl17H1AOzPMV9o9qPoFSyTNkVT5pZXHpu1OyzGKvr+chcWfTZwxjISyLN4bDZL4qBlg4pF54su2DDzrXBHGijySSwaQK69JuuPpU/MwE8gYGT82dWdKbiN+TI0Xnl7UR6IU3Th3RNqlyRJaTRy6zOVof9s09MWjIJk5OWI5SpijvXYYzyMKl1LgVmL5fLOTxPpnZnFz5aIM1pN+tXIYyjAmR8+9Etv+nmNWNaaQ8vEeYMoLDWplXOpiN7Rq8G8umiHdmbZ0ux3DRmmb+lFL6mVn7ELktJBTJAfeVZwsTjcHLjYk5+DWNkB5sT74y8/vrrTd++J2NpbxnuylKyKtMQzyESysjWMCRBuvXxr1bTjJTAVgjo0m+lptRzRQTi+Vf5ZivSbzFVeLTTDfqzP/uzIc/4xbQYKrhahJ89m2ZgiMSuTk/mJQE9RTqszfecIy9u/EYX26eNEShR3Hnnnbxdv4np+sqKnkN8ThoP3eiB7bwE0iO261RX9j0585XtXAu8Zh/vt+NkVmc57GLSTJkxeV1nTH+gmZ45xg15ev3W9Z/tcez7Mw4822Q7u8tXzdJHiV3NJuLRgWEa/vILQ7rSDzTzxMkwmfsSf1nhNaRomJAMG6vEPVY3K67KWx1eziVTGe6hBFZIQJd+hZWiSuslkM9Cltn//Oc/X6+ii2mG87Yh/23pnmtijgWHOPMEMrIK4MbQbKrIHRwykNFj9bYMzAsctWk8OaXcb0WZK1I2YyoJPQnwN9bwTm+l8HKH+CfcS/FVCLS6961FlwDLMInzMPyTg14KrZfV10wwxnv4rcXtMjJuj5DPRUNDzEy8PYkzDTcHwNKe2V8wPMzIlQl6hPSf4tq87bbbSpld6eOCQocNPbm6bIn4uDWx1IULp8e9r1p+K/MqTX+5eZZLhoslxr92c/NP6wxIYKMEdOk3WnGqLQEJDCUQPVemXssM47oySKgy0qHh7cF+Z74st7VfVSYwvAYCZTXh8MQu0NX8WNUSetQ+mDK6yHgde3I8mkBKqs2zxIR7H3/jxXvQEU/G1vRTIvH08itlU+RsOm/UCO9ss2IC4KVvf7DRhuEk+/DDD/nLL6sJT56WvOgoCRdjufC+qoW8oHA70+c82PwqIZs45OnG9QIN3Hu+oVvWYOofhpfml+FMdjDA9cLQDDV7aYNfB8mYQAJrIPDbW/AatFEHCayfwLhn4frtGq7hRgnQ9eHtet7AJNBq7FF20U2Mmb1cw9kqs4w8Sn6ZcYXhPdlyFN5YnkMfmj0O+dvahy59G4RXh1Ec7Ydd2ekZ33DDDTQhAkepsdfEVbuCcHgsuCtscMDf0YYDnB+7DAIc2vw4HC1t0xkryKUteIb49l0NO1K2tmdOMQfOsvau9txTaKnA8HCrS98cSpi93OEaniBl07ryksG9b71BVYo1hUQCKpqv2EadXvglUxHzUALrJKBLv856USsJSOAIAl2dklYRLDTlR4+w9O1TQnZYibnmmmv4Wwqh2/q3E6kzTVNkoWURhrdFgH5zfCkt/sa7FTStsvHQM8aoWPcbziT+/LbMXIm20MZpQRlox/XL2ErqlhfUtddei3fHD78d4ASai64zcWa/5ECTBpyjbcOZQPl5swBFqw6wsKU9n3iIJF167thU94VsgjCiiTZvUMTwS1HxyKP6+MUlQ21Sp/wyTWug2WZI1hrZmt1ICUhgXgK69PPyVJoEJHAGAuO6EXRVmcRg6u+v/uqv8MTeffddVP/rv/5rpEXnhv5NdFWd2SsrdRztUsLawvuzaG2ED+pTVUH/4UFpwxNUBQ3PuMuUQ2hEmiEpZ0dUFs1rAnzWhDlkfqwGn72sjQosEZUmlPVVho9NU6Y3LAEJrIqALv2qqkNlJLBeAl39gBVqPIuqswhZIRxV6iLQU+M9p7qkDYwfInlImoHFbStZv+H9ZwdaOouQgWWZbCW0V6LGCdrDaSwtSynDJzDQIiQggSSgS58oDEhAAhKQgAQkIAEJSEACEpCABLZE4JotKauuEpCABCQgAQlIQAISkIAEJCABCVwR0KW/IuF/CUhAAhKQgAQkIAEJSEACEpDApgjo0m+qulRWAhKQgAQkIAEJSEACEpCABCRwRUCX/oqE/yUgAQlIQAISkIAEJCABCUhAApsioEu/qepSWQlIQAISkIAEJCABCUhAAhKQwBUBXforEv6XgAQkIAEJSEACEpCABCQgAQlsioAu/aaqS2UlIAEJSEACEpCABCQgAQlIQAJXBHTpr0j4XwISkIAEJCABCUhAAhKQgAQksCkCuvSbqi6VlYAEJCABCUhAAhKQgAQkIAEJXBHQpb8i4X8JSEACEpCABCQgAQlIQAISkMCmCOjSb6q6VFYCEpCABCQgAQlIQAISkIAEJHBFQJf+ioT/JSABCUhAAhKQgAQkIAEJSEACmyKgS7+p6lJZCUhAAhKQgAQkIAEJSEACEpDAFQFd+isS/peABCQgAQlIQAISkIAEJCABCWyKgC79pqpLZSUgAQlIQAISkIAEJCABCUhAAlcEdOmvSPhfAhKQgAQkIAEJSEACEpCABCSwKQK69JuqLpWVgAQkIAEJSEACEpCABCQgAQlcEdClvyLhfwlIQAISkIAEJCABCUhAAhKQwKYI6NJvqrpUVgISkIAEJCABCUhAAhKQgAQkcEVAl/6KhP8lIAEJSEACEpCABCQgAQlIQAKbIqBLv6nqUlkJSEACEpCABCQgAQlIQAISkMAVAV36KxL+l4AEJCABCUhAAhKQgAQkIAEJbIqALv2mqktlJSABCUhAAhKQgAQkIAEJSEACVwR06a9I+F8CEpCABCQgAQlIQAISkIAEJLApArr0m6oulZWABCQgAQlIQAISkIAEJCABCVwR0KW/IuF/CUhAAhKQgAQkIAEJSEACEpDApgjo0m+qulRWAhKQgAQkIAEJSEACEpCABCRwRUCX/oqE/yUgAQlIQAISkIAEJCABCUhAApsioEu/qepSWQlIQAISkIAEJCABCUhAAhKQwBUBXforEv6XgAQkIAEJSEACEpCABCQgAQlsioAu/aaqS2UlIAEJSEACEpCABCQgAQlIQAJXBHTpr0j4XwISkIAEJCABCUhAAhKQgAQksCkCuvSbqi6VlYAEJCABCUhAAhKQgAQkIAEJXBHQpb8i4X8JSEACEpCABCQgAQlIQAISkMCmCOjSb6q6VFYCEpCABCQgAQlIQAISkIAEJHBFQJf+ioT/JSABCUhAAhKQgAQkIAEJSEACmyKgS7+p6lJZCUhAAhKQgAQkIAEJSEACEpDAFQFd+isS/peABCQgAQlIQAISkIAEJCABCWyKgC79pqpLZSUgAQlIQAISkIAEJCABCUhAAlcEdOmvSPhfAhKQgAQkIAEJSEACEpCABCSwKQK69JuqLpWVgAQkIAEJSEACEpCABCQgAQlcEdClvyLhfwlIQAISkIAEJCABCUhAAhKQwKYI6NJvqrpUVgISkIAEJCABCUhAAhKQgAQkcEVAl/6KhP8lIAEJSEACEpCABCQgAQlIQAKbIqBLv6nqUlkJSEACEpCABCQgAQlIQAISkMAVAV36KxL+l4AEJCABCUhAAhKQgAQkIAEJbIqALv2mqktlJSABCUhAAhKQgAQkIAEJSEACVwR06a9I+F8CEpCABCQgAQlIQAISkIAEJLApArr0m6oulZWABCQgAQlIQAISkIAEJCABCVwR0KW/IuF/CUhAAhKQgAQkIAEJSEACEpDApgjo0m+qulRWAhKQgAQkIAEJSEACEpCABCRwRUCX/oqE/yUgAQlIQAISkIAEJCABCUhAApsioEu/qepSWQlIQAISkIAEJCABCUhAAhKQwBUBXforEv6XgAQkIAEJSEACEpCABCQgAQlsioAu/aaqS2UlIAEJSEACEpCABCQgAQlIQAJXBHTpr0j4XwISkIAEJCABCUhAAhKQgAQk8P+3X4c2AAAACMP+/xrFEUuqsKQoUgIufWouZQkQIECAAAECBAgQIECAwAVc+ktIAgQIECBAgAABAgQIECCQEnDpU3MpS4AAAQIECBAgQIAAAQIELuDSX0ISIECAAAECBAgQIECAAIGUgEufmktZAgQIECBAgAABAgQIECBwAZf+EpIAAQIECBAgQIAAAQIECKQEXPrUXMoSIECAAAECBAgQIECAAIELuPSXkAQIECBAgAABAgQIECBAICXg0qfmUpYAAQIECBAgQIAAAQIECFzApb+EJECAAAECBAgQIECAAAECKQGXPjWXsgQIECBAgAABAgQIECBA4AIu/SUkAQIECBAgQIAAAQIECBBICbj0qbmUJUCAAAECBAgQIECAAAECF3DpLyEJECBAgAABAgQIECBAgEBKwKVPzaUsAQIECBAgQIAAAQIECBC4gEt/CUmAAAECBAgQIECAAAECBFICLn1qLmUJECBAgAABAgQIECBAgMAFXPpLSAIECBAgQIAAAQIECBAgkBJw6VNzKUuAAAECBAgQIECAAAECBC7g0l9CEiBAgAABAgQIECBAgACBlIBLn5pLWQIECBAgQIAAAQIECBAgcAGX/hKSAAECBAgQIECAAAECBAikBFz61FzKEiBAgAABAgQIECBAgACBC7j0l5AECBAgQIAAAQIECBAgQCAl4NKn5lKWAAECBAgQIECAAAECBAhcwKW/hCRAgAABAgQIECBAgAABAikBlz41l7IECBAgQIAAAQIECBAgQOACLv0lJAECBAgQIECAAAECBAgQSAm49Km5lCVAgAABAgQIECBAgAABAhdw6S8hCRAgQIAAAQIECBAgQIBASsClT82lLAECBAgQIECAAAECBAgQuIBLfwlJgAABAgQIECBAgAABAgRSAi59ai5lCRAgQIAAAQIECBAgQIDABVz6S0gCBAgQIECAAAECBAgQIJAScOlTcylLgAABAgQIECBAgAABAgQu4NJfQhIgQIAAAQIECBAgQIAAgZSAS5+aS1kCBAgQIECAAAECBAgQIHABl/4SkgABAgQIECBAgAABAgQIpARc+tRcyhIgQIAAAQIECBAgQIAAgQu49JeQBAgQIECAAAECBAgQIEAgJeDSp+ZSlgABAgQIECBAgAABAgQIXMClv4QkQIAAAQIECBAgQIAAAQIpAZc+NZeyBAgQIECAAAECBAgQIEDgAi79JSQBAgQIECBAgAABAgQIEEgJuPSpuZQlQIAAAQIECBAgQIAAAQIXcOkvIQkQIECAAAECBAgQIECAQErApU/NpSwBAgQIECBAgAABAgQIELiAS38JSYAAAQIECBAgQIAAAQIEUgIufWouZQkQIECAAAECBAgQIECAwAVc+ktIAgQIECBAgAABAgQIECCQEnDpU3MpS4AAAQIECBAgQIAAAQIELuDSX0ISIECAAAECBAgQIECAAIGUgEufmktZAgQIECBAgAABAgQIECBwAZf+EpIAAQIECBAgQIAAAQIECKQEXPrUXMoSIECAAAECBAgQIECAAIELuPSXkAQIECBAgAABAgQIECBAICXg0qfmUpYAAQIECBAgQIAAAQIECFzApb+EJECAAAECBAgQIECAAAECKQGXPjWXsgQIECBAgAABAgQIECBA4AIu/SUkAQIECBAgQIAAAQIECBBICbj0qbmUJUCAAAECBAgQIECAAAECF3DpLyEJECBAgAABAgQIECBAgEBKwKVPzaUsAQIECBAgQIAAAQIECBC4gEt/CUmAAAECBAgQIECAAAECBFICLn1qLmUJECBAgAABAgQIECBAgMAFXPpLSAIECBAgQIAAAQIECBAgkBJw6VNzKUuAAAECBAgQIECAAAECBC7g0l9CEiBAgAABAgQIECBAgACBlIBLn5pLWQIECBAgQIAAAQIECBAgcAGX/hKSAAECBAgQIECAAAECBAikBFz61FzKEiBAgAABAgQIECBAgACBC7j0l5AECBAgQIAAAQIECBAgQCAl4NKn5lKWAAECBAgQIECAAAECBAhcwKW/hCRAgAABAgQIECBAgAABAikBlz41l7IECBAgQIAAAQIECBAgQOACLv0lJAECBAgQIECAAAECBAgQSAm49Km5lCVAgAABAgQIECBAgAABAhdw6S8hCRAgQIAAAQIECBAgQIBASsClT82lLAECBAgQIECAAAECBAgQuIBLfwlJgAABAgQIECBAgAABAgRSAi59ai5lCRAgQIAAAQIECBAgQIDABVz6S0gCBAgQIECAAAECBAgQIJAScOlTcylLgAABAgQIECBAgAABAgQu4NJfQhIgQIAAAQIECBAgQIAAgZSAS5+aS1kCBAgQIECAAAECBAgQIHABl/4SkgABAgQIECBAgAABAgQIpARc+tRcyhIgQIAAAQIECBAgQIAAgQu49JeQBAgQIECAAAECBAgQIEAgJeDSp+ZSlgABAgQIECBAgAABAgQIXMClv4QkQIAAAQIECBAgQIAAAQIpAZc+NZeyBAgQIECAAAECBAgQIEDgAi79JSQBAgQIECBAgAABAgQIEEgJuPSpuZQlQIAAAQIECBAgQIAAAQIXcOkvIQkQIECAAAECBAgQIECAQErApU/NpSwBAgQIECBAgAABAgQIELiAS38JSYAAAQIECBAgQIAAAQIEUgIufWouZQkQIECAAAECBAgQIECAwAVc+ktIAgQIECBAgAABAgQIECCQEnDpU3MpS4AAAQIECBAgQIAAAQIELuDSX0ISIECAAAECBAgQIECAAIGUgEufmktZAgQIECBAgAABAgQIECBwAZf+EpIAAQIECBAgQIAAAQIECKQEXPrUXMoSIECAAAECBAgQIECAAIELuPSXkAQIECBAgAABAgQIECBAICXg0qfmUpYAAQIECBAgQIAAAQIECFzApb+EJECAAAECBAgQIECAAAECKQGXPjWXsgQIECBAgAABAgQIECBA4AIu/SUkAQIECBAgQIAAAQIECBBICbj0qbmUJUCAAAECBAgQIECAAAECF3DpLyEJECBAgAABAgQIECBAgEBKwKVPzaUsAQIECBAgQIAAAQIECBC4gEt/CUmAAAECBAgQIECAAAECBFICLn1qLmUJECBAgAABAgQIECBAgMAFXPpLSAIECBAgQIAAAQIECBAgkBJw6VNzKUuAAAECBAgQIECAAAECBC7g0l9CEiBAgAABAgQIECBAgACBlIBLn5pLWQIECBAgQIAAAQIECBAgcAGX/hKSAAECBAgQIECAAAECBAikBFz61FzKEiBAgAABAgQIECBAgACBC7j0l5AECBAgQIAAAQIECBAgQCAl4NKn5lKWAAECBAgQIECAAAECBAhcwKW/hCRAgAABAgQIECBAgAABAikBlz41l7IECBAgQIAAAQIECBAgQOACLv0lJAECBAgQIECAAAECBAgQSAm49Km5lCVAgAABAgQIECBAgAABAhdw6S8hCRAgQIAAAQIECBAgQIBASsClT82lLAECBAgQIECAAAECBAgQuIBLfwlJgAABAgQIECBAgAABAgRSAi59ai5lCRAgQIAAAQIECBAgQIDABVz6S0gCBAgQIECAAAECBAgQIJAScOlTcylLgAABAgQIECBAgAABAgQu4NJfQhIgQIAAAQIECBAgQIAAgZSAS5+aS1kCBAgQIECAAAECBAgQIHABl/4SkgABAgQIECBAgAABAgQIpARc+tRcyhIgQIAAAQIECBAgQIAAgQu49JeQBAgQIECAAAECBAgQIEAgJeDSp+ZSlgABAgQIECBAgAABAgQIXMClv4QkQIAAAQIECBAgQIAAAQIpAZc+NZeyBAgQIECAAAECBAgQIEDgAi79JSQBAgQIECBAgAABAgQIEEgJuPSpuZQlQIAAAQIECBAgQIAAAQIXcOkvIQkQIECAAAECBAgQIECAQErApU/NpSwBAgQIECBAgAABAgQIELiAS38JSYAAAQIECBAgQIAAAQIEUgIufWouZQkQIECAAAECBAgQIECAwAVc+ktIAgQIECBAgAABAgQIECCQEnDpU3MpS4AAAQIECBAgQIAAAQIELuDSX0ISIECAAAECBAgQIECAAIGUgEufmktZAgQIECBAgAABAgQIECBwAZf+EpIAAQIECBAgQIAAAQIECKQEXPrUXMoSIECAAAECBAgQIECAAIELuPSXkAQIECBAgAABAgQIECBAICXg0qfmUpYAAQIECBAgQIAAAQIECFzApb+EJECAAAECBAgQIECAAAECKQGXPjWXsgQIECBAgAABAgQIECBA4AIu/SUkAQIECBAgQIAAAQIECBBICbj0qbmUJUCAAAECBAgQIECAAAECF3DpLyEJECBAgAABAgQIECBAgEBKwKVPzaUsAQIECBAgQIAAAQIECBC4gEt/CUmAAAECBAgQIECAAAECBFICLn1qLmUJECBAgAABAgQIECBAgMAFXPpLSAIECBAgQIAAAQIECBAgkBJw6VNzKUuAAAECBAgQIECAAAECBC7g0l9CEiBAgAABAgQIECBAgACBlIBLn5pLWQIECBAgQIAAAQIECBAgcAGX/hKSAAECBAgQIECAAAECBAikBFz61FzKEiBAgAABAgQIECBAgACBC7j0l5AECBAgQIAAAQIECBAgQCAl4NKn5lKWAAECBAgQIECAAAECBAhcwKW/hCRAgAABAgQIECBAgAABAikBlz41l7IECBAgQIAAAQIECBAgQOACLv0lJAECBAgQIECAAAECBAgQSAm49Km5lCVAgAABAgQIECBAgAABAhdw6S8hCRAgQIAAAQIECBAgQIBASsClT82lLAECBAgQIECAAAECBAgQuIBLfwlJgAABAgQIECBAgAABAgRSAi59ai5lCRAgQIAAAQIECBAgQIDABVz6S0gCBAgQIECAAAECBAgQIJAScOlTcylLgAABAgQIECBAgAABAgQu4NJfQhIgQIAAAQIECBAgQIAAgZSAS5+aS1kCBAgQIECAAAECBAgQIHABl/4SkgABAgQIECBAgAABAgQIpARc+tRcyhIgQIAAAQIECBAgQIAAgQsM9zC5YHAgDTEAAAAASUVORK5CYII=;" vertex="1" parent="1">
          <mxGeometry x="382.25" y="325" width="87.5" height="70" as="geometry" />
        </mxCell>
      </root>
    </mxGraphModel>
  </diagram>
</mxfile>
